<svg xmlns="http://www.w3.org/2000/svg" xmlns:xlink="http://www.w3.org/1999/xlink" xmlns:lucid="lucid" width="1271" height="1164"><g transform="translate(-19 -26)" lucid:page-tab-id="0_0"><path d="M0 0h1870.87v1322.83H0z" fill="#fff"/><path d="M88.4 80l21.72.08c4.8 0 8.52 3.84 8.52 8h69c4.68 0 8.28 5.2 8.28 9.28v49.04c-.96 3.04-1.2 2.8-5.64 3.04L97.04 160c-4.56 0-5.76.24-6.6-3.84-2.04-10.4-6.84-46.48-10.44-68.8 0-4.08 3.72-7.36 8.4-7.36z" fill="#b3b3b3"/><path d="M91.52 82.48h18.36c4.68 0 8.16 3.04 8.16 7.2l69.12.56c4.44 0 8.16 3.2 8.16 7.2L194 142.08c0 4 .72 5.68-3.84 5.68L96.08 159.6c-4.44-.88-4.56-.32-5.28-4.08-3.72-19.44-4.2-43.76-6.48-65.84 0-4 2.64-7.2 7.2-7.2z" fill="url(#a)"/><path d="M118.04 95.76h73.8c4.56 0 8.16 2.88 8.16 6.4 0 0-3.6 42.08-3.96 43.84-.72 3.12-.72 3.12-5.16 3.6l-95.16 10.24c-3.36.24-3.96-.48-2.76-.48 3.24-9.6-1.08-38.16-2.64-56.4.24-1.2 1.2-2.08 2.28-2.08h20.76c2.52-.32 4.2-2.64 4.68-5.12z" fill="url(#b)"/><path d="M123.08 98.32h63.48c6.96 0 10.8-.4 10.8 5.68L194 137.2c0 3.12-3.12 5.04-7.2 6.16l-9.12 1.04c-10.32-17.04-20.76-34.8-54.6-46.08" stroke="#000" stroke-opacity="0" stroke-width=".23" fill="url(#c)"/><path d="M96.08 103.44c44.64-2.32 60.24 25.36 71.04 42l-67.56 8.64-4.68-49.04c-.12-.8.36-1.6 1.2-1.6z" stroke="#000" stroke-opacity="0" stroke-width=".23" fill="url(#d)"/><path d="M20 166a6 6 0 0 1 6-6h228a6 6 0 0 1 6 6v48a6 6 0 0 1-6 6H26a6 6 0 0 1-6-6z" stroke="#000" stroke-opacity="0" stroke-width="3" fill="#fff" fill-opacity="0"/><use xlink:href="#e" transform="matrix(1,0,0,1,25,165) translate(18.6666666666667 28.499999999999993)"/><use xlink:href="#f" transform="matrix(1,0,0,1,25,165) translate(161.38888888888886 28.499999999999993)"/><path d="M140 220.96v720.61" stroke="#5e5e5e" stroke-width="2" fill="none"/><path d="M141 221h-2v-1.04h2" fill="#5e5e5e"/><path d="M140 956.83l-4.64-14.27h9.28z" stroke="#5e5e5e" stroke-width="2" fill="#5e5e5e"/><path d="M100 966a6 6 0 0 1 6-6h228a6 6 0 0 1 6 6v243a6 6 0 0 1-6 6H106a6 6 0 0 1-6-6z" stroke="#000" stroke-opacity="0" stroke-width="3" fill="#fff" fill-opacity="0"/><use xlink:href="#g" transform="matrix(1,0,0,1,105,965) translate(0 71.37152777777777)"/><use xlink:href="#h" transform="matrix(1,0,0,1,105,965) translate(0 98.03819444444446)"/><use xlink:href="#i" transform="matrix(1,0,0,1,105,965) translate(0 124.70486111111111)"/><use xlink:href="#j" transform="matrix(1,0,0,1,105,965) translate(0 151.37152777777777)"/><use xlink:href="#k" transform="matrix(1,0,0,1,105,965) translate(0 178.03819444444443)"/><g transform="matrix(1,0,0,1,105,965)"><a xlink:href="http://package-lock.jason" target="_blank"><path class="lucid-link lucid-hotspot lucid-overlay-hotspot" fill-opacity="0" d="M0 80.26h189.94v26.67H0z"/></a><a xlink:href="http://package.jason" target="_blank"><path class="lucid-link lucid-hotspot lucid-overlay-hotspot" fill-opacity="0" d="M0 106.93h143.15v26.67H0z"/></a></g><path d="M805.6 245l14.48.06c3.2 0 5.68 2.88 5.68 6h46c3.12 0 5.52 3.9 5.52 6.96v36.78c-.64 2.28-.8 2.1-3.76 2.28L811.36 305c-3.04 0-3.84.18-4.4-2.88-1.36-7.8-4.56-34.86-6.96-51.6 0-3.06 2.48-5.52 5.6-5.52z" fill="#b3b3b3"/><path d="M807.68 246.86h12.24c3.12 0 5.44 2.28 5.44 5.4l46.08.42c2.96 0 5.44 2.4 5.44 5.4l-.88 33.48c0 3 .48 4.26-2.56 4.26l-62.72 8.88c-2.96-.66-3.04-.24-3.52-3.06-2.48-14.58-2.8-32.82-4.32-49.38 0-3 1.76-5.4 4.8-5.4z" fill="url(#l)"/><path d="M825.36 256.82h49.2c3.04 0 5.44 2.16 5.44 4.8 0 0-2.4 31.56-2.64 32.88-.48 2.34-.48 2.34-3.44 2.7l-63.44 7.68c-2.24.18-2.64-.36-1.84-.36 2.16-7.2-.72-28.62-1.76-42.3.16-.9.8-1.56 1.52-1.56h13.84c1.68-.24 2.8-1.98 3.12-3.84z" fill="url(#m)"/><path d="M828.72 258.74h42.32c4.64 0 7.2-.3 7.2 4.26L876 287.9c0 2.34-2.08 3.78-4.8 4.62l-6.08.78c-6.88-12.78-13.84-26.1-36.4-34.56" stroke="#000" stroke-opacity="0" stroke-width=".23" fill="url(#n)"/><path d="M810.72 262.58c29.76-1.74 40.16 19.02 47.36 31.5l-45.04 6.48-3.12-36.78c-.08-.6.24-1.2.8-1.2z" stroke="#000" stroke-opacity="0" stroke-width=".23" fill="url(#o)"/><path d="M720 301a6 6 0 0 1 6-6h228a6 6 0 0 1 6 6v48a6 6 0 0 1-6 6H726a6 6 0 0 1-6-6z" stroke="#000" stroke-opacity="0" stroke-width="3" fill="#fff" fill-opacity="0"/><use xlink:href="#p" transform="matrix(1,0,0,1,725,300) translate(64.18518518518519 29.84722222222222)"/><path d="M1044.2 65l10.86.04c2.4 0 4.26 1.92 4.26 4h34.5c2.34 0 4.14 2.6 4.14 4.64V98.2c-.48 1.52-.6 1.4-2.82 1.52l-46.62 5.28c-2.28 0-2.88.12-3.3-1.92-1.02-5.2-3.42-23.24-5.22-34.4 0-2.04 1.86-3.68 4.2-3.68z" fill="#b3b3b3"/><path d="M1045.76 66.24h9.18c2.34 0 4.08 1.52 4.08 3.6l34.56.28c2.22 0 4.08 1.6 4.08 3.6l-.66 22.32c0 2 .36 2.84-1.92 2.84l-47.04 5.92c-2.22-.44-2.28-.16-2.64-2.04-1.86-9.72-2.1-21.88-3.24-32.92 0-2 1.32-3.6 3.6-3.6z" fill="url(#q)"/><path d="M1059.02 72.88h36.9c2.28 0 4.08 1.44 4.08 3.2 0 0-1.8 21.04-1.98 21.92-.36 1.56-.36 1.56-2.58 1.8l-47.58 5.12c-1.68.12-1.98-.24-1.38-.24 1.62-4.8-.54-19.08-1.32-28.2.12-.6.6-1.04 1.14-1.04h10.38c1.26-.16 2.1-1.32 2.34-2.56z" fill="url(#r)"/><path d="M1061.54 74.16h31.74c3.48 0 5.4-.2 5.4 2.84L1097 93.6c0 1.56-1.56 2.52-3.6 3.08l-4.56.52c-5.16-8.52-10.38-17.4-27.3-23.04" stroke="#000" stroke-opacity="0" stroke-width=".23" fill="url(#s)"/><path d="M1048.04 76.72c22.32-1.16 30.12 12.68 35.52 21l-33.78 4.32-2.34-24.52c-.06-.4.18-.8.6-.8z" stroke="#000" stroke-opacity="0" stroke-width=".23" fill="url(#t)"/><path d="M1044.2 165l10.86.04c2.4 0 4.26 1.92 4.26 4h34.5c2.34 0 4.14 2.6 4.14 4.64v24.52c-.48 1.52-.6 1.4-2.82 1.52l-46.62 5.28c-2.28 0-2.88.12-3.3-1.92-1.02-5.2-3.42-23.24-5.22-34.4 0-2.04 1.86-3.68 4.2-3.68z" fill="#b3b3b3"/><path d="M1045.76 166.24h9.18c2.34 0 4.08 1.52 4.08 3.6l34.56.28c2.22 0 4.08 1.6 4.08 3.6l-.66 22.32c0 2 .36 2.84-1.92 2.84l-47.04 5.92c-2.22-.44-2.28-.16-2.64-2.04-1.86-9.72-2.1-21.88-3.24-32.92 0-2 1.32-3.6 3.6-3.6z" fill="url(#u)"/><path d="M1059.02 172.88h36.9c2.28 0 4.08 1.44 4.08 3.2 0 0-1.8 21.04-1.98 21.92-.36 1.56-.36 1.56-2.58 1.8l-47.58 5.12c-1.68.12-1.98-.24-1.38-.24 1.62-4.8-.54-19.08-1.32-28.2.12-.6.6-1.04 1.14-1.04h10.38c1.26-.16 2.1-1.32 2.34-2.56z" fill="url(#v)"/><path d="M1061.54 174.16h31.74c3.48 0 5.4-.2 5.4 2.84l-1.68 16.6c0 1.56-1.56 2.52-3.6 3.08l-4.56.52c-5.16-8.52-10.38-17.4-27.3-23.04" stroke="#000" stroke-opacity="0" stroke-width=".23" fill="url(#w)"/><path d="M1048.04 176.72c22.32-1.16 30.12 12.68 35.52 21l-33.78 4.32-2.34-24.52c-.06-.4.18-.8.6-.8z" stroke="#000" stroke-opacity="0" stroke-width=".23" fill="url(#x)"/><path d="M1044.2 265l10.86.04c2.4 0 4.26 1.92 4.26 4h34.5c2.34 0 4.14 2.6 4.14 4.64v24.52c-.48 1.52-.6 1.4-2.82 1.52l-46.62 5.28c-2.28 0-2.88.12-3.3-1.92-1.02-5.2-3.42-23.24-5.22-34.4 0-2.04 1.86-3.68 4.2-3.68z" fill="#b3b3b3"/><path d="M1045.76 266.24h9.18c2.34 0 4.08 1.52 4.08 3.6l34.56.28c2.22 0 4.08 1.6 4.08 3.6l-.66 22.32c0 2 .36 2.84-1.92 2.84l-47.04 5.92c-2.22-.44-2.28-.16-2.64-2.04-1.86-9.72-2.1-21.88-3.24-32.92 0-2 1.32-3.6 3.6-3.6z" fill="url(#y)"/><path d="M1059.02 272.88h36.9c2.28 0 4.08 1.44 4.08 3.2 0 0-1.8 21.04-1.98 21.92-.36 1.56-.36 1.56-2.58 1.8l-47.58 5.12c-1.68.12-1.98-.24-1.38-.24 1.62-4.8-.54-19.08-1.32-28.2.12-.6.6-1.04 1.14-1.04h10.38c1.26-.16 2.1-1.32 2.34-2.56z" fill="url(#z)"/><path d="M1061.54 274.16h31.74c3.48 0 5.4-.2 5.4 2.84l-1.68 16.6c0 1.56-1.56 2.52-3.6 3.08l-4.56.52c-5.16-8.52-10.38-17.4-27.3-23.04" stroke="#000" stroke-opacity="0" stroke-width=".23" fill="url(#A)"/><path d="M1048.04 276.72c22.32-1.16 30.12 12.68 35.52 21l-33.78 4.32-2.34-24.52c-.06-.4.18-.8.6-.8z" stroke="#000" stroke-opacity="0" stroke-width=".23" fill="url(#B)"/><path d="M1044.2 358.67l10.86.04c2.4 0 4.26 1.93 4.26 4h34.5c2.34 0 4.14 2.6 4.14 4.65v24.52c-.48 1.52-.6 1.4-2.82 1.52l-46.62 5.27c-2.28 0-2.88.12-3.3-1.92-1.02-5.2-3.42-23.24-5.22-34.4 0-2.04 1.86-3.68 4.2-3.68z" fill="#b3b3b3"/><path d="M1045.76 359.9h9.18c2.34 0 4.08 1.53 4.08 3.6l34.56.3c2.22 0 4.08 1.6 4.08 3.6l-.66 22.3c0 2 .36 2.85-1.92 2.85l-47.04 5.92c-2.22-.44-2.28-.16-2.64-2.04-1.86-9.72-2.1-21.88-3.24-32.92 0-2 1.32-3.6 3.6-3.6z" fill="url(#C)"/><path d="M1059.02 366.55h36.9c2.28 0 4.08 1.44 4.08 3.2 0 0-1.8 21.04-1.98 21.92-.36 1.56-.36 1.56-2.58 1.8l-47.58 5.12c-1.68.1-1.98-.25-1.38-.25 1.62-4.8-.54-19.08-1.32-28.2.12-.6.6-1.04 1.14-1.04h10.38c1.26-.15 2.1-1.3 2.34-2.55z" fill="url(#D)"/><path d="M1061.54 367.83h31.74c3.48 0 5.4-.2 5.4 2.84l-1.68 16.6c0 1.56-1.56 2.52-3.6 3.08l-4.56.52c-5.16-8.52-10.38-17.4-27.3-23.04" stroke="#000" stroke-opacity="0" stroke-width=".23" fill="url(#E)"/><path d="M1048.04 370.4c22.32-1.17 30.12 12.67 35.52 21l-33.78 4.3-2.34-24.5c-.06-.4.18-.8.6-.8z" stroke="#000" stroke-opacity="0" stroke-width=".23" fill="url(#F)"/><path d="M879.93 275h74.77a6 6 0 0 0 6-6V91a6 6 0 0 1 6-6h57.27" stroke="#5e5e5e" stroke-width="2" fill="none"/><path d="M879.95 276h-1.1l.16-2h.95" fill="#5e5e5e"/><path d="M1039.24 85l-14.27 4.64v-9.28z" stroke="#5e5e5e" stroke-width="2" fill="#5e5e5e"/><path d="M879.93 275h74.77a6 6 0 0 0 6-6v-78a6 6 0 0 1 6-6h57.27" stroke="#5e5e5e" stroke-width="2" fill="none"/><path d="M879.95 276h-1.1l.16-2h.95" fill="#5e5e5e"/><path d="M1039.24 185l-14.27 4.64v-9.28z" stroke="#5e5e5e" stroke-width="2" fill="#5e5e5e"/><path d="M879.93 275h75.77a5 5 0 0 1 5 5 5 5 0 0 0 5 5h58.27" stroke="#5e5e5e" stroke-width="2" fill="none"/><path d="M879.95 276h-1.1l.16-2h.95" fill="#5e5e5e"/><path d="M1039.24 285l-14.27 4.64v-9.28z" stroke="#5e5e5e" stroke-width="2" fill="#5e5e5e"/><path d="M879.93 275h74.77a6 6 0 0 1 6 6v91.67a6 6 0 0 0 6 6h57.27" stroke="#5e5e5e" stroke-width="2" fill="none"/><path d="M879.95 276h-1.1l.16-2h.95" fill="#5e5e5e"/><path d="M1039.24 378.67l-14.27 4.63v-9.27z" stroke="#5e5e5e" stroke-width="2" fill="#5e5e5e"/><path d="M1120 46a6 6 0 0 1 6-6h228a6 6 0 0 1 6 6v78a6 6 0 0 1-6 6h-228a6 6 0 0 1-6-6z" stroke="#000" stroke-opacity="0" stroke-width="3" fill="#fff" fill-opacity="0"/><use xlink:href="#G" transform="matrix(1,0,0,1,1125,45) translate(0 21.72222222222222)"/><use xlink:href="#H" transform="matrix(1,0,0,1,1125,45) translate(0 43.05555555555556)"/><use xlink:href="#I" transform="matrix(1,0,0,1,1125,45) translate(0 64.38888888888889)"/><a xlink:href="http://caroussel.scss" target="_blank" transform="matrix(1,0,0,1,1125,45)"><path class="lucid-link lucid-hotspot lucid-overlay-hotspot" fill-opacity="0" d="M0 28.83h126.32v21.33H0z"/></a><path d="M1120 143.33a6 6 0 0 1 6-6h228a6 6 0 0 1 6 6v83.34a6 6 0 0 1-6 6h-228a6 6 0 0 1-6-6z" stroke="#000" stroke-opacity="0" stroke-width="3" fill="#fff" fill-opacity="0"/><use xlink:href="#J" transform="matrix(1,0,0,1,1125,142.33333333333331) translate(0 14.222222222222221)"/><use xlink:href="#K" transform="matrix(1,0,0,1,1125,142.33333333333331) translate(0 35.55555555555556)"/><use xlink:href="#L" transform="matrix(1,0,0,1,1125,142.33333333333331) translate(0 56.888888888888886)"/><use xlink:href="#M" transform="matrix(1,0,0,1,1125,142.33333333333331) translate(0 78.22222222222223)"/><path d="M1120 243.33a6 6 0 0 1 6-6h228a6 6 0 0 1 6 6v83.34a6 6 0 0 1-6 6h-228a6 6 0 0 1-6-6z" stroke="#000" stroke-opacity="0" stroke-width="3" fill="#fff" fill-opacity="0"/><use xlink:href="#N" transform="matrix(1,0,0,1,1125,242.33333333333331) translate(0 14.222222222222221)"/><use xlink:href="#O" transform="matrix(1,0,0,1,1125,242.33333333333331) translate(0 35.55555555555556)"/><use xlink:href="#P" transform="matrix(1,0,0,1,1125,242.33333333333331) translate(0 56.888888888888886)"/><use xlink:href="#Q" transform="matrix(1,0,0,1,1125,242.33333333333331) translate(0 78.22222222222223)"/><path d="M1120 343.33a6 6 0 0 1 6-6h228a6 6 0 0 1 6 6v83.34a6 6 0 0 1-6 6h-228a6 6 0 0 1-6-6z" stroke="#000" stroke-opacity="0" stroke-width="3" fill="#fff" fill-opacity="0"/><use xlink:href="#R" transform="matrix(1,0,0,1,1125,342.33333333333337) translate(0 24.97222222222222)"/><use xlink:href="#S" transform="matrix(1,0,0,1,1125,342.33333333333337) translate(0 46.30555555555555)"/><use xlink:href="#T" transform="matrix(1,0,0,1,1125,342.33333333333337) translate(0 67.63888888888889)"/><path d="M720 364.67a6 6 0 0 1 6-6h228a6 6 0 0 1 6 6v62a6 6 0 0 1-6 6H726a6 6 0 0 1-6-6z" stroke="#000" stroke-opacity="0" stroke-width="3" fill="#fff" fill-opacity="0"/><use xlink:href="#U" transform="matrix(1,0,0,1,725,363.66666666666674) translate(75.54320987654322 14.222222222222221)"/><use xlink:href="#V" transform="matrix(1,0,0,1,725,363.66666666666674) translate(60.25925925925927 35.55555555555556)"/><use xlink:href="#W" transform="matrix(1,0,0,1,725,363.66666666666674) translate(79.98765432098766 56.888888888888886)"/><a xlink:href="http://main.css.map" target="_blank" transform="matrix(1,0,0,1,725,363.66666666666674)"><path class="lucid-link lucid-hotspot lucid-overlay-hotspot" fill-opacity="0" d="M60.26 21.33h109.48v21.33H60.26z"/></a><path d="M860 46a6 6 0 0 1 6-6h228a6 6 0 0 1 6 6v48a6 6 0 0 1-6 6H866a6 6 0 0 1-6-6z" stroke="#000" stroke-opacity="0" stroke-width="3" fill="#fff" fill-opacity="0"/><use xlink:href="#X" transform="matrix(1,0,0,1,865,45) translate(65.45987654320989 28.069444444444443)"/><path d="M880 143.33a6 6 0 0 1 6-6h228a6 6 0 0 1 6 6v48a6 6 0 0 1-6 6H886a6 6 0 0 1-6-6z" stroke="#000" stroke-opacity="0" stroke-width="3" fill="#fff" fill-opacity="0"/><use xlink:href="#Y" transform="matrix(1,0,0,1,885,142.33333333333331) translate(84.3641975308642 28.069444444444443)"/><path d="M880 238.67a6 6 0 0 1 6-6h228a6 6 0 0 1 6 6v48a6 6 0 0 1-6 6H886a6 6 0 0 1-6-6z" stroke="#000" stroke-opacity="0" stroke-width="3" fill="#fff" fill-opacity="0"/><use xlink:href="#Z" transform="matrix(1,0,0,1,885,237.66666666666669) translate(83.11111111111111 28.069444444444443)"/><path d="M880 343.33a6 6 0 0 1 6-6h228a6 6 0 0 1 6 6v48a6 6 0 0 1-6 6H886a6 6 0 0 1-6-6z" stroke="#000" stroke-opacity="0" stroke-width="3" fill="#fff" fill-opacity="0"/><use xlink:href="#aa" transform="matrix(1,0,0,1,885,342.33333333333337) translate(89.95987654320987 28.069444444444443)"/><path d="M585.6 517.67l14.48.06c3.2 0 5.68 2.88 5.68 6h46c3.12 0 5.52 3.9 5.52 6.96v36.77c-.64 2.28-.8 2.1-3.76 2.28l-62.16 7.92c-3.04 0-3.84.18-4.4-2.88-1.36-7.8-4.56-34.87-6.96-51.6 0-3.07 2.48-5.53 5.6-5.53z" fill="#b3b3b3"/><path d="M587.68 519.53h12.24c3.12 0 5.44 2.28 5.44 5.4l46.08.42c2.96 0 5.44 2.4 5.44 5.4l-.88 33.48c0 3 .48 4.26-2.56 4.26l-62.72 8.87c-2.96-.66-3.04-.24-3.52-3.06-2.48-14.57-2.8-32.8-4.32-49.37 0-3 1.76-5.4 4.8-5.4z" fill="url(#ab)"/><path d="M605.36 529.5h49.2c3.04 0 5.44 2.15 5.44 4.8 0 0-2.4 31.55-2.64 32.87-.48 2.34-.48 2.34-3.44 2.7l-63.44 7.68c-2.24.18-2.64-.36-1.84-.36 2.16-7.2-.72-28.63-1.76-42.3.16-.9.8-1.57 1.52-1.57h13.84c1.68-.24 2.8-1.98 3.12-3.84z" fill="url(#ac)"/><path d="M608.72 531.4h42.32c4.64 0 7.2-.3 7.2 4.27l-2.24 24.9c0 2.34-2.08 3.78-4.8 4.62l-6.08.77c-6.88-12.78-13.84-26.1-36.4-34.56" stroke="#000" stroke-opacity="0" stroke-width=".23" fill="url(#ad)"/><path d="M590.72 535.25c29.76-1.74 40.16 19.02 47.36 31.5l-45.04 6.48-3.12-36.78c-.08-.6.24-1.2.8-1.2z" stroke="#000" stroke-opacity="0" stroke-width=".23" fill="url(#ae)"/><path d="M500 583.67a6 6 0 0 1 6-6h228a6 6 0 0 1 6 6v48a6 6 0 0 1-6 6H506a6 6 0 0 1-6-6z" stroke="#000" stroke-opacity="0" stroke-width="3" fill="#fff" fill-opacity="0"/><use xlink:href="#af" transform="matrix(1,0,0,1,505,582.6666666666667) translate(95.79012345679013 29.84722222222222)"/><path d="M680 506a6 6 0 0 1 6-6h228a6 6 0 0 1 6 6v83.33a6 6 0 0 1-6 6H686a6 6 0 0 1-6-6z" stroke="#000" stroke-opacity="0" stroke-width="3" fill="#fff" fill-opacity="0"/><use xlink:href="#ag" transform="matrix(1,0,0,1,685,505.00000000000006) translate(0 35.72222222222222)"/><use xlink:href="#ah" transform="matrix(1,0,0,1,685,505.00000000000006) translate(0 57.05555555555555)"/><a xlink:href="http://index.html" target="_blank" transform="matrix(1,0,0,1,685,505.00000000000006)"><path class="lucid-link lucid-hotspot lucid-overlay-hotspot" fill-opacity="0" d="M0 42.83h80.84v21.33H0z"/></a><path d="M465.6 670l14.48.06c3.2 0 5.68 2.88 5.68 6h46c3.12 0 5.52 3.9 5.52 6.96v36.78c-.64 2.28-.8 2.1-3.76 2.28L471.36 730c-3.04 0-3.84.18-4.4-2.88-1.36-7.8-4.56-34.86-6.96-51.6 0-3.06 2.48-5.52 5.6-5.52z" fill="#b3b3b3"/><path d="M467.68 671.86h12.24c3.12 0 5.44 2.28 5.44 5.4l46.08.42c2.96 0 5.44 2.4 5.44 5.4l-.88 33.48c0 3 .48 4.26-2.56 4.26l-62.72 8.88c-2.96-.66-3.04-.24-3.52-3.06-2.48-14.58-2.8-32.82-4.32-49.38 0-3 1.76-5.4 4.8-5.4z" fill="url(#ai)"/><path d="M485.36 681.82h49.2c3.04 0 5.44 2.16 5.44 4.8 0 0-2.4 31.56-2.64 32.88-.48 2.34-.48 2.34-3.44 2.7l-63.44 7.68c-2.24.18-2.64-.36-1.84-.36 2.16-7.2-.72-28.62-1.76-42.3.16-.9.8-1.56 1.52-1.56h13.84c1.68-.24 2.8-1.98 3.12-3.84z" fill="url(#aj)"/><path d="M488.72 683.74h42.32c4.64 0 7.2-.3 7.2 4.26L536 712.9c0 2.34-2.08 3.78-4.8 4.62l-6.08.78c-6.88-12.78-13.84-26.1-36.4-34.56" stroke="#000" stroke-opacity="0" stroke-width=".23" fill="url(#ak)"/><path d="M470.72 687.58c29.76-1.74 40.16 19.02 47.36 31.5l-45.04 6.48-3.12-36.78c-.08-.6.24-1.2.8-1.2z" stroke="#000" stroke-opacity="0" stroke-width=".23" fill="url(#al)"/><path d="M380 736a6 6 0 0 1 6-6h228a6 6 0 0 1 6 6v48a6 6 0 0 1-6 6H386a6 6 0 0 1-6-6z" stroke="#000" stroke-opacity="0" stroke-width="3" fill="#fff" fill-opacity="0"/><use xlink:href="#am" transform="matrix(1,0,0,1,384.9999999999999,734.9990000000003) translate(49.962962962962976 29.84722222222222)"/><path d="M560 666a6 6 0 0 1 6-6h228a6 6 0 0 1 6 6v83.33a6 6 0 0 1-6 6H566a6 6 0 0 1-6-6z" stroke="#000" stroke-opacity="0" stroke-width="3" fill="#fff" fill-opacity="0"/><use xlink:href="#an" transform="matrix(1,0,0,1,564.9999999999999,665) translate(0 46.47222222222222)"/><use xlink:href="#ao" transform="matrix(1,0,0,1,564.9999999999999,665) translate(16.148148148148145 46.47222222222222)"/><use xlink:href="#ap" transform="matrix(1,0,0,1,564.9999999999999,665) translate(39.80246913580246 46.47222222222222)"/><use xlink:href="#aq" transform="matrix(1,0,0,1,564.9999999999999,665) translate(59.55555555555554 46.47222222222222)"/><path d="M305.6 810l14.48.06c3.2 0 5.68 2.88 5.68 6h46c3.12 0 5.52 3.9 5.52 6.96v36.78c-.64 2.28-.8 2.1-3.76 2.28L311.36 870c-3.04 0-3.84.18-4.4-2.88-1.36-7.8-4.56-34.86-6.96-51.6 0-3.06 2.48-5.52 5.6-5.52z" fill="#b3b3b3"/><path d="M307.68 811.86h12.24c3.12 0 5.44 2.28 5.44 5.4l46.08.42c2.96 0 5.44 2.4 5.44 5.4l-.88 33.48c0 3 .48 4.26-2.56 4.26l-62.72 8.88c-2.96-.66-3.04-.24-3.52-3.06-2.48-14.58-2.8-32.82-4.32-49.38 0-3 1.76-5.4 4.8-5.4z" fill="url(#ar)"/><path d="M325.36 821.82h49.2c3.04 0 5.44 2.16 5.44 4.8 0 0-2.4 31.56-2.64 32.88-.48 2.34-.48 2.34-3.44 2.7l-63.44 7.68c-2.24.18-2.64-.36-1.84-.36 2.16-7.2-.72-28.62-1.76-42.3.16-.9.8-1.56 1.52-1.56h13.84c1.68-.24 2.8-1.98 3.12-3.84z" fill="url(#as)"/><path d="M328.72 823.74h42.32c4.64 0 7.2-.3 7.2 4.26L376 852.9c0 2.34-2.08 3.78-4.8 4.62l-6.08.78c-6.88-12.78-13.84-26.1-36.4-34.56" stroke="#000" stroke-opacity="0" stroke-width=".23" fill="url(#at)"/><path d="M310.72 827.58c29.76-1.74 40.16 19.02 47.36 31.5l-45.04 6.48-3.12-36.78c-.08-.6.24-1.2.8-1.2z" stroke="#000" stroke-opacity="0" stroke-width=".23" fill="url(#au)"/><path d="M220 876a6 6 0 0 1 6-6h228a6 6 0 0 1 6 6v48a6 6 0 0 1-6 6H226a6 6 0 0 1-6-6z" stroke="#000" stroke-opacity="0" stroke-width="3" fill="#fff" fill-opacity="0"/><g><use xlink:href="#av" transform="matrix(1,0,0,1,225,874.9990000000003) translate(101.66666666666667 29.84722222222222)"/></g><path d="M400 806a6 6 0 0 1 6-6h228a6 6 0 0 1 6 6v83.33a6 6 0 0 1-6 6H406a6 6 0 0 1-6-6z" stroke="#000" stroke-opacity="0" stroke-width="3" fill="#fff" fill-opacity="0"/><g><use xlink:href="#aw" transform="matrix(1,0,0,1,405,805) translate(0 35.72222222222222)"/><use xlink:href="#ax" transform="matrix(1,0,0,1,405,805) translate(0 57.05555555555555)"/></g><g transform="matrix(1,0,0,1,405,805)"><a xlink:href="http://app.js" target="_blank"><path class="lucid-link lucid-hotspot lucid-overlay-hotspot" fill-opacity="0" d="M0 21.5h47.36v21.33H0z"/></a></g><path d="M140 156.13V834a6 6 0 0 0 6 6h138.8" stroke="#5e5e5e" stroke-width="2" fill="none"/><path d="M141 156.16h-2v-.9l2-.24" fill="#5e5e5e"/><path d="M300.07 840l-14.27 4.63v-9.27z" stroke="#5e5e5e" stroke-width="2" fill="#5e5e5e"/><path d="M140 156.13V694a6 6 0 0 0 6 6h298.8" stroke="#5e5e5e" stroke-width="2" fill="none"/><path d="M141 156.16h-2v-.9l2-.24" fill="#5e5e5e"/><path d="M460.07 700l-14.27 4.63v-9.27z" stroke="#5e5e5e" stroke-width="2" fill="#5e5e5e"/><path d="M140 156.13v385.54a6 6 0 0 0 6 6h418.8" stroke="#5e5e5e" stroke-width="2" fill="none"/><path d="M141 156.16h-2v-.9l2-.24" fill="#5e5e5e"/><path d="M580.07 547.67l-14.27 4.63v-9.27z" stroke="#5e5e5e" stroke-width="2" fill="#5e5e5e"/><path d="M140 156.13V269a6 6 0 0 0 6 6h638.8" stroke="#5e5e5e" stroke-width="2" fill="none"/><path d="M141 156.16h-2v-.9l2-.24" fill="#5e5e5e"/><path d="M800.07 275l-14.27 4.64v-9.28z" stroke="#5e5e5e" stroke-width="2" fill="#5e5e5e"/><defs><linearGradient gradientUnits="userSpaceOnUse" id="a" x1="88.57" y1="140.56" x2="171.14" y2="91.95"><stop offset="0%"/><stop offset="100%" stop-color="#ff2a2a"/></linearGradient><linearGradient gradientUnits="userSpaceOnUse" id="b" x1="91.18" y1="111.37" x2="200.7" y2="111.37"><stop offset="0%" stop-color="#2b0000"/><stop offset="100%" stop-color="#ff2a2a"/></linearGradient><linearGradient gradientUnits="userSpaceOnUse" id="c" x1="137.15" y1="134.51" x2="194.27" y2="99.39"><stop offset="0%" stop-color="#fff" stop-opacity="0"/><stop offset="100%" stop-color="#fff"/></linearGradient><linearGradient gradientUnits="userSpaceOnUse" id="d" x1="113.12" y1="147.88" x2="191.15" y2="100.89"><stop offset="0%" stop-color="#fff" stop-opacity="0"/><stop offset="100%" stop-color="#fff"/></linearGradient><path fill="#333" d="M266 0h-40l-56-210L115 0H75L2-248h35L96-30l15-64 43-154h32l59 218 59-218h35" id="ay"/><path fill="#333" d="M100-194c63 0 86 42 84 106H49c0 40 14 67 53 68 26 1 43-12 49-29l28 8c-11 28-37 45-77 45C44 4 14-33 15-96c1-61 26-98 85-98zm52 81c6-60-76-77-97-28-3 7-6 17-6 28h103" id="az"/><path fill="#333" d="M115-194c53 0 69 39 70 98 0 66-23 100-70 100C84 3 66-7 56-30L54 0H23l1-261h32v101c10-23 28-34 59-34zm-8 174c40 0 45-34 45-75 0-40-5-75-45-74-42 0-51 32-51 76 0 43 10 73 51 73" id="aA"/><path fill="#333" d="M135-143c-3-34-86-38-87 0 15 53 115 12 119 90S17 21 10-45l28-5c4 36 97 45 98 0-10-56-113-15-118-90-4-57 82-63 122-42 12 7 21 19 24 35" id="aB"/><path fill="#333" d="M24-231v-30h32v30H24zM24 0v-190h32V0H24" id="aC"/><path fill="#333" d="M59-47c-2 24 18 29 38 22v24C64 9 27 4 27-40v-127H5v-23h24l9-43h21v43h35v23H59v120" id="aD"/><path fill="#333" d="M0 4l72-265h28L28 4H0" id="aE"/><path fill="#333" d="M115-194c55 1 70 41 70 98S169 2 115 4C84 4 66-9 55-30l1 105H24l-1-265h31l2 30c10-21 28-34 59-34zm-8 174c40 0 45-34 45-75s-6-73-45-74c-42 0-51 32-51 76 0 43 10 73 51 73" id="aF"/><path fill="#333" d="M114-163C36-179 61-72 57 0H25l-1-190h30c1 12-1 29 2 39 6-27 23-49 58-41v29" id="aG"/><path fill="#333" d="M100-194c62-1 85 37 85 99 1 63-27 99-86 99S16-35 15-95c0-66 28-99 85-99zM99-20c44 1 53-31 53-75 0-43-8-75-51-75s-53 32-53 75 10 74 51 75" id="aH"/><path fill="#333" d="M24-231v-30h32v30H24zM-9 49c24 4 33-6 33-30v-209h32V24c2 40-23 58-65 49V49" id="aI"/><path fill="#333" d="M96-169c-40 0-48 33-48 73s9 75 48 75c24 0 41-14 43-38l32 2c-6 37-31 61-74 61-59 0-76-41-82-99-10-93 101-131 147-64 4 7 5 14 7 22l-32 3c-4-21-16-35-41-35" id="aJ"/><g id="e"><use transform="matrix(0.05555555555555554,0,0,0.05555555555555554,0,0)" xlink:href="#ay"/><use transform="matrix(0.05555555555555554,0,0,0.05555555555555554,18.44444444444444,0)" xlink:href="#az"/><use transform="matrix(0.05555555555555554,0,0,0.05555555555555554,29.555555555555546,0)" xlink:href="#aA"/><use transform="matrix(0.05555555555555554,0,0,0.05555555555555554,40.66666666666666,0)" xlink:href="#aB"/><use transform="matrix(0.05555555555555554,0,0,0.05555555555555554,50.66666666666666,0)" xlink:href="#aC"/><use transform="matrix(0.05555555555555554,0,0,0.05555555555555554,55.05555555555554,0)" xlink:href="#aD"/><use transform="matrix(0.05555555555555554,0,0,0.05555555555555554,60.61111111111111,0)" xlink:href="#az"/><use transform="matrix(0.05555555555555554,0,0,0.05555555555555554,71.7222222222222,0)" xlink:href="#aE"/><use transform="matrix(0.05555555555555554,0,0,0.05555555555555554,77.27777777777776,0)" xlink:href="#aF"/><use transform="matrix(0.05555555555555554,0,0,0.05555555555555554,88.38888888888886,0)" xlink:href="#aG"/><use transform="matrix(0.05555555555555554,0,0,0.05555555555555554,94.99999999999997,0)" xlink:href="#aH"/><use transform="matrix(0.05555555555555554,0,0,0.05555555555555554,106.11111111111109,0)" xlink:href="#aI"/><use transform="matrix(0.05555555555555554,0,0,0.05555555555555554,110.49999999999997,0)" xlink:href="#az"/><use transform="matrix(0.05555555555555554,0,0,0.05555555555555554,121.61111111111107,0)" xlink:href="#aJ"/><use transform="matrix(0.05555555555555554,0,0,0.05555555555555554,131.6111111111111,0)" xlink:href="#aD"/></g><path fill="#333" d="M117-194c89-4 53 116 60 194h-32v-121c0-31-8-49-39-48C34-167 62-67 57 0H25l-1-190h30c1 10-1 24 2 32 11-22 29-35 61-36" id="aK"/><path fill="#333" d="M141-36C126-15 110 5 73 4 37 3 15-17 15-53c-1-64 63-63 125-63 3-35-9-54-41-54-24 1-41 7-42 31l-33-3c5-37 33-52 76-52 45 0 72 20 72 64v82c-1 20 7 32 28 27v20c-31 9-61-2-59-35zM48-53c0 20 12 33 32 33 41-3 63-29 60-74-43 2-92-5-92 41" id="aL"/><path fill="#333" d="M210-169c-67 3-38 105-44 169h-31v-121c0-29-5-50-35-48C34-165 62-65 56 0H25l-1-190h30c1 10-1 24 2 32 10-44 99-50 107 0 11-21 27-35 58-36 85-2 47 119 55 194h-31v-121c0-29-5-49-35-48" id="aM"/><g id="f"><use transform="matrix(0.05555555555555554,0,0,0.05555555555555554,0,0)" xlink:href="#aK"/><use transform="matrix(0.05555555555555554,0,0,0.05555555555555554,11.111111111111107,0)" xlink:href="#aL"/><use transform="matrix(0.05555555555555554,0,0,0.05555555555555554,22.222222222222214,0)" xlink:href="#aM"/><use transform="matrix(0.05555555555555554,0,0,0.05555555555555554,38.83333333333332,0)" xlink:href="#az"/></g><path fill="#333" d="M33 0v-38h34V0H33" id="aN"/><path fill="#333" d="M177-190C167-65 218 103 67 71c-23-6-38-20-44-43l32-5c15 47 100 32 89-28v-30C133-14 115 1 83 1 29 1 15-40 15-95c0-56 16-97 71-98 29-1 48 16 59 35 1-10 0-23 2-32h30zM94-22c36 0 50-32 50-73 0-42-14-75-50-75-39 0-46 34-46 75s6 73 46 73" id="aO"/><g id="g"><use transform="matrix(0.06172839506172839,0,0,0.06172839506172839,0,0)" xlink:href="#aN"/><use transform="matrix(0.06172839506172839,0,0,0.06172839506172839,6.172839506172839,0)" xlink:href="#aO"/><use transform="matrix(0.06172839506172839,0,0,0.06172839506172839,18.51851851851852,0)" xlink:href="#aC"/><use transform="matrix(0.06172839506172839,0,0,0.06172839506172839,23.395061728395063,0)" xlink:href="#aD"/><use transform="matrix(0.06172839506172839,0,0,0.06172839506172839,29.567901234567902,0)" xlink:href="#aC"/><use transform="matrix(0.06172839506172839,0,0,0.06172839506172839,34.44444444444444,0)" xlink:href="#aO"/><use transform="matrix(0.06172839506172839,0,0,0.06172839506172839,46.79012345679012,0)" xlink:href="#aK"/><use transform="matrix(0.06172839506172839,0,0,0.06172839506172839,59.1358024691358,0)" xlink:href="#aH"/><use transform="matrix(0.06172839506172839,0,0,0.06172839506172839,71.48148148148148,0)" xlink:href="#aG"/><use transform="matrix(0.06172839506172839,0,0,0.06172839506172839,78.82716049382717,0)" xlink:href="#az"/></g><path fill="#333" d="M143 0L79-87 56-68V0H24v-261h32v163l83-92h37l-77 82L181 0h-38" id="aP"/><path fill="#333" d="M16-82v-28h88v28H16" id="aQ"/><path fill="#333" d="M24 0v-261h32V0H24" id="aR"/><g id="h"><use transform="matrix(0.06172839506172839,0,0,0.06172839506172839,0,0)" xlink:href="#aF"/><use transform="matrix(0.06172839506172839,0,0,0.06172839506172839,12.345679012345679,0)" xlink:href="#aL"/><use transform="matrix(0.06172839506172839,0,0,0.06172839506172839,24.691358024691358,0)" xlink:href="#aJ"/><use transform="matrix(0.06172839506172839,0,0,0.06172839506172839,35.80246913580247,0)" xlink:href="#aP"/><use transform="matrix(0.06172839506172839,0,0,0.06172839506172839,46.91358024691358,0)" xlink:href="#aL"/><use transform="matrix(0.06172839506172839,0,0,0.06172839506172839,59.25925925925926,0)" xlink:href="#aO"/><use transform="matrix(0.06172839506172839,0,0,0.06172839506172839,71.60493827160494,0)" xlink:href="#az"/><use transform="matrix(0.06172839506172839,0,0,0.06172839506172839,83.95061728395062,0)" xlink:href="#aQ"/><use transform="matrix(0.06172839506172839,0,0,0.06172839506172839,91.2962962962963,0)" xlink:href="#aR"/><use transform="matrix(0.06172839506172839,0,0,0.06172839506172839,96.17283950617285,0)" xlink:href="#aH"/><use transform="matrix(0.06172839506172839,0,0,0.06172839506172839,108.51851851851853,0)" xlink:href="#aJ"/><use transform="matrix(0.06172839506172839,0,0,0.06172839506172839,119.62962962962965,0)" xlink:href="#aP"/><use transform="matrix(0.06172839506172839,0,0,0.06172839506172839,130.74074074074076,0)" xlink:href="#aN"/><use transform="matrix(0.06172839506172839,0,0,0.06172839506172839,136.9135802469136,0)" xlink:href="#aI"/><use transform="matrix(0.06172839506172839,0,0,0.06172839506172839,141.79012345679013,0)" xlink:href="#aL"/><use transform="matrix(0.06172839506172839,0,0,0.06172839506172839,154.1358024691358,0)" xlink:href="#aB"/><use transform="matrix(0.06172839506172839,0,0,0.06172839506172839,165.2469135802469,0)" xlink:href="#aH"/><use transform="matrix(0.06172839506172839,0,0,0.06172839506172839,177.59259259259258,0)" xlink:href="#aK"/><path fill="#8080ff" d="M-1.1 1.54h192.15v1.63H-1.1z"/></g><g id="i"><use transform="matrix(0.06172839506172839,0,0,0.06172839506172839,0,0)" xlink:href="#aF"/><use transform="matrix(0.06172839506172839,0,0,0.06172839506172839,12.345679012345679,0)" xlink:href="#aL"/><use transform="matrix(0.06172839506172839,0,0,0.06172839506172839,24.691358024691358,0)" xlink:href="#aJ"/><use transform="matrix(0.06172839506172839,0,0,0.06172839506172839,35.80246913580247,0)" xlink:href="#aP"/><use transform="matrix(0.06172839506172839,0,0,0.06172839506172839,46.91358024691358,0)" xlink:href="#aL"/><use transform="matrix(0.06172839506172839,0,0,0.06172839506172839,59.25925925925926,0)" xlink:href="#aO"/><use transform="matrix(0.06172839506172839,0,0,0.06172839506172839,71.60493827160494,0)" xlink:href="#az"/><use transform="matrix(0.06172839506172839,0,0,0.06172839506172839,83.95061728395062,0)" xlink:href="#aN"/><use transform="matrix(0.06172839506172839,0,0,0.06172839506172839,90.12345679012346,0)" xlink:href="#aI"/><use transform="matrix(0.06172839506172839,0,0,0.06172839506172839,95,0)" xlink:href="#aL"/><use transform="matrix(0.06172839506172839,0,0,0.06172839506172839,107.34567901234568,0)" xlink:href="#aB"/><use transform="matrix(0.06172839506172839,0,0,0.06172839506172839,118.4567901234568,0)" xlink:href="#aH"/><use transform="matrix(0.06172839506172839,0,0,0.06172839506172839,130.80246913580248,0)" xlink:href="#aK"/><path fill="#8080ff" d="M-1.1 1.54h145.36v1.63H-1.1z"/></g><path fill="#333" d="M206 0h-36l-40-164L89 0H53L-1-190h32L70-26l43-164h34l41 164 42-164h31" id="aS"/><path fill="#333" d="M101-234c-31-9-42 10-38 44h38v23H63V0H32v-167H5v-23h27c-7-52 17-82 69-68v24" id="aT"/><g id="j"><use transform="matrix(0.06172839506172839,0,0,0.06172839506172839,0,0)" xlink:href="#aS"/><use transform="matrix(0.06172839506172839,0,0,0.06172839506172839,15.987654320987653,0)" xlink:href="#az"/><use transform="matrix(0.06172839506172839,0,0,0.06172839506172839,28.333333333333332,0)" xlink:href="#aA"/><use transform="matrix(0.06172839506172839,0,0,0.06172839506172839,40.67901234567901,0)" xlink:href="#aF"/><use transform="matrix(0.06172839506172839,0,0,0.06172839506172839,53.02469135802469,0)" xlink:href="#aL"/><use transform="matrix(0.06172839506172839,0,0,0.06172839506172839,65.37037037037037,0)" xlink:href="#aJ"/><use transform="matrix(0.06172839506172839,0,0,0.06172839506172839,76.48148148148148,0)" xlink:href="#aP"/><use transform="matrix(0.06172839506172839,0,0,0.06172839506172839,87.5925925925926,0)" xlink:href="#aN"/><use transform="matrix(0.06172839506172839,0,0,0.06172839506172839,93.76543209876543,0)" xlink:href="#aJ"/><use transform="matrix(0.06172839506172839,0,0,0.06172839506172839,104.87654320987654,0)" xlink:href="#aH"/><use transform="matrix(0.06172839506172839,0,0,0.06172839506172839,117.22222222222223,0)" xlink:href="#aK"/><use transform="matrix(0.06172839506172839,0,0,0.06172839506172839,129.5679012345679,0)" xlink:href="#aT"/><use transform="matrix(0.06172839506172839,0,0,0.06172839506172839,135.74074074074073,0)" xlink:href="#aC"/><use transform="matrix(0.06172839506172839,0,0,0.06172839506172839,140.61728395061726,0)" xlink:href="#aO"/><use transform="matrix(0.06172839506172839,0,0,0.06172839506172839,152.96296296296293,0)" xlink:href="#aN"/><use transform="matrix(0.06172839506172839,0,0,0.06172839506172839,159.13580246913577,0)" xlink:href="#aI"/><use transform="matrix(0.06172839506172839,0,0,0.06172839506172839,164.0123456790123,0)" xlink:href="#aB"/></g><path fill="#333" d="M233-177c-1 41-23 64-60 70L243 0h-38l-65-103H63V0H30v-248c88 3 205-21 203 71zM63-129c60-2 137 13 137-47 0-61-80-42-137-45v92" id="aU"/><path fill="#333" d="M30 0v-248h187v28H63v79h144v27H63v87h162V0H30" id="aV"/><path fill="#333" d="M205 0l-28-72H64L36 0H1l101-248h38L239 0h-34zm-38-99l-47-123c-12 45-31 82-46 123h93" id="aW"/><path fill="#333" d="M30-248c118-7 216 8 213 122C240-48 200 0 122 0H30v-248zM63-27c89 8 146-16 146-99s-60-101-146-95v194" id="aX"/><path fill="#333" d="M240 0l2-218c-23 76-54 145-80 218h-23L58-218 59 0H30v-248h44l77 211c21-75 51-140 76-211h43V0h-30" id="aY"/><path fill="#333" d="M85-194c31 0 48 13 60 33l-1-100h32l1 261h-30c-2-10 0-23-3-31C134-8 116 4 85 4 32 4 16-35 15-94c0-66 23-100 70-100zm9 24c-40 0-46 34-46 75 0 40 6 74 45 74 42 0 51-32 51-76 0-42-9-74-50-73" id="aZ"/><g id="k"><use transform="matrix(0.06172839506172839,0,0,0.06172839506172839,0,0)" xlink:href="#aU"/><use transform="matrix(0.06172839506172839,0,0,0.06172839506172839,15.987654320987653,0)" xlink:href="#aV"/><use transform="matrix(0.06172839506172839,0,0,0.06172839506172839,30.80246913580247,0)" xlink:href="#aW"/><use transform="matrix(0.06172839506172839,0,0,0.06172839506172839,45.61728395061728,0)" xlink:href="#aX"/><use transform="matrix(0.06172839506172839,0,0,0.06172839506172839,61.60493827160493,0)" xlink:href="#aY"/><use transform="matrix(0.06172839506172839,0,0,0.06172839506172839,80.06172839506172,0)" xlink:href="#aV"/><use transform="matrix(0.06172839506172839,0,0,0.06172839506172839,94.87654320987653,0)" xlink:href="#aN"/><use transform="matrix(0.06172839506172839,0,0,0.06172839506172839,101.04938271604937,0)" xlink:href="#aM"/><use transform="matrix(0.06172839506172839,0,0,0.06172839506172839,119.50617283950615,0)" xlink:href="#aZ"/></g><linearGradient gradientUnits="userSpaceOnUse" id="l" x1="805.71" y1="290.42" x2="860.76" y2="253.96"><stop offset="0%"/><stop offset="100%" stop-color="#ff2a2a"/></linearGradient><linearGradient gradientUnits="userSpaceOnUse" id="m" x1="807.45" y1="268.53" x2="880.46" y2="268.53"><stop offset="0%" stop-color="#2b0000"/><stop offset="100%" stop-color="#ff2a2a"/></linearGradient><linearGradient gradientUnits="userSpaceOnUse" id="n" x1="838.1" y1="285.89" x2="876.18" y2="259.55"><stop offset="0%" stop-color="#fff" stop-opacity="0"/><stop offset="100%" stop-color="#fff"/></linearGradient><linearGradient gradientUnits="userSpaceOnUse" id="o" x1="822.08" y1="295.91" x2="874.1" y2="260.67"><stop offset="0%" stop-color="#fff" stop-opacity="0"/><stop offset="100%" stop-color="#fff"/></linearGradient><path fill="#333" d="M169-182c-1-43-94-46-97-3 18 66 151 10 154 114 3 95-165 93-204 36-6-8-10-19-12-30l50-8c3 46 112 56 116 5-17-69-150-10-154-114-4-87 153-88 188-35 5 8 8 18 10 28" id="ba"/><path fill="#333" d="M67-125c0 53 21 87 73 88 37 1 54-22 65-47l45 17C233-25 199 4 140 4 58 4 20-42 15-125 8-235 124-281 211-232c18 10 29 29 36 50l-46 12c-8-25-30-41-62-41-52 0-71 34-72 86" id="bb"/><path fill="#333" d="M4 7l51-268h42L46 7H4" id="bc"/><path fill="#333" d="M199 0l-22-63H83L61 0H9l90-248h61L250 0h-51zm-33-102l-36-108c-10 38-24 72-36 108h72" id="bd"/><g id="p"><use transform="matrix(0.049382716049382706,0,0,0.049382716049382706,0,0)" xlink:href="#ba"/><use transform="matrix(0.049382716049382706,0,0,0.049382716049382706,11.85185185185185,0)" xlink:href="#bb"/><use transform="matrix(0.049382716049382706,0,0,0.049382716049382706,24.64197530864197,0)" xlink:href="#ba"/><use transform="matrix(0.049382716049382706,0,0,0.049382716049382706,36.49382716049382,0)" xlink:href="#ba"/><use transform="matrix(0.049382716049382706,0,0,0.049382716049382706,48.34567901234567,0)" xlink:href="#bc"/><use transform="matrix(0.049382716049382706,0,0,0.049382716049382706,53.28395061728394,0)" xlink:href="#ba"/><use transform="matrix(0.049382716049382706,0,0,0.049382716049382706,65.1358024691358,0)" xlink:href="#bd"/><use transform="matrix(0.049382716049382706,0,0,0.049382716049382706,77.92592592592592,0)" xlink:href="#ba"/><use transform="matrix(0.049382716049382706,0,0,0.049382716049382706,89.77777777777777,0)" xlink:href="#ba"/></g><linearGradient gradientUnits="userSpaceOnUse" id="q" x1="1044.28" y1="95.28" x2="1085.57" y2="70.97"><stop offset="0%"/><stop offset="100%" stop-color="#ff2a2a"/></linearGradient><linearGradient gradientUnits="userSpaceOnUse" id="r" x1="1045.59" y1="80.69" x2="1100.35" y2="80.69"><stop offset="0%" stop-color="#2b0000"/><stop offset="100%" stop-color="#ff2a2a"/></linearGradient><linearGradient gradientUnits="userSpaceOnUse" id="s" x1="1068.58" y1="92.26" x2="1097.13" y2="74.7"><stop offset="0%" stop-color="#fff" stop-opacity="0"/><stop offset="100%" stop-color="#fff"/></linearGradient><linearGradient gradientUnits="userSpaceOnUse" id="t" x1="1056.56" y1="98.94" x2="1095.57" y2="75.45"><stop offset="0%" stop-color="#fff" stop-opacity="0"/><stop offset="100%" stop-color="#fff"/></linearGradient><linearGradient gradientUnits="userSpaceOnUse" id="u" x1="1044.28" y1="195.28" x2="1085.57" y2="170.97"><stop offset="0%"/><stop offset="100%" stop-color="#ff2a2a"/></linearGradient><linearGradient gradientUnits="userSpaceOnUse" id="v" x1="1045.59" y1="180.69" x2="1100.35" y2="180.69"><stop offset="0%" stop-color="#2b0000"/><stop offset="100%" stop-color="#ff2a2a"/></linearGradient><linearGradient gradientUnits="userSpaceOnUse" id="w" x1="1068.58" y1="192.26" x2="1097.13" y2="174.7"><stop offset="0%" stop-color="#fff" stop-opacity="0"/><stop offset="100%" stop-color="#fff"/></linearGradient><linearGradient gradientUnits="userSpaceOnUse" id="x" x1="1056.56" y1="198.94" x2="1095.57" y2="175.45"><stop offset="0%" stop-color="#fff" stop-opacity="0"/><stop offset="100%" stop-color="#fff"/></linearGradient><linearGradient gradientUnits="userSpaceOnUse" id="y" x1="1044.28" y1="295.28" x2="1085.57" y2="270.97"><stop offset="0%"/><stop offset="100%" stop-color="#ff2a2a"/></linearGradient><linearGradient gradientUnits="userSpaceOnUse" id="z" x1="1045.59" y1="280.69" x2="1100.35" y2="280.69"><stop offset="0%" stop-color="#2b0000"/><stop offset="100%" stop-color="#ff2a2a"/></linearGradient><linearGradient gradientUnits="userSpaceOnUse" id="A" x1="1068.58" y1="292.26" x2="1097.13" y2="274.7"><stop offset="0%" stop-color="#fff" stop-opacity="0"/><stop offset="100%" stop-color="#fff"/></linearGradient><linearGradient gradientUnits="userSpaceOnUse" id="B" x1="1056.56" y1="298.94" x2="1095.57" y2="275.45"><stop offset="0%" stop-color="#fff" stop-opacity="0"/><stop offset="100%" stop-color="#fff"/></linearGradient><linearGradient gradientUnits="userSpaceOnUse" id="C" x1="1044.28" y1="388.95" x2="1085.57" y2="364.64"><stop offset="0%"/><stop offset="100%" stop-color="#ff2a2a"/></linearGradient><linearGradient gradientUnits="userSpaceOnUse" id="D" x1="1045.59" y1="374.35" x2="1100.35" y2="374.35"><stop offset="0%" stop-color="#2b0000"/><stop offset="100%" stop-color="#ff2a2a"/></linearGradient><linearGradient gradientUnits="userSpaceOnUse" id="E" x1="1068.58" y1="385.92" x2="1097.13" y2="368.36"><stop offset="0%" stop-color="#fff" stop-opacity="0"/><stop offset="100%" stop-color="#fff"/></linearGradient><linearGradient gradientUnits="userSpaceOnUse" id="F" x1="1056.56" y1="392.6" x2="1095.57" y2="369.11"><stop offset="0%" stop-color="#fff" stop-opacity="0"/><stop offset="100%" stop-color="#fff"/></linearGradient><path fill="#333" d="M-28 44V31h207v13H-28" id="be"/><path fill="#333" d="M68-162c25-46 127-43 121 31C183-60 169 1 98 4 69 5 53-11 43-31L36 0H5l52-261h31zm88 36c2-27-9-43-34-43-55 0-70 51-70 103 0 29 15 45 43 46 52 0 58-58 61-106" id="bf"/><path fill="#333" d="M67 3c-93-2-31-127-26-193h32L48-50c-3 39 53 32 70 12 30-34 30-101 43-152h32L157 0h-30c1-10 6-24 4-33-14 20-29 37-64 36" id="bg"/><path fill="#333" d="M51-54c-9 22 5 41 31 30L79-1C43 14 10-4 19-52l22-115H19l5-23h22l19-43h21l-9 43h35l-4 23H73" id="bh"/><path fill="#333" d="M30-147c31-64 166-65 159 27C183-49 158 1 86 4 9 8 1-88 30-147zM88-20c53 0 68-48 68-100 0-31-11-51-44-50-52 1-68 46-68 97 0 32 13 53 44 53" id="bi"/><path fill="#333" d="M67-158c22-48 132-52 116 29L158 0h-32l25-140c3-38-53-32-70-12C52-117 51-52 38 0H6l36-190h30" id="bj"/><path fill="#333" d="M55-144c13 50 104 24 104 88C159 21 15 23 1-39l26-10c6 40 102 42 102-4-13-50-104-23-104-87 0-71 143-71 148-8l-29 4c-5-35-85-37-89 0" id="bk"/><path fill="#333" d="M14 0l8-38h34L48 0H14" id="bl"/><path fill="#333" d="M44-68c0 29 11 47 38 47 30 0 42-19 51-41l28 9C148-21 126 4 82 4 31 4 10-29 12-85c3-77 74-140 146-93 12 8 15 23 18 40l-31 5c-1-22-13-36-36-36-52 0-65 49-65 101" id="bm"/><g id="G"><use transform="matrix(0.049382716049382706,0,0,0.049382716049382706,0,0)" xlink:href="#be"/><use transform="matrix(0.049382716049382706,0,0,0.049382716049382706,9.87654320987654,0)" xlink:href="#bf"/><use transform="matrix(0.049382716049382706,0,0,0.049382716049382706,19.75308641975308,0)" xlink:href="#bg"/><use transform="matrix(0.049382716049382706,0,0,0.049382716049382706,29.629629629629623,0)" xlink:href="#bh"/><use transform="matrix(0.049382716049382706,0,0,0.049382716049382706,34.56790123456789,0)" xlink:href="#bh"/><use transform="matrix(0.049382716049382706,0,0,0.049382716049382706,39.50617283950616,0)" xlink:href="#bi"/><use transform="matrix(0.049382716049382706,0,0,0.049382716049382706,49.38271604938271,0)" xlink:href="#bj"/><use transform="matrix(0.049382716049382706,0,0,0.049382716049382706,59.259259259259245,0)" xlink:href="#bk"/><use transform="matrix(0.049382716049382706,0,0,0.049382716049382706,68.14814814814814,0)" xlink:href="#bl"/><use transform="matrix(0.049382716049382706,0,0,0.049382716049382706,73.0864197530864,0)" xlink:href="#bk"/><use transform="matrix(0.049382716049382706,0,0,0.049382716049382706,81.97530864197529,0)" xlink:href="#bm"/><use transform="matrix(0.049382716049382706,0,0,0.049382716049382706,90.86419753086417,0)" xlink:href="#bk"/><use transform="matrix(0.049382716049382706,0,0,0.049382716049382706,99.75308641975306,0)" xlink:href="#bk"/></g><path fill="#333" d="M165-48c-4 18 1 34 23 27l-3 20c-29 8-62 0-52-35h-2C116-14 99 4 63 4 30 4 8-16 8-49c0-68 71-67 138-67 10-26 0-56-31-54-26 1-42 9-47 31l-32-5c8-67 160-71 144 15-5 28-9 54-15 81zM42-50c3 52 80 24 89-6 7-12 7-24 11-38-47 1-103-4-100 44" id="bn"/><path fill="#333" d="M66-151c12-25 30-51 66-40l-6 26C45-176 58-65 38 0H6l36-190h30" id="bo"/><path fill="#333" d="M111-194c62-3 86 47 72 106H45c-7 38 6 69 45 68 27-1 43-14 53-32l24 11C152-15 129 4 87 4 38 3 12-23 12-71c0-70 32-119 99-123zm44 81c14-66-71-72-95-28-4 8-8 17-11 28h106" id="bp"/><path fill="#333" d="M6 0l50-261h32L37 0H6" id="bq"/><g id="H"><use transform="matrix(0.049382716049382706,0,0,0.049382716049382706,0,0)" xlink:href="#be"/><use transform="matrix(0.049382716049382706,0,0,0.049382716049382706,9.87654320987654,0)" xlink:href="#bm"/><use transform="matrix(0.049382716049382706,0,0,0.049382716049382706,18.76543209876543,0)" xlink:href="#bn"/><use transform="matrix(0.049382716049382706,0,0,0.049382716049382706,28.64197530864197,0)" xlink:href="#bo"/><use transform="matrix(0.049382716049382706,0,0,0.049382716049382706,34.51851851851851,0)" xlink:href="#bi"/><use transform="matrix(0.049382716049382706,0,0,0.049382716049382706,44.39506172839505,0)" xlink:href="#bg"/><use transform="matrix(0.049382716049382706,0,0,0.049382716049382706,54.271604938271594,0)" xlink:href="#bk"/><use transform="matrix(0.049382716049382706,0,0,0.049382716049382706,63.16049382716048,0)" xlink:href="#bk"/><use transform="matrix(0.049382716049382706,0,0,0.049382716049382706,72.04938271604937,0)" xlink:href="#bp"/><use transform="matrix(0.049382716049382706,0,0,0.049382716049382706,81.92592592592591,0)" xlink:href="#bq"/><use transform="matrix(0.049382716049382706,0,0,0.049382716049382706,85.82716049382714,0)" xlink:href="#bl"/><use transform="matrix(0.049382716049382706,0,0,0.049382716049382706,90.7654320987654,0)" xlink:href="#bk"/><use transform="matrix(0.049382716049382706,0,0,0.049382716049382706,99.65432098765429,0)" xlink:href="#bm"/><use transform="matrix(0.049382716049382706,0,0,0.049382716049382706,108.54320987654317,0)" xlink:href="#bk"/><use transform="matrix(0.049382716049382706,0,0,0.049382716049382706,117.43209876543206,0)" xlink:href="#bk"/><path fill="#8080ff" d="M-.9 1.23h128.1v1.3H-.9z"/></g><path fill="#333" d="M89 0H52L20-190h33L74-25l89-165h34" id="br"/><g id="I"><use transform="matrix(0.049382716049382706,0,0,0.049382716049382706,0,0)" xlink:href="#be"/><use transform="matrix(0.049382716049382706,0,0,0.049382716049382706,9.87654320987654,0)" xlink:href="#bm"/><use transform="matrix(0.049382716049382706,0,0,0.049382716049382706,18.76543209876543,0)" xlink:href="#bi"/><use transform="matrix(0.049382716049382706,0,0,0.049382716049382706,28.64197530864197,0)" xlink:href="#br"/><use transform="matrix(0.049382716049382706,0,0,0.049382716049382706,37.53086419753086,0)" xlink:href="#bp"/><use transform="matrix(0.049382716049382706,0,0,0.049382716049382706,47.407407407407405,0)" xlink:href="#bo"/><use transform="matrix(0.049382716049382706,0,0,0.049382716049382706,52.641975308641975,0)" xlink:href="#bl"/><use transform="matrix(0.049382716049382706,0,0,0.049382716049382706,57.58024691358025,0)" xlink:href="#bk"/><use transform="matrix(0.049382716049382706,0,0,0.049382716049382706,66.46913580246914,0)" xlink:href="#bm"/><use transform="matrix(0.049382716049382706,0,0,0.049382716049382706,75.35802469135803,0)" xlink:href="#bk"/><use transform="matrix(0.049382716049382706,0,0,0.049382716049382706,84.24691358024691,0)" xlink:href="#bk"/></g><path fill="#333" d="M50-231l6-30h32l-6 30H50zM6 0l37-190h31L37 0H6" id="bs"/><g id="J"><use transform="matrix(0.049382716049382706,0,0,0.049382716049382706,0,0)" xlink:href="#be"/><use transform="matrix(0.049382716049382706,0,0,0.049382716049382706,9.87654320987654,0)" xlink:href="#br"/><use transform="matrix(0.049382716049382706,0,0,0.049382716049382706,18.76543209876543,0)" xlink:href="#bn"/><use transform="matrix(0.049382716049382706,0,0,0.049382716049382706,28.64197530864197,0)" xlink:href="#bo"/><use transform="matrix(0.049382716049382706,0,0,0.049382716049382706,34.51851851851851,0)" xlink:href="#bs"/><use transform="matrix(0.049382716049382706,0,0,0.049382716049382706,38.419753086419746,0)" xlink:href="#bn"/><use transform="matrix(0.049382716049382706,0,0,0.049382716049382706,48.29629629629629,0)" xlink:href="#bf"/><use transform="matrix(0.049382716049382706,0,0,0.049382716049382706,58.17283950617284,0)" xlink:href="#bq"/><use transform="matrix(0.049382716049382706,0,0,0.049382716049382706,62.074074074074076,0)" xlink:href="#bp"/><use transform="matrix(0.049382716049382706,0,0,0.049382716049382706,71.9506172839506,0)" xlink:href="#bk"/><use transform="matrix(0.049382716049382706,0,0,0.049382716049382706,80.83950617283949,0)" xlink:href="#bl"/><use transform="matrix(0.049382716049382706,0,0,0.049382716049382706,85.77777777777776,0)" xlink:href="#bk"/><use transform="matrix(0.049382716049382706,0,0,0.049382716049382706,94.66666666666664,0)" xlink:href="#bm"/><use transform="matrix(0.049382716049382706,0,0,0.049382716049382706,103.55555555555553,0)" xlink:href="#bk"/><use transform="matrix(0.049382716049382706,0,0,0.049382716049382706,112.44444444444443,0)" xlink:href="#bk"/></g><path fill="#333" d="M76-167L44 0H12l33-167H18l4-23h27c3-47 25-81 82-69l-4 24c-35-8-44 15-46 45h37l-5 23H76" id="bt"/><g id="K"><use transform="matrix(0.049382716049382706,0,0,0.049382716049382706,0,0)" xlink:href="#be"/><use transform="matrix(0.049382716049382706,0,0,0.049382716049382706,9.87654320987654,0)" xlink:href="#bt"/><use transform="matrix(0.049382716049382706,0,0,0.049382716049382706,14.814814814814811,0)" xlink:href="#bg"/><use transform="matrix(0.049382716049382706,0,0,0.049382716049382706,24.691358024691354,0)" xlink:href="#bj"/><use transform="matrix(0.049382716049382706,0,0,0.049382716049382706,34.5679012345679,0)" xlink:href="#bm"/><use transform="matrix(0.049382716049382706,0,0,0.049382716049382706,43.456790123456784,0)" xlink:href="#bh"/><use transform="matrix(0.049382716049382706,0,0,0.049382716049382706,48.395061728395056,0)" xlink:href="#bs"/><use transform="matrix(0.049382716049382706,0,0,0.049382716049382706,52.29629629629628,0)" xlink:href="#bi"/><use transform="matrix(0.049382716049382706,0,0,0.049382716049382706,62.17283950617284,0)" xlink:href="#bj"/><use transform="matrix(0.049382716049382706,0,0,0.049382716049382706,72.04938271604938,0)" xlink:href="#bk"/><use transform="matrix(0.049382716049382706,0,0,0.049382716049382706,80.93827160493827,0)" xlink:href="#bl"/><use transform="matrix(0.049382716049382706,0,0,0.049382716049382706,85.87654320987653,0)" xlink:href="#bk"/><use transform="matrix(0.049382716049382706,0,0,0.049382716049382706,94.76543209876542,0)" xlink:href="#bm"/><use transform="matrix(0.049382716049382706,0,0,0.049382716049382706,103.6543209876543,0)" xlink:href="#bk"/><use transform="matrix(0.049382716049382706,0,0,0.049382716049382706,112.54320987654319,0)" xlink:href="#bk"/></g><path fill="#333" d="M248-111c6-24 9-61-24-58-72 9-57 108-77 169h-31l26-142c3-37-50-30-64-10C52-115 50-51 37 0H6l36-190h30c-1 10-6 24-4 32 13-43 101-52 105 5 13-22 29-41 61-41 90 0 28 129 23 194h-31" id="bu"/><path fill="#333" d="M124 0L87-78 21 0h-35l86-98-46-92h33l34 74 61-74h37l-83 92 50 98h-34" id="bv"/><g id="L"><use transform="matrix(0.049382716049382706,0,0,0.049382716049382706,0,0)" xlink:href="#be"/><use transform="matrix(0.049382716049382706,0,0,0.049382716049382706,9.87654320987654,0)" xlink:href="#bu"/><use transform="matrix(0.049382716049382706,0,0,0.049382716049382706,24.641975308641968,0)" xlink:href="#bn"/><use transform="matrix(0.049382716049382706,0,0,0.049382716049382706,34.518518518518505,0)" xlink:href="#bv"/><use transform="matrix(0.049382716049382706,0,0,0.049382716049382706,43.40740740740739,0)" xlink:href="#bs"/><use transform="matrix(0.049382716049382706,0,0,0.049382716049382706,47.308641975308625,0)" xlink:href="#bj"/><use transform="matrix(0.049382716049382706,0,0,0.049382716049382706,57.18518518518516,0)" xlink:href="#bk"/><use transform="matrix(0.049382716049382706,0,0,0.049382716049382706,66.07407407407405,0)" xlink:href="#bl"/><use transform="matrix(0.049382716049382706,0,0,0.049382716049382706,71.01234567901231,0)" xlink:href="#bk"/><use transform="matrix(0.049382716049382706,0,0,0.049382716049382706,79.9012345679012,0)" xlink:href="#bm"/><use transform="matrix(0.049382716049382706,0,0,0.049382716049382706,88.79012345679008,0)" xlink:href="#bk"/><use transform="matrix(0.049382716049382706,0,0,0.049382716049382706,97.67901234567897,0)" xlink:href="#bk"/></g><g id="M"><use transform="matrix(0.049382716049382706,0,0,0.049382716049382706,0,0)" xlink:href="#be"/><use transform="matrix(0.049382716049382706,0,0,0.049382716049382706,9.87654320987654,0)" xlink:href="#bn"/><use transform="matrix(0.049382716049382706,0,0,0.049382716049382706,19.75308641975308,0)" xlink:href="#bj"/><use transform="matrix(0.049382716049382706,0,0,0.049382716049382706,29.629629629629623,0)" xlink:href="#bs"/><use transform="matrix(0.049382716049382706,0,0,0.049382716049382706,33.53086419753085,0)" xlink:href="#bu"/><use transform="matrix(0.049382716049382706,0,0,0.049382716049382706,48.29629629629628,0)" xlink:href="#bn"/><use transform="matrix(0.049382716049382706,0,0,0.049382716049382706,58.172839506172814,0)" xlink:href="#bh"/><use transform="matrix(0.049382716049382706,0,0,0.049382716049382706,63.111111111111086,0)" xlink:href="#bs"/><use transform="matrix(0.049382716049382706,0,0,0.049382716049382706,67.01234567901233,0)" xlink:href="#bi"/><use transform="matrix(0.049382716049382706,0,0,0.049382716049382706,76.88888888888887,0)" xlink:href="#bj"/><use transform="matrix(0.049382716049382706,0,0,0.049382716049382706,86.76543209876542,0)" xlink:href="#bk"/><use transform="matrix(0.049382716049382706,0,0,0.049382716049382706,95.6543209876543,0)" xlink:href="#bl"/><use transform="matrix(0.049382716049382706,0,0,0.049382716049382706,100.59259259259257,0)" xlink:href="#bk"/><use transform="matrix(0.049382716049382706,0,0,0.049382716049382706,109.48148148148147,0)" xlink:href="#bm"/><use transform="matrix(0.049382716049382706,0,0,0.049382716049382706,118.37037037037035,0)" xlink:href="#bk"/><use transform="matrix(0.049382716049382706,0,0,0.049382716049382706,127.25925925925924,0)" xlink:href="#bk"/></g><path fill="#333" d="M103-194c29 0 47 14 56 36 2-11 5-23 8-32h30L160-5C157 61 82 97 21 62 9 55 4 45 1 30l28-7c7 42 83 31 92-3 4-16 9-38 13-55-13 20-29 36-62 36-40 0-60-25-60-64 0-71 23-131 91-131zm4 24c-53 0-58 54-61 104-2 27 10 44 36 44 49 0 65-50 67-102 1-29-15-46-42-46" id="bw"/><path fill="#333" d="M133-28C103 26-5 8 13-77c13-62 24-115 90-117 29-1 46 15 56 35l19-102h32L160 0h-30zM45-64c-2 27 10 43 35 43 54-1 69-50 69-103 0-29-15-46-42-46-53-1-58 58-62 106" id="bx"/><g id="N"><use transform="matrix(0.049382716049382706,0,0,0.049382716049382706,0,0)" xlink:href="#be"/><use transform="matrix(0.049382716049382706,0,0,0.049382716049382706,9.87654320987654,0)" xlink:href="#bw"/><use transform="matrix(0.049382716049382706,0,0,0.049382716049382706,19.75308641975308,0)" xlink:href="#bo"/><use transform="matrix(0.049382716049382706,0,0,0.049382716049382706,25.629629629629626,0)" xlink:href="#bs"/><use transform="matrix(0.049382716049382706,0,0,0.049382716049382706,29.530864197530857,0)" xlink:href="#bx"/><use transform="matrix(0.049382716049382706,0,0,0.049382716049382706,39.4074074074074,0)" xlink:href="#bl"/><use transform="matrix(0.049382716049382706,0,0,0.049382716049382706,44.34567901234567,0)" xlink:href="#bk"/><use transform="matrix(0.049382716049382706,0,0,0.049382716049382706,53.234567901234556,0)" xlink:href="#bm"/><use transform="matrix(0.049382716049382706,0,0,0.049382716049382706,62.12345679012344,0)" xlink:href="#bk"/><use transform="matrix(0.049382716049382706,0,0,0.049382716049382706,71.01234567901233,0)" xlink:href="#bk"/></g><path fill="#333" d="M67-158c15-20 31-36 64-36 94 0 33 127 27 194h-32l25-140c3-38-53-32-70-12C52-117 51-51 37 0H6l51-261h31" id="by"/><g id="O"><use transform="matrix(0.049382716049382706,0,0,0.049382716049382706,0,0)" xlink:href="#be"/><use transform="matrix(0.049382716049382706,0,0,0.049382716049382706,9.87654320987654,0)" xlink:href="#by"/><use transform="matrix(0.049382716049382706,0,0,0.049382716049382706,19.75308641975308,0)" xlink:href="#bp"/><use transform="matrix(0.049382716049382706,0,0,0.049382716049382706,29.629629629629623,0)" xlink:href="#bn"/><use transform="matrix(0.049382716049382706,0,0,0.049382716049382706,39.50617283950616,0)" xlink:href="#bx"/><use transform="matrix(0.049382716049382706,0,0,0.049382716049382706,49.38271604938271,0)" xlink:href="#bp"/><use transform="matrix(0.049382716049382706,0,0,0.049382716049382706,59.259259259259245,0)" xlink:href="#bo"/><use transform="matrix(0.049382716049382706,0,0,0.049382716049382706,64.49382716049382,0)" xlink:href="#bl"/><use transform="matrix(0.049382716049382706,0,0,0.049382716049382706,69.43209876543209,0)" xlink:href="#bk"/><use transform="matrix(0.049382716049382706,0,0,0.049382716049382706,78.32098765432097,0)" xlink:href="#bm"/><use transform="matrix(0.049382716049382706,0,0,0.049382716049382706,87.20987654320986,0)" xlink:href="#bk"/><use transform="matrix(0.049382716049382706,0,0,0.049382716049382706,96.09876543209874,0)" xlink:href="#bk"/></g><g id="P"><use transform="matrix(0.049382716049382706,0,0,0.049382716049382706,0,0)" xlink:href="#be"/><use transform="matrix(0.049382716049382706,0,0,0.049382716049382706,9.87654320987654,0)" xlink:href="#bt"/><use transform="matrix(0.049382716049382706,0,0,0.049382716049382706,14.814814814814811,0)" xlink:href="#bi"/><use transform="matrix(0.049382716049382706,0,0,0.049382716049382706,24.691358024691354,0)" xlink:href="#bi"/><use transform="matrix(0.049382716049382706,0,0,0.049382716049382706,34.5679012345679,0)" xlink:href="#bh"/><use transform="matrix(0.049382716049382706,0,0,0.049382716049382706,39.50617283950617,0)" xlink:href="#bp"/><use transform="matrix(0.049382716049382706,0,0,0.049382716049382706,49.38271604938271,0)" xlink:href="#bo"/><use transform="matrix(0.049382716049382706,0,0,0.049382716049382706,54.61728395061727,0)" xlink:href="#bl"/><use transform="matrix(0.049382716049382706,0,0,0.049382716049382706,59.55555555555556,0)" xlink:href="#bk"/><use transform="matrix(0.049382716049382706,0,0,0.049382716049382706,68.44444444444444,0)" xlink:href="#bm"/><use transform="matrix(0.049382716049382706,0,0,0.049382716049382706,77.33333333333333,0)" xlink:href="#bk"/><use transform="matrix(0.049382716049382706,0,0,0.049382716049382706,86.22222222222221,0)" xlink:href="#bk"/></g><g id="Q"><use transform="matrix(0.049382716049382706,0,0,0.049382716049382706,0,0)" xlink:href="#be"/><use transform="matrix(0.049382716049382706,0,0,0.049382716049382706,9.87654320987654,0)" xlink:href="#bt"/><use transform="matrix(0.049382716049382706,0,0,0.049382716049382706,14.814814814814811,0)" xlink:href="#bq"/><use transform="matrix(0.049382716049382706,0,0,0.049382716049382706,18.716049382716044,0)" xlink:href="#bp"/><use transform="matrix(0.049382716049382706,0,0,0.049382716049382706,28.592592592592588,0)" xlink:href="#bv"/><use transform="matrix(0.049382716049382706,0,0,0.049382716049382706,37.481481481481474,0)" xlink:href="#bl"/><use transform="matrix(0.049382716049382706,0,0,0.049382716049382706,42.419753086419746,0)" xlink:href="#bk"/><use transform="matrix(0.049382716049382706,0,0,0.049382716049382706,51.30864197530863,0)" xlink:href="#bm"/><use transform="matrix(0.049382716049382706,0,0,0.049382716049382706,60.19753086419752,0)" xlink:href="#bk"/><use transform="matrix(0.049382716049382706,0,0,0.049382716049382706,69.0864197530864,0)" xlink:href="#bk"/></g><g id="R"><use transform="matrix(0.049382716049382706,0,0,0.049382716049382706,0,0)" xlink:href="#be"/><use transform="matrix(0.049382716049382706,0,0,0.049382716049382706,9.87654320987654,0)" xlink:href="#by"/><use transform="matrix(0.049382716049382706,0,0,0.049382716049382706,19.75308641975308,0)" xlink:href="#bi"/><use transform="matrix(0.049382716049382706,0,0,0.049382716049382706,29.629629629629623,0)" xlink:href="#bu"/><use transform="matrix(0.049382716049382706,0,0,0.049382716049382706,44.39506172839505,0)" xlink:href="#bp"/><use transform="matrix(0.049382716049382706,0,0,0.049382716049382706,54.271604938271594,0)" xlink:href="#bl"/><use transform="matrix(0.049382716049382706,0,0,0.049382716049382706,59.209876543209866,0)" xlink:href="#bk"/><use transform="matrix(0.049382716049382706,0,0,0.049382716049382706,68.09876543209876,0)" xlink:href="#bm"/><use transform="matrix(0.049382716049382706,0,0,0.049382716049382706,76.98765432098764,0)" xlink:href="#bk"/><use transform="matrix(0.049382716049382706,0,0,0.049382716049382706,85.87654320987653,0)" xlink:href="#bk"/></g><path fill="#333" d="M18-82l6-28h88l-6 28H18" id="bz"/><g id="S"><use transform="matrix(0.049382716049382706,0,0,0.049382716049382706,0,0)" xlink:href="#be"/><use transform="matrix(0.049382716049382706,0,0,0.049382716049382706,9.87654320987654,0)" xlink:href="#bm"/><use transform="matrix(0.049382716049382706,0,0,0.049382716049382706,18.76543209876543,0)" xlink:href="#bi"/><use transform="matrix(0.049382716049382706,0,0,0.049382716049382706,28.64197530864197,0)" xlink:href="#bj"/><use transform="matrix(0.049382716049382706,0,0,0.049382716049382706,38.51851851851851,0)" xlink:href="#bh"/><use transform="matrix(0.049382716049382706,0,0,0.049382716049382706,43.456790123456784,0)" xlink:href="#bn"/><use transform="matrix(0.049382716049382706,0,0,0.049382716049382706,53.333333333333336,0)" xlink:href="#bm"/><use transform="matrix(0.049382716049382706,0,0,0.049382716049382706,62.22222222222221,0)" xlink:href="#bh"/><use transform="matrix(0.049382716049382706,0,0,0.049382716049382706,67.16049382716048,0)" xlink:href="#bz"/><use transform="matrix(0.049382716049382706,0,0,0.049382716049382706,73.03703703703702,0)" xlink:href="#bk"/><use transform="matrix(0.049382716049382706,0,0,0.049382716049382706,81.92592592592591,0)" xlink:href="#bm"/><use transform="matrix(0.049382716049382706,0,0,0.049382716049382706,90.8148148148148,0)" xlink:href="#bk"/><use transform="matrix(0.049382716049382706,0,0,0.049382716049382706,99.70370370370368,0)" xlink:href="#bk"/></g><g id="T"><use transform="matrix(0.049382716049382706,0,0,0.049382716049382706,0,0)" xlink:href="#be"/><use transform="matrix(0.049382716049382706,0,0,0.049382716049382706,9.87654320987654,0)" xlink:href="#bn"/><use transform="matrix(0.049382716049382706,0,0,0.049382716049382706,19.75308641975308,0)" xlink:href="#bf"/><use transform="matrix(0.049382716049382706,0,0,0.049382716049382706,29.629629629629623,0)" xlink:href="#bi"/><use transform="matrix(0.049382716049382706,0,0,0.049382716049382706,39.50617283950616,0)" xlink:href="#bg"/><use transform="matrix(0.049382716049382706,0,0,0.049382716049382706,49.38271604938271,0)" xlink:href="#bh"/><use transform="matrix(0.049382716049382706,0,0,0.049382716049382706,54.32098765432098,0)" xlink:href="#bl"/><use transform="matrix(0.049382716049382706,0,0,0.049382716049382706,59.259259259259245,0)" xlink:href="#bk"/><use transform="matrix(0.049382716049382706,0,0,0.049382716049382706,68.14814814814814,0)" xlink:href="#bm"/><use transform="matrix(0.049382716049382706,0,0,0.049382716049382706,77.03703703703702,0)" xlink:href="#bk"/><use transform="matrix(0.049382716049382706,0,0,0.049382716049382706,85.92592592592591,0)" xlink:href="#bk"/></g><g id="U"><use transform="matrix(0.049382716049382706,0,0,0.049382716049382706,0,0)" xlink:href="#aM"/><use transform="matrix(0.049382716049382706,0,0,0.049382716049382706,14.765432098765428,0)" xlink:href="#aL"/><use transform="matrix(0.049382716049382706,0,0,0.049382716049382706,24.641975308641968,0)" xlink:href="#aC"/><use transform="matrix(0.049382716049382706,0,0,0.049382716049382706,28.543209876543205,0)" xlink:href="#aK"/><use transform="matrix(0.049382716049382706,0,0,0.049382716049382706,38.419753086419746,0)" xlink:href="#aN"/><use transform="matrix(0.049382716049382706,0,0,0.049382716049382706,43.35802469135802,0)" xlink:href="#aB"/><use transform="matrix(0.049382716049382706,0,0,0.049382716049382706,52.246913580246904,0)" xlink:href="#aJ"/><use transform="matrix(0.049382716049382706,0,0,0.049382716049382706,61.13580246913579,0)" xlink:href="#aB"/><use transform="matrix(0.049382716049382706,0,0,0.049382716049382706,70.02469135802468,0)" xlink:href="#aB"/></g><g id="V"><use transform="matrix(0.049382716049382706,0,0,0.049382716049382706,0,0)" xlink:href="#aM"/><use transform="matrix(0.049382716049382706,0,0,0.049382716049382706,14.765432098765428,0)" xlink:href="#aL"/><use transform="matrix(0.049382716049382706,0,0,0.049382716049382706,24.641975308641968,0)" xlink:href="#aC"/><use transform="matrix(0.049382716049382706,0,0,0.049382716049382706,28.543209876543205,0)" xlink:href="#aK"/><use transform="matrix(0.049382716049382706,0,0,0.049382716049382706,38.419753086419746,0)" xlink:href="#aN"/><use transform="matrix(0.049382716049382706,0,0,0.049382716049382706,43.35802469135802,0)" xlink:href="#aJ"/><use transform="matrix(0.049382716049382706,0,0,0.049382716049382706,52.246913580246904,0)" xlink:href="#aB"/><use transform="matrix(0.049382716049382706,0,0,0.049382716049382706,61.13580246913579,0)" xlink:href="#aB"/><use transform="matrix(0.049382716049382706,0,0,0.049382716049382706,70.02469135802468,0)" xlink:href="#aN"/><use transform="matrix(0.049382716049382706,0,0,0.049382716049382706,74.96296296296295,0)" xlink:href="#aM"/><use transform="matrix(0.049382716049382706,0,0,0.049382716049382706,89.72839506172838,0)" xlink:href="#aL"/><use transform="matrix(0.049382716049382706,0,0,0.049382716049382706,99.60493827160492,0)" xlink:href="#aF"/><path fill="#8080ff" d="M-.9 1.23h111.27v1.3H-.9z"/></g><g id="W"><use transform="matrix(0.049382716049382706,0,0,0.049382716049382706,0,0)" xlink:href="#aM"/><use transform="matrix(0.049382716049382706,0,0,0.049382716049382706,14.765432098765428,0)" xlink:href="#aL"/><use transform="matrix(0.049382716049382706,0,0,0.049382716049382706,24.641975308641968,0)" xlink:href="#aC"/><use transform="matrix(0.049382716049382706,0,0,0.049382716049382706,28.543209876543205,0)" xlink:href="#aK"/><use transform="matrix(0.049382716049382706,0,0,0.049382716049382706,38.419753086419746,0)" xlink:href="#aN"/><use transform="matrix(0.049382716049382706,0,0,0.049382716049382706,43.35802469135802,0)" xlink:href="#aJ"/><use transform="matrix(0.049382716049382706,0,0,0.049382716049382706,52.246913580246904,0)" xlink:href="#aB"/><use transform="matrix(0.049382716049382706,0,0,0.049382716049382706,61.13580246913579,0)" xlink:href="#aB"/></g><path fill="#333" d="M110-194c64 0 96 36 96 99 0 64-35 99-97 99-61 0-95-36-95-99 0-62 34-99 96-99zm-1 164c35 0 45-28 45-65 0-40-10-65-43-65-34 0-45 26-45 65 0 36 10 65 43 65" id="bA"/><path fill="#333" d="M220-157c-53 9-28 100-34 157h-49v-107c1-27-5-49-29-50C55-147 81-57 75 0H25l-1-190h47c2 12-1 28 3 38 10-53 101-56 108 0 13-22 24-43 59-42 82 1 51 116 57 194h-49v-107c-1-25-5-48-29-50" id="bB"/><path fill="#333" d="M135-194c53 0 70 44 70 98 0 56-19 98-73 100-31 1-45-17-59-34 3 33 2 69 2 105H25l-1-265h48c2 10 0 23 3 31 11-24 29-35 60-35zM114-30c33 0 39-31 40-66 0-38-9-64-40-64-56 0-55 130 0 130" id="bC"/><path fill="#333" d="M135-194c87-1 58 113 63 194h-50c-7-57 23-157-34-157-59 0-34 97-39 157H25l-1-190h47c2 12-1 28 3 38 12-26 28-41 61-42" id="bD"/><path fill="#333" d="M185-48c-13 30-37 53-82 52C43 2 14-33 14-96s30-98 90-98c62 0 83 45 84 108H66c0 31 8 55 39 56 18 0 30-7 34-22zm-45-69c5-46-57-63-70-21-2 6-4 13-4 21h74" id="bE"/><path fill="#333" d="M115-3C79 11 28 4 28-45v-112H4v-33h27l15-45h31v45h36v33H77v99c-1 23 16 31 38 25v30" id="bF"/><path fill="#333" d="M137-138c1-29-70-34-71-4 15 46 118 7 119 86 1 83-164 76-172 9l43-7c4 19 20 25 44 25 33 8 57-30 24-41C81-84 22-81 20-136c-2-80 154-74 161-7" id="bG"/><g id="X"><use transform="matrix(0.04320987654320987,0,0,0.04320987654320987,0,0)" xlink:href="#bb"/><use transform="matrix(0.04320987654320987,0,0,0.04320987654320987,11.191358024691356,0)" xlink:href="#bA"/><use transform="matrix(0.04320987654320987,0,0,0.04320987654320987,20.654320987654316,0)" xlink:href="#bB"/><use transform="matrix(0.04320987654320987,0,0,0.04320987654320987,34.481481481481474,0)" xlink:href="#bC"/><use transform="matrix(0.04320987654320987,0,0,0.04320987654320987,43.944444444444436,0)" xlink:href="#bA"/><use transform="matrix(0.04320987654320987,0,0,0.04320987654320987,53.4074074074074,0)" xlink:href="#bD"/><use transform="matrix(0.04320987654320987,0,0,0.04320987654320987,62.87037037037036,0)" xlink:href="#bE"/><use transform="matrix(0.04320987654320987,0,0,0.04320987654320987,71.51234567901233,0)" xlink:href="#bD"/><use transform="matrix(0.04320987654320987,0,0,0.04320987654320987,80.97530864197529,0)" xlink:href="#bF"/><use transform="matrix(0.04320987654320987,0,0,0.04320987654320987,86.11728395061726,0)" xlink:href="#bG"/><use transform="matrix(0.04320987654320987,0,0,0.04320987654320987,94.75925925925924,0)" xlink:href="#bc"/></g><path fill="#333" d="M186 0v-106H76V0H24v-248h52v99h110v-99h50V0h-50" id="bH"/><path fill="#333" d="M25 0v-261h50V0H25" id="bI"/><path fill="#333" d="M135-150c-39-12-60 13-60 57V0H25l-1-190h47c2 13-1 29 3 40 6-28 27-53 61-41v41" id="bJ"/><g id="Y"><use transform="matrix(0.04320987654320987,0,0,0.04320987654320987,0,0)" xlink:href="#bH"/><use transform="matrix(0.04320987654320987,0,0,0.04320987654320987,11.191358024691356,0)" xlink:href="#bE"/><use transform="matrix(0.04320987654320987,0,0,0.04320987654320987,19.83333333333333,0)" xlink:href="#bI"/><use transform="matrix(0.04320987654320987,0,0,0.04320987654320987,24.154320987654316,0)" xlink:href="#bC"/><use transform="matrix(0.04320987654320987,0,0,0.04320987654320987,33.61728395061728,0)" xlink:href="#bE"/><use transform="matrix(0.04320987654320987,0,0,0.04320987654320987,42.25925925925925,0)" xlink:href="#bJ"/><use transform="matrix(0.04320987654320987,0,0,0.04320987654320987,48.30864197530863,0)" xlink:href="#bG"/><use transform="matrix(0.04320987654320987,0,0,0.04320987654320987,56.950617283950606,0)" xlink:href="#bc"/></g><path fill="#333" d="M24 0v-248h52v208h133V0H24" id="bK"/><path fill="#333" d="M133-34C117-15 103 5 69 4 32 3 11-16 11-54c-1-60 55-63 116-61 1-26-3-47-28-47-18 1-26 9-28 27l-52-2c7-38 36-58 82-57s74 22 75 68l1 82c-1 14 12 18 25 15v27c-30 8-71 5-69-32zm-48 3c29 0 43-24 42-57-32 0-66-3-65 30 0 17 8 27 23 27" id="bL"/><path fill="#333" d="M123 10C108 53 80 86 19 72V37c35 8 53-11 59-39L3-190h52l48 148c12-52 28-100 44-148h51" id="bM"/><path fill="#333" d="M85 4C-2 5 27-109 22-190h50c7 57-23 150 33 157 60-5 35-97 40-157h50l1 190h-47c-2-12 1-28-3-38-12 25-28 42-61 42" id="bN"/><g id="Z"><use transform="matrix(0.04320987654320987,0,0,0.04320987654320987,0,0)" xlink:href="#bK"/><use transform="matrix(0.04320987654320987,0,0,0.04320987654320987,9.46296296296296,0)" xlink:href="#bL"/><use transform="matrix(0.04320987654320987,0,0,0.04320987654320987,18.104938271604933,0)" xlink:href="#bM"/><use transform="matrix(0.04320987654320987,0,0,0.04320987654320987,26.746913580246904,0)" xlink:href="#bA"/><use transform="matrix(0.04320987654320987,0,0,0.04320987654320987,36.209876543209866,0)" xlink:href="#bN"/><use transform="matrix(0.04320987654320987,0,0,0.04320987654320987,45.67283950617283,0)" xlink:href="#bF"/><use transform="matrix(0.04320987654320987,0,0,0.04320987654320987,50.8148148148148,0)" xlink:href="#bG"/><use transform="matrix(0.04320987654320987,0,0,0.04320987654320987,59.45679012345678,0)" xlink:href="#bc"/></g><path fill="#333" d="M24-248c93 1 206-16 204 79-1 75-69 88-152 82V0H24v-248zm52 121c47 0 100 7 100-41 0-47-54-39-100-39v80" id="bO"/><path fill="#333" d="M195-6C206 82 75 100 31 46c-4-6-6-13-8-21l49-6c3 16 16 24 34 25 40 0 42-37 40-79-11 22-30 35-61 35-53 0-70-43-70-97 0-56 18-96 73-97 30 0 46 14 59 34l2-30h47zm-90-29c32 0 41-27 41-63 0-35-9-62-40-62-32 0-39 29-40 63 0 36 9 62 39 62" id="bP"/><g id="aa"><use transform="matrix(0.04320987654320987,0,0,0.04320987654320987,0,0)" xlink:href="#bO"/><use transform="matrix(0.04320987654320987,0,0,0.04320987654320987,10.370370370370368,0)" xlink:href="#bL"/><use transform="matrix(0.04320987654320987,0,0,0.04320987654320987,19.01234567901234,0)" xlink:href="#bP"/><use transform="matrix(0.04320987654320987,0,0,0.04320987654320987,28.475308641975303,0)" xlink:href="#bE"/><use transform="matrix(0.04320987654320987,0,0,0.04320987654320987,37.11728395061728,0)" xlink:href="#bG"/><use transform="matrix(0.04320987654320987,0,0,0.04320987654320987,45.75925925925925,0)" xlink:href="#bc"/></g><linearGradient gradientUnits="userSpaceOnUse" id="ab" x1="585.71" y1="563.09" x2="640.76" y2="526.63"><stop offset="0%"/><stop offset="100%" stop-color="#ff2a2a"/></linearGradient><linearGradient gradientUnits="userSpaceOnUse" id="ac" x1="587.45" y1="541.2" x2="660.46" y2="541.2"><stop offset="0%" stop-color="#2b0000"/><stop offset="100%" stop-color="#ff2a2a"/></linearGradient><linearGradient gradientUnits="userSpaceOnUse" id="ad" x1="618.1" y1="558.55" x2="656.18" y2="532.21"><stop offset="0%" stop-color="#fff" stop-opacity="0"/><stop offset="100%" stop-color="#fff"/></linearGradient><linearGradient gradientUnits="userSpaceOnUse" id="ae" x1="602.08" y1="568.57" x2="654.1" y2="533.34"><stop offset="0%" stop-color="#fff" stop-opacity="0"/><stop offset="100%" stop-color="#fff"/></linearGradient><path fill="#333" d="M24-248c120-7 223 5 221 122C244-46 201 0 124 0H24v-248zM76-40c74 7 117-18 117-86 0-67-45-88-117-82v168" id="bQ"/><path fill="#333" d="M25-224v-37h50v37H25zM25 0v-190h50V0H25" id="bR"/><g id="af"><use transform="matrix(0.049382716049382706,0,0,0.049382716049382706,0,0)" xlink:href="#bQ"/><use transform="matrix(0.049382716049382706,0,0,0.049382716049382706,12.790123456790122,0)" xlink:href="#bR"/><use transform="matrix(0.049382716049382706,0,0,0.049382716049382706,17.728395061728392,0)" xlink:href="#bG"/><use transform="matrix(0.049382716049382706,0,0,0.049382716049382706,27.604938271604933,0)" xlink:href="#bF"/><use transform="matrix(0.049382716049382706,0,0,0.049382716049382706,33.481481481481474,0)" xlink:href="#bc"/></g><path fill="#333" d="M51-231l6-30h31l-6 30H51zM33 24C28 60 2 84-40 72c3-12-1-29 18-22C-5 49-1 37 2 19l41-209h32" id="bS"/><g id="ag"><use transform="matrix(0.049382716049382706,0,0,0.049382716049382706,0,0)" xlink:href="#bu"/><use transform="matrix(0.049382716049382706,0,0,0.049382716049382706,14.765432098765428,0)" xlink:href="#bn"/><use transform="matrix(0.049382716049382706,0,0,0.049382716049382706,24.641975308641968,0)" xlink:href="#bs"/><use transform="matrix(0.049382716049382706,0,0,0.049382716049382706,28.543209876543205,0)" xlink:href="#bj"/><use transform="matrix(0.049382716049382706,0,0,0.049382716049382706,38.419753086419746,0)" xlink:href="#bl"/><use transform="matrix(0.049382716049382706,0,0,0.049382716049382706,43.35802469135802,0)" xlink:href="#bS"/><use transform="matrix(0.049382716049382706,0,0,0.049382716049382706,47.25925925925925,0)" xlink:href="#bk"/></g><g id="ah"><use transform="matrix(0.049382716049382706,0,0,0.049382716049382706,0,0)" xlink:href="#bs"/><use transform="matrix(0.049382716049382706,0,0,0.049382716049382706,3.9012345679012337,0)" xlink:href="#bj"/><use transform="matrix(0.049382716049382706,0,0,0.049382716049382706,13.777777777777775,0)" xlink:href="#bx"/><use transform="matrix(0.049382716049382706,0,0,0.049382716049382706,23.654320987654316,0)" xlink:href="#bp"/><use transform="matrix(0.049382716049382706,0,0,0.049382716049382706,33.53086419753086,0)" xlink:href="#bv"/><use transform="matrix(0.049382716049382706,0,0,0.049382716049382706,42.419753086419746,0)" xlink:href="#bl"/><use transform="matrix(0.049382716049382706,0,0,0.049382716049382706,47.35802469135802,0)" xlink:href="#by"/><use transform="matrix(0.049382716049382706,0,0,0.049382716049382706,57.234567901234556,0)" xlink:href="#bh"/><use transform="matrix(0.049382716049382706,0,0,0.049382716049382706,62.17283950617283,0)" xlink:href="#bu"/><use transform="matrix(0.049382716049382706,0,0,0.049382716049382706,76.93827160493825,0)" xlink:href="#bq"/><path fill="#8080ff" d="M-.9 1.23h82.63v1.3H-.9z"/></g><linearGradient gradientUnits="userSpaceOnUse" id="ai" x1="465.71" y1="715.42" x2="520.76" y2="678.96"><stop offset="0%"/><stop offset="100%" stop-color="#ff2a2a"/></linearGradient><linearGradient gradientUnits="userSpaceOnUse" id="aj" x1="467.45" y1="693.53" x2="540.46" y2="693.53"><stop offset="0%" stop-color="#2b0000"/><stop offset="100%" stop-color="#ff2a2a"/></linearGradient><linearGradient gradientUnits="userSpaceOnUse" id="ak" x1="498.1" y1="710.88" x2="536.18" y2="684.55"><stop offset="0%" stop-color="#fff" stop-opacity="0"/><stop offset="100%" stop-color="#fff"/></linearGradient><linearGradient gradientUnits="userSpaceOnUse" id="al" x1="482.08" y1="720.91" x2="534.1" y2="685.67"><stop offset="0%" stop-color="#fff" stop-opacity="0"/><stop offset="100%" stop-color="#fff"/></linearGradient><path fill="#333" d="M88-194c31-1 46 15 58 34l-1-101h50l1 261h-48c-2-10 0-23-3-31C134-8 116 4 84 4 32 4 16-41 15-95c0-56 19-97 73-99zm17 164c33 0 40-30 41-66 1-37-9-64-41-64s-38 30-39 65c0 43 13 65 39 65" id="bT"/><path fill="#333" d="M-4 44V30h207v14H-4" id="bU"/><g id="am"><use transform="matrix(0.049382716049382706,0,0,0.049382716049382706,0,0)" xlink:href="#bD"/><use transform="matrix(0.049382716049382706,0,0,0.049382716049382706,10.814814814814813,0)" xlink:href="#bA"/><use transform="matrix(0.049382716049382706,0,0,0.049382716049382706,21.629629629629626,0)" xlink:href="#bT"/><use transform="matrix(0.049382716049382706,0,0,0.049382716049382706,32.44444444444444,0)" xlink:href="#bE"/><use transform="matrix(0.049382716049382706,0,0,0.049382716049382706,42.32098765432099,0)" xlink:href="#bU"/><use transform="matrix(0.049382716049382706,0,0,0.049382716049382706,52.19753086419753,0)" xlink:href="#bB"/><use transform="matrix(0.049382716049382706,0,0,0.049382716049382706,68,0)" xlink:href="#bA"/><use transform="matrix(0.049382716049382706,0,0,0.049382716049382706,78.81481481481481,0)" xlink:href="#bT"/><use transform="matrix(0.049382716049382706,0,0,0.049382716049382706,89.62962962962962,0)" xlink:href="#bN"/><use transform="matrix(0.049382716049382706,0,0,0.049382716049382706,100.44444444444443,0)" xlink:href="#bI"/><use transform="matrix(0.049382716049382706,0,0,0.049382716049382706,105.3827160493827,0)" xlink:href="#bE"/><use transform="matrix(0.049382716049382706,0,0,0.049382716049382706,115.25925925925924,0)" xlink:href="#bG"/><use transform="matrix(0.049382716049382706,0,0,0.049382716049382706,125.13580246913578,0)" xlink:href="#bc"/></g><path fill="#333" d="M187 0l-14-72H61L19 0h-37l149-248h38L221 0h-34zm-19-99l-22-123L76-99h92" id="bV"/><use transform="matrix(0.049382716049382706,0,0,0.049382716049382706,0,0)" xlink:href="#bV" id="an"/><g id="ao"><use transform="matrix(0.049382716049382706,0,0,0.049382716049382706,0,0)" xlink:href="#bq"/><use transform="matrix(0.049382716049382706,0,0,0.049382716049382706,3.9012345679012337,0)" xlink:href="#bi"/><use transform="matrix(0.049382716049382706,0,0,0.049382716049382706,13.777777777777775,0)" xlink:href="#bh"/></g><g id="ap"><use transform="matrix(0.049382716049382706,0,0,0.049382716049382706,0,0)" xlink:href="#bi"/><use transform="matrix(0.049382716049382706,0,0,0.049382716049382706,9.87654320987654,0)" xlink:href="#bt"/></g><path fill="#333" d="M194-120c59 52 2 134-86 124-53-6-90-18-98-63l31-7c8 30 29 43 70 43 46 0 84-17 71-62-32-43-135-20-137-98-3-89 178-90 191-16l-30 9c-8-48-127-53-127 5 0 53 81 35 115 65" id="bW"/><g id="aq"><use transform="matrix(0.049382716049382706,0,0,0.049382716049382706,0,0)" xlink:href="#bW"/><use transform="matrix(0.049382716049382706,0,0,0.049382716049382706,11.85185185185185,0)" xlink:href="#bh"/><use transform="matrix(0.049382716049382706,0,0,0.049382716049382706,16.79012345679012,0)" xlink:href="#bg"/><use transform="matrix(0.049382716049382706,0,0,0.049382716049382706,26.66666666666666,0)" xlink:href="#bt"/><use transform="matrix(0.049382716049382706,0,0,0.049382716049382706,31.604938271604933,0)" xlink:href="#bt"/></g><linearGradient gradientUnits="userSpaceOnUse" id="ar" x1="305.71" y1="855.42" x2="360.76" y2="818.96"><stop offset="0%"/><stop offset="100%" stop-color="#ff2a2a"/></linearGradient><linearGradient gradientUnits="userSpaceOnUse" id="as" x1="307.45" y1="833.53" x2="380.46" y2="833.53"><stop offset="0%" stop-color="#2b0000"/><stop offset="100%" stop-color="#ff2a2a"/></linearGradient><linearGradient gradientUnits="userSpaceOnUse" id="at" x1="338.1" y1="850.88" x2="376.18" y2="824.55"><stop offset="0%" stop-color="#fff" stop-opacity="0"/><stop offset="100%" stop-color="#fff"/></linearGradient><linearGradient gradientUnits="userSpaceOnUse" id="au" x1="322.08" y1="860.91" x2="374.1" y2="825.67"><stop offset="0%" stop-color="#fff" stop-opacity="0"/><stop offset="100%" stop-color="#fff"/></linearGradient><path fill="#333" d="M190-63c-7 42-38 67-86 67-59 0-84-38-90-98-12-110 154-137 174-36l-49 2c-2-19-15-32-35-32-30 0-35 28-38 64-6 74 65 87 74 30" id="bX"/><g id="av"><use transform="matrix(0.049382716049382706,0,0,0.049382716049382706,0,0)" xlink:href="#bG"/><use transform="matrix(0.049382716049382706,0,0,0.049382716049382706,9.87654320987654,0)" xlink:href="#bJ"/><use transform="matrix(0.049382716049382706,0,0,0.049382716049382706,16.79012345679012,0)" xlink:href="#bX"/></g><path fill="#333" d="M67-162c32-53 139-36 121 50C175-51 163 2 97 4 68 4 52-11 42-31 38 6 28 39 22 75H-9l50-265h29c-1 10 0 20-3 28zm89 36c0-26-10-43-35-43-54 0-67 50-69 103-1 29 14 45 42 46 53 0 62-58 62-106" id="bY"/><g id="aw"><use transform="matrix(0.049382716049382706,0,0,0.049382716049382706,0,0)" xlink:href="#bn"/><use transform="matrix(0.049382716049382706,0,0,0.049382716049382706,9.87654320987654,0)" xlink:href="#bY"/><use transform="matrix(0.049382716049382706,0,0,0.049382716049382706,19.75308641975308,0)" xlink:href="#bY"/><use transform="matrix(0.049382716049382706,0,0,0.049382716049382706,29.629629629629623,0)" xlink:href="#bl"/><use transform="matrix(0.049382716049382706,0,0,0.049382716049382706,34.56790123456789,0)" xlink:href="#bS"/><use transform="matrix(0.049382716049382706,0,0,0.049382716049382706,38.469135802469125,0)" xlink:href="#bk"/><path fill="#8080ff" d="M-.9 1.23h49.15v1.3H-.9z"/></g><g id="ax"><use transform="matrix(0.049382716049382706,0,0,0.049382716049382706,0,0)" xlink:href="#bh"/><use transform="matrix(0.049382716049382706,0,0,0.049382716049382706,4.93827160493827,0)" xlink:href="#bp"/><use transform="matrix(0.049382716049382706,0,0,0.049382716049382706,14.814814814814811,0)" xlink:href="#bu"/><use transform="matrix(0.049382716049382706,0,0,0.049382716049382706,29.58024691358024,0)" xlink:href="#bY"/><use transform="matrix(0.049382716049382706,0,0,0.049382716049382706,39.456790123456784,0)" xlink:href="#bl"/><use transform="matrix(0.049382716049382706,0,0,0.049382716049382706,44.395061728395056,0)" xlink:href="#by"/><use transform="matrix(0.049382716049382706,0,0,0.049382716049382706,54.271604938271594,0)" xlink:href="#bh"/><use transform="matrix(0.049382716049382706,0,0,0.049382716049382706,59.209876543209866,0)" xlink:href="#bu"/><use transform="matrix(0.049382716049382706,0,0,0.049382716049382706,73.97530864197529,0)" xlink:href="#bq"/></g></defs></g></svg>