<svg width="600" height="368" viewBox="0 0 600 368" fill="none" xmlns="http://www.w3.org/2000/svg">
<path d="M114.897 317.134L200 366.268L285.103 317.134V218.866L200 169.732L114.897 218.866V317.134Z" fill="white" stroke="#F9DC3E" stroke-width="3"/>
<path d="M228.934 243.974V243.66H228.391V243.974H228.934ZM232.563 252.216V252.367H232.945C232.949 252.195 232.987 252.025 233.057 251.867V251.552C232.896 251.552 232.736 251.797 232.587 252.228L232.563 252.216ZM218.392 262.599C217.598 261.316 216.622 260.142 215.491 259.107C215.491 258.735 216.109 258.188 217.454 257.454L221.293 254.3C222.309 252.804 222.837 251.059 222.811 249.282V248.747C222.663 247.141 221.429 245.848 219.108 244.859C217.726 243.982 215.257 243.497 211.702 243.404C207.669 243.912 203.731 244.946 200 246.477C198.56 247.443 197.064 248.333 195.519 249.143V249.41C195.681 249.382 195.833 249.318 195.964 249.224C196.002 249.215 196.043 249.215 196.082 249.223C196.121 249.231 196.157 249.248 196.188 249.271C196.219 249.295 196.244 249.325 196.261 249.359C196.278 249.394 196.286 249.431 196.285 249.469L196.568 249.329H196.704V249.445C195.772 250.343 194.722 251.125 193.581 251.774L193.742 252.053H193.606L193.26 251.936C193.26 252.03 193.125 252.099 192.841 252.123V252.239L193.174 252.635C193.008 252.631 192.844 252.595 192.692 252.53C192.137 252.603 191.628 252.864 191.261 253.264L191.458 252.46C192.092 249.967 192.57 247.44 192.89 244.894V244.754C192.357 244.422 191.886 244.009 191.495 243.532C191.508 243.342 191.508 243.151 191.495 242.962V242.845H191.359C189.845 244.995 186.92 248.662 182.583 253.846C179.291 257.532 177.588 259.58 177.473 259.992C176.127 261.307 175.485 262.099 175.547 262.32C175.189 262.541 175.041 262.751 175.103 262.995C175.082 263.002 175.061 263.005 175.039 263.004C175.018 263.002 174.997 262.996 174.978 262.986C174.959 262.976 174.943 262.962 174.93 262.946C174.918 262.929 174.909 262.91 174.905 262.89C174.623 263.323 174.25 263.696 173.808 263.987C173.366 264.277 172.866 264.479 172.338 264.578L171.103 264.834C171.064 264.84 171.027 264.853 170.994 264.872C170.961 264.892 170.932 264.918 170.91 264.949C170.888 264.979 170.873 265.014 170.866 265.05C170.859 265.087 170.86 265.124 170.869 265.16V265.3L171.313 265.207V265.323L170.301 265.696L168.511 266.091H167.573C167.437 266.22 168.326 266.091 167.98 266.161L166.746 266.417C166.03 266.569 165.647 266.511 165.512 266.243H165.376C165.398 266.335 165.398 266.43 165.376 266.522L165.524 266.336L164.586 266.545C164.52 266.134 163.249 264.636 160.772 262.052C160.772 261.552 161.599 260.83 163.388 259.887L168.425 255.708C169.552 254.342 170.223 252.15 170.437 249.131L170.375 248.444C170.177 246.314 168.548 244.603 165.437 243.276C163.623 242.112 160.352 241.495 155.637 241.402C150.38 242.076 145.244 243.415 140.367 245.383C138.476 246.656 136.506 247.823 134.467 248.875V249.248C134.679 249.213 134.88 249.138 135.06 249.026C135.109 249.014 135.161 249.012 135.211 249.022C135.261 249.031 135.308 249.051 135.348 249.08C135.389 249.109 135.422 249.147 135.445 249.19C135.467 249.233 135.479 249.281 135.479 249.329L135.874 249.119H136.072V249.294C134.824 250.447 133.441 251.463 131.949 252.321L132.171 252.647H131.986L131.566 252.507C131.566 252.612 131.381 252.693 130.974 252.728V252.926L131.43 253.403C131.219 253.401 131.009 253.362 130.813 253.287C130.261 253.395 129.741 253.614 129.287 253.93C128.833 254.245 128.457 254.649 128.184 255.114L128.406 255.44C128.786 255.05 129.228 254.716 129.715 254.451V254.986C129.505 255.028 129.305 255.103 129.122 255.208L129.641 255.859C130.534 254.968 131.541 254.186 132.64 253.531C133.183 253.659 133.467 253.822 133.48 253.997H133.899C136.569 252.073 139.544 250.557 142.713 249.504V249.876C142.17 250.652 141.803 251.04 141.614 251.04C141.627 251.292 141.727 251.533 141.898 251.727C141.947 252.193 140.627 255.336 137.936 261.156C131.887 274.605 126.793 284.561 122.654 291.026C122.692 291.216 122.777 291.395 122.901 291.55C123.591 291.443 124.25 291.206 124.839 290.851H125.061V291.224H125.444L125.839 291.014C125.839 291.119 125.975 291.177 126.246 291.154V291.526C126.197 292.093 125.993 292.639 125.654 293.109C125.035 293.958 124.583 294.904 124.32 295.903V296.078H124.703C126.207 294.539 127.478 292.811 128.48 290.944C132.312 289.981 136.033 288.663 139.59 287.01C141.699 286.954 143.741 286.292 145.441 285.112V284.914L144.478 285.182H144.256V284.984C145.64 284.895 146.981 284.496 148.169 283.82C151.839 281.151 154.612 279.261 156.488 278.151C160.34 275.482 162.837 272.882 163.981 270.352L164.623 270.212C164.931 270.228 165.24 270.228 165.549 270.212C165.549 270.119 165.549 270.061 165.672 270.038C166.536 269.956 166.116 270.038 166.672 269.968L168.116 269.654C168.03 269.654 167.993 269.723 168.017 269.805L168.24 269.677H168.128H168.375L168.264 269.747C168.44 269.778 168.62 269.778 168.795 269.747L168.894 270.142L162.203 279.839L160.747 281.562L160.031 283.797H160.167L160.883 283.518L160.648 284.391L160.722 284.647L160.92 284.879C160.833 284.879 160.796 284.961 160.821 285.054V285.194L161.117 285.124C161.553 284.767 161.738 284.441 161.673 284.146C161.979 284.22 162.296 284.244 162.611 284.216V284.356C162.327 284.425 162.179 284.635 162.154 285.008V285.147H162.315C164.709 282.679 170.572 274.263 175.275 268.536C175.127 267.915 177.596 267.054 182.682 265.952H182.842C183.023 266.728 182.612 268.54 181.608 271.388C181.215 272.304 180.921 273.256 180.731 274.228C180.235 275.443 179.855 276.698 179.596 277.977L177.806 283.518C176.626 286.425 175.734 289.43 175.14 292.492C175.302 292.459 175.471 292.459 175.633 292.492L175.88 292.283C175.884 292.303 175.893 292.322 175.906 292.338C175.918 292.355 175.934 292.369 175.953 292.379C175.972 292.389 175.993 292.395 176.014 292.396C176.036 292.398 176.058 292.395 176.078 292.388L176.09 291.945H176.868C177.102 291.945 177.287 291.619 177.46 291.119C177.46 290.374 177.584 289.955 177.942 289.885C178.124 288.955 178.422 288.048 178.83 287.184C179.02 286.138 179.356 285.12 179.83 284.158C180.509 281.83 181.065 280.666 181.324 280.596L181.398 280.875L180.904 282.039C180.262 284.949 179.387 287.809 178.287 290.595L178.547 291.631H178.707C180.847 287.293 183.924 278.702 187.94 265.859C187.984 265.325 188.163 264.809 188.462 264.353C188.76 263.898 189.17 263.516 189.656 263.24L189.421 263.007V262.89C189.798 262.836 190.14 262.653 190.384 262.378C190.384 262.285 189.965 262.134 189.15 261.947L191.15 253.799C191.37 253.574 191.629 253.386 191.915 253.24V253.648C191.753 253.676 191.601 253.74 191.47 253.834L191.853 254.346C192.525 253.653 193.284 253.04 194.112 252.519C194.532 252.623 194.729 252.763 194.754 252.891H195.05C197.083 251.438 199.344 250.295 201.753 249.504V249.771C201.35 250.346 201.074 250.637 200.926 250.644C200.942 250.83 201.006 251.01 201.111 251.168C200.319 253.628 199.324 256.025 198.136 258.339C194.778 266.154 190.886 273.756 186.484 281.096C186.522 281.241 186.593 281.376 186.693 281.492C187.214 281.413 187.71 281.231 188.15 280.957H188.286V281.224H188.607L188.891 281.085C188.891 281.162 188.993 281.193 189.199 281.178V281.469C189.157 281.915 188.986 282.341 188.705 282.703C188.216 283.339 187.86 284.059 187.656 284.821V284.961H187.952C189.094 283.793 190.058 282.48 190.816 281.061C193.71 280.326 196.521 279.328 199.21 278.081C200.821 278.042 202.38 277.538 203.678 276.638V276.498L202.925 276.708H202.765V276.568C203.814 276.496 204.83 276.188 205.727 275.672C208.505 273.658 210.665 272.18 212.047 271.365C216.491 268.315 218.553 265.393 218.306 262.576L218.392 262.599ZM217.639 262.786L217.738 263.88C217.602 264.148 217.454 264.287 217.318 264.299L217.145 262.436C217.466 262.541 217.627 262.658 217.639 262.786V262.786ZM130.542 253.962H130.344V253.624L131.11 253.531V253.706C130.902 253.741 130.705 253.816 130.529 253.927L130.542 253.962ZM126.666 290.525C126.284 290.344 125.858 290.26 125.431 290.281V289.745C125.431 289.536 125.53 289.396 125.814 289.349C126.098 289.303 126.221 289.501 126.234 289.85C126.558 289.429 126.926 289.039 127.332 288.686L127.752 288.849C127.616 289.931 127.258 290.49 126.69 290.525H126.666ZM168.079 249.667C167.882 249.667 167.487 249.108 166.931 247.979V247.641C167.301 247.641 167.684 248.177 168.079 249.329V249.667ZM167.536 245.616L167.375 245.976L161.734 243.765C165.487 243.881 167.417 244.498 167.524 245.616H167.536ZM143.787 264.846L142.997 264.916V264.578L143.787 264.508V264.846ZM143.145 253.298H143.342V253.834C143.157 253.834 142.922 254.102 142.614 254.602V254.23C142.972 253.834 143.157 253.52 143.132 253.31L143.145 253.298ZM141.466 257.023L141.54 257.734H141.342L141.268 257.023H141.466ZM140.59 258.35H140.972C140.972 258.933 140.762 259.247 140.454 259.27H140.256C140.455 259.007 140.571 258.696 140.59 258.374V258.35ZM139.935 260.19H140.157V260.364L139.8 260.923H139.417V260.748C139.494 260.754 139.572 260.742 139.644 260.714C139.715 260.686 139.779 260.643 139.829 260.587C139.88 260.532 139.916 260.466 139.934 260.395C139.953 260.323 139.953 260.249 139.935 260.178V260.19ZM139.293 261.854L139.182 262.739H138.985L138.898 261.866H139.293V261.854ZM132.838 279.141C132.578 280.305 132.307 280.968 132.023 280.991V280.817C132.001 280.496 132.064 280.174 132.206 279.882C132.348 279.589 132.565 279.335 132.838 279.141V279.141ZM131.603 281.562V281.736C131.617 281.785 131.619 281.836 131.607 281.885C131.596 281.934 131.573 281.98 131.539 282.019C131.505 282.057 131.462 282.088 131.413 282.108C131.364 282.127 131.311 282.136 131.258 282.132V281.958C131.258 281.748 131.373 281.616 131.603 281.562ZM131.258 286.579H131.85V286.777C131.638 286.811 131.437 286.886 131.258 286.998H130.875C130.875 286.812 130.974 286.672 131.221 286.602L131.258 286.579ZM148.28 281.62C146.189 282.474 144.202 283.54 142.355 284.798C138.759 285.985 136.989 286.726 137.047 287.021C134.855 287.767 132.712 288.634 130.628 289.617C130.262 289.612 129.902 289.524 129.579 289.361C129.556 289.056 129.626 288.751 129.782 288.483C129.937 288.215 130.171 287.994 130.455 287.848C131.006 287.8 131.562 287.88 132.072 288.081C133.075 287.657 134.122 287.333 135.195 287.114V286.742L133.961 286.835C135.045 286.2 136.206 285.689 137.417 285.31H138.01V285.485C136.985 285.566 136.417 285.857 136.294 286.358C136.294 286.591 136.454 286.684 136.714 286.66C137.479 286.206 137.862 285.939 137.849 285.857C139.314 285.593 143.35 283.603 149.958 279.886V280.223C149.958 280.386 149.403 280.84 148.267 281.62H148.28ZM138.133 284.763C139.067 284.693 139.943 284.308 140.602 283.68C140.873 283.68 141.022 283.762 141.034 283.983C140.07 284.224 139.156 284.618 138.331 285.147H138.133V284.786V284.763ZM154.563 272.901L149.489 276.696C147.548 277.99 145.515 279.157 143.404 280.188C137.397 283.292 133.665 284.91 132.208 285.042H131.986C132.167 284.406 134.841 279.242 140.009 269.549C143.715 268.987 147.328 267.977 150.761 266.545L151.995 266.452C152.967 266.289 153.964 266.324 154.92 266.554C155.876 266.785 156.769 267.207 157.537 267.791L157.612 268.501C156.69 270.992 155.682 272.451 154.587 272.878L154.563 272.901ZM144.688 267.64L145.502 267.57V267.744L144.688 267.814V267.64ZM156.155 265.812H156.747C157.303 266.057 157.587 266.278 157.612 266.476V266.65C157.316 266.654 157.024 266.584 156.766 266.447C156.508 266.31 156.293 266.111 156.143 265.87L156.155 265.812ZM157.772 257.105C156.453 258.276 154.995 259.3 153.427 260.155C152.649 260.225 149.724 261.319 144.7 263.368C144.449 263.26 144.172 263.216 143.898 263.24V262.902C143.925 261.965 144.266 261.06 144.873 260.318C145.268 258.362 145.687 257.245 146.107 256.977L150.304 248.072C150.255 247.521 151.152 247.098 152.995 246.803H153.587V247.315C155.39 247.059 156.525 246.908 156.957 246.873C160.29 246.605 162.031 247.245 162.166 248.77H162.549L162.463 247.874L162.969 247.711C163.376 247.869 163.734 248.122 164.01 248.445C164.287 248.769 164.472 249.153 164.549 249.562C164.51 250.255 164.208 250.912 163.697 251.413C163.45 251.413 163.29 251.261 163.277 250.912H162.858L162.771 251.995C161.084 254.377 159.85 255.603 159.068 255.673C158.377 256.569 157.957 257.023 157.834 257.023L157.772 257.105ZM160.352 263.344C160.115 263.166 159.827 263.06 159.525 263.042V262.506H159.907L160.747 262.972C160.761 263.02 160.762 263.071 160.751 263.12C160.74 263.169 160.716 263.215 160.682 263.254C160.649 263.293 160.605 263.323 160.557 263.343C160.508 263.363 160.454 263.371 160.401 263.368L160.352 263.344ZM162.969 266.336C163.339 266.476 163.561 266.627 163.598 266.767H163.302L163.03 266.976L162.969 266.336ZM163.228 267.838V267.698L163.709 267.593V267.733L163.228 267.838ZM164.388 269.06C164.882 268.978 165.129 268.955 166.042 268.757V268.897L164.29 269.281C164.294 269.207 164.294 269.134 164.29 269.06H164.388ZM166.092 269.747C165.5 269.759 164.911 269.837 164.339 269.979V269.84L165.795 269.397L166.499 269.246L166.573 269.502C166.265 269.572 166.487 269.572 166.129 269.747H166.092ZM167.647 269.397C167.606 269.408 167.563 269.41 167.52 269.405C167.478 269.399 167.437 269.386 167.4 269.365C167.363 269.345 167.331 269.317 167.306 269.285C167.28 269.252 167.262 269.215 167.252 269.176L167.696 269.083C167.736 269.068 167.779 269.063 167.822 269.067C167.864 269.07 167.905 269.084 167.941 269.105C167.977 269.127 168.007 269.156 168.029 269.191C168.051 269.225 168.064 269.264 168.067 269.304L167.647 269.397V269.397ZM171.856 265.125V264.986L172.585 264.823L172.659 265.079H171.893L171.856 265.125ZM176.349 291.13C176.38 290.988 176.38 290.842 176.349 290.7H176.51C176.547 290.685 176.587 290.679 176.627 290.681C176.668 290.684 176.707 290.695 176.741 290.714C176.776 290.733 176.806 290.76 176.828 290.792C176.849 290.824 176.863 290.86 176.868 290.898V291.037L176.275 291.165L176.349 291.13ZM179.509 266.231H179.188C178.764 266.398 178.326 266.534 177.88 266.639L177.584 266.708C177.545 266.721 177.504 266.726 177.463 266.722C177.422 266.719 177.382 266.707 177.346 266.689C177.31 266.67 177.279 266.645 177.254 266.614C177.229 266.583 177.211 266.548 177.201 266.511L179.312 266.057L180.003 265.754L180.238 265.998C179.978 266.032 179.731 266.128 179.522 266.278L179.509 266.231ZM181.126 265.742V265.603C181.279 265.557 181.416 265.472 181.521 265.358L183.015 265.032V265.172C182.37 265.307 181.738 265.494 181.126 265.731V265.742ZM181.361 262.844C181.205 262.898 181.062 262.981 180.941 263.088C180.941 262.995 180.707 262.995 180.324 263.088C180.25 262.82 181.361 262.436 183.645 261.924L183.965 261.854L184.04 262.11C182.435 262.553 181.571 262.809 181.361 262.832V262.844ZM185.385 258.746C185.187 260.516 184.583 261.482 183.435 261.68V261.54L182.422 261.913L181.978 262.006C181.776 262.059 181.563 262.059 181.361 262.006L181.225 261.68C182.564 259.691 184.032 257.782 185.62 255.964H185.965C186.01 256.923 185.806 257.878 185.373 258.746H185.385ZM192.507 252.996H192.372V252.728H192.964V252.868C192.809 252.908 192.66 252.967 192.52 253.042L192.507 252.996ZM189.57 280.817C189.284 280.676 188.965 280.608 188.644 280.619V280.212C188.644 280.072 188.734 279.975 188.915 279.921C189.113 279.921 189.224 280.025 189.249 280.316C189.483 279.986 189.761 279.685 190.076 279.42L190.384 279.536C190.273 280.363 190.002 280.794 189.594 280.829L189.57 280.817ZM220.984 249.795C220.836 249.795 220.552 249.376 220.096 248.491V248.223C220.38 248.223 220.688 248.619 220.984 249.492V249.795V249.795ZM220.565 246.698L220.429 246.978L216.17 245.301C219.009 245.383 220.478 245.86 220.565 246.698V246.698ZM202.555 261.296H201.963V261.028H202.555V261.284V261.296ZM202.061 252.519H202.222V252.926C202.074 252.926 201.889 253.12 201.666 253.508V253.24C201.875 253.046 202.009 252.792 202.049 252.519H202.061ZM200.827 255.336V255.871H200.667V255.336H200.827ZM200.148 256.348H200.444C200.444 256.806 200.317 257.047 200.062 257.07H199.901C200.047 256.857 200.132 256.613 200.148 256.36V256.348ZM199.667 257.734H199.802V257.873L199.543 258.304H199.247V258.188C199.556 258.188 199.691 258.013 199.667 257.745V257.734ZM199.185 258.991L199.087 259.689H198.951V259.002H199.247L199.185 258.991ZM194.248 272.145C194.05 273.053 193.845 273.518 193.631 273.541V273.425C193.62 273.18 193.672 272.936 193.782 272.713C193.891 272.491 194.055 272.296 194.26 272.145H194.248ZM193.334 273.972V274.089C193.347 274.127 193.349 274.167 193.341 274.207C193.332 274.246 193.314 274.283 193.287 274.314C193.26 274.345 193.226 274.369 193.187 274.385C193.148 274.4 193.105 274.407 193.063 274.403V274.263C193.063 274.124 193.153 274.027 193.334 273.972V273.972ZM193.075 277.79H193.532V277.93C193.374 277.958 193.224 278.014 193.087 278.093H192.791C192.791 277.938 192.882 277.841 193.063 277.802L193.075 277.79ZM205.987 274.03C204.407 274.691 202.898 275.494 201.481 276.428C198.716 277.336 197.358 277.907 197.371 278.128C195.737 278.712 194.142 279.389 192.594 280.153C192.317 280.142 192.046 280.07 191.804 279.944C191.776 279.709 191.826 279.472 191.945 279.264C192.064 279.056 192.247 278.887 192.47 278.78C192.891 278.742 193.314 278.802 193.705 278.954C194.473 278.644 195.271 278.402 196.087 278.233V277.965L195.149 278.035C195.978 277.55 196.864 277.159 197.79 276.871H198.247V276.987C197.47 277.057 197.013 277.266 196.939 277.662C196.938 277.7 196.946 277.737 196.962 277.772C196.979 277.806 197.004 277.836 197.035 277.859C197.066 277.883 197.102 277.9 197.141 277.908C197.18 277.916 197.221 277.916 197.26 277.907C197.84 277.546 198.111 277.348 198.111 277.278C199.214 277.092 202.275 275.579 207.295 272.738V273.006C207.295 273.122 206.875 273.472 206.061 274.065L205.987 274.03ZM198.284 276.359C199.003 276.306 199.68 276.018 200.197 275.544C200.236 275.535 200.277 275.534 200.316 275.542C200.355 275.551 200.391 275.567 200.422 275.591C200.453 275.615 200.478 275.645 200.495 275.679C200.511 275.713 200.52 275.75 200.518 275.788C199.795 275.963 199.104 276.242 198.469 276.615H198.309V276.359H198.284ZM210.739 267.419L206.912 270.329C205.433 271.327 203.877 272.222 202.259 273.006C197.708 275.334 194.873 276.56 193.754 276.684H193.594C193.733 276.196 195.77 272.277 199.704 264.927C202.517 264.481 205.259 263.698 207.863 262.599L208.789 262.518C209.526 262.394 210.283 262.423 211.008 262.602C211.732 262.781 212.407 263.106 212.986 263.554V264.089C212.282 265.952 211.529 267.046 210.702 267.384L210.739 267.419ZM203.222 263.426H203.814V263.565H203.222V263.426ZM211.924 262.029H212.381C212.8 262.227 213.023 262.401 213.035 262.541V262.658C212.808 262.666 212.583 262.614 212.385 262.51C212.187 262.405 212.023 262.251 211.912 262.064L211.924 262.029ZM213.158 255.429C212.164 256.323 211.062 257.104 209.875 257.757C207.6 258.394 205.383 259.204 203.246 260.178C203.053 260.112 202.847 260.084 202.642 260.097V259.829C202.661 259.117 202.915 258.43 203.37 257.862C203.666 256.36 203.999 255.533 204.345 255.336L207.554 248.572C207.554 248.177 208.196 247.851 209.579 247.595H210.035V248.002C211.393 247.792 212.245 247.672 212.591 247.641C215.059 247.432 216.442 247.909 216.553 249.085H216.849V248.433H217.145C217.461 248.54 217.741 248.723 217.957 248.964C218.174 249.205 218.32 249.495 218.38 249.806C218.318 250.34 218.055 250.836 217.639 251.203C217.442 251.203 217.331 251.098 217.306 250.807H217.01L216.923 251.622C215.689 253.45 214.714 254.404 214.134 254.439C213.615 255.103 213.294 255.44 213.146 255.452L213.158 255.429ZM214.504 259.945V259.538H214.8L215.442 259.91C215.447 259.947 215.444 259.984 215.433 260.019C215.422 260.054 215.403 260.087 215.377 260.114C215.351 260.142 215.319 260.164 215.284 260.179C215.248 260.194 215.209 260.202 215.17 260.201C214.988 260.07 214.77 259.989 214.541 259.969L214.504 259.945ZM160.944 286.276L160.648 286.346L160.389 286.556C160.393 286.593 160.407 286.63 160.429 286.662C160.451 286.693 160.481 286.72 160.515 286.739C160.55 286.758 160.589 286.77 160.629 286.772C160.669 286.775 160.71 286.768 160.747 286.754C160.944 286.754 161.018 286.602 160.981 286.428V286.288L160.944 286.276ZM159.809 284.134V284.274C160.006 284.274 160.08 284.123 160.043 283.948V283.809C160.004 283.812 159.965 283.824 159.931 283.843C159.897 283.862 159.867 283.888 159.845 283.92C159.823 283.951 159.808 283.986 159.801 284.023C159.795 284.06 159.798 284.098 159.809 284.134ZM167.906 265.975L168.252 265.894L168.178 265.614L167.832 265.696L167.906 265.975ZM272.273 274.24C270.752 274.639 269.185 274.862 267.607 274.903V275.171H268.1L268.483 275.031C271.939 274.671 272.347 274.799 272.31 274.438V274.31L272.273 274.24ZM253.448 276.568V276.836V276.568ZM251.288 269.421L250.98 269.328C250.806 269.7 250.681 270.091 250.609 270.492V270.608C250.856 270.608 251.066 270.212 251.276 269.444L251.288 269.421ZM272.989 274.158V274.426L273.495 274.508V274.24L272.989 274.158ZM249.177 276.929L248.4 276.847L248.264 277.127V277.266L252.918 276.894V276.626L249.215 276.929H249.177ZM247.067 267.314V267.174H246.906L246.622 267.349L246.783 267.605C247.005 267.605 247.104 267.488 247.079 267.302L247.067 267.314ZM275.186 272.156H275.408C275.531 272.156 275.593 272.051 275.581 271.877L275.457 271.621C274.828 271.617 274.207 271.766 273.655 272.051V271.923L272.705 272.005C272.705 271.737 272.606 271.598 272.47 271.609H271.976C271.396 271.609 271.125 271.609 270.841 271.842C270.841 271.749 270.841 271.702 270.742 271.702H270.187L269.866 271.877C269.866 271.784 269.866 271.737 269.767 271.737L269.569 271.9V271.76H268.619V272.028L269.014 272.121H269.384C269.511 272.191 269.658 272.22 269.804 272.203L270.125 272.051V272.156C269.126 272.401 268.112 272.584 267.088 272.703C267.002 272.634 266.893 272.593 266.78 272.587C266.747 272.585 266.715 272.578 266.686 272.565C266.657 272.552 266.63 272.533 266.609 272.511C266.587 272.488 266.57 272.461 266.559 272.433C266.548 272.404 266.543 272.373 266.545 272.343L267.187 272.261C267.329 272.303 267.473 272.338 267.619 272.366C268.137 272.121 268.162 272.028 268.434 272.005V271.737C267.35 271.925 266.252 272.023 265.15 272.028H265.052V271.76C267.903 271.435 266.952 271.621 267.928 271.365C267.928 271.458 267.928 271.504 268.026 271.504C268.132 271.402 268.271 271.336 268.421 271.318H268.619C269.738 271.35 270.855 271.213 271.927 270.911V271.027L272.248 270.876H272.544C272.544 270.608 272.964 270.561 273.112 270.55V270.259C269.643 270.922 268.73 270.736 267.767 270.992V270.876C267.363 270.964 266.947 270.995 266.533 270.969C266.422 271 266.324 271.061 266.249 271.144C266.249 271.05 266.249 271.004 266.138 271.004L263.188 271.458C263.188 271.376 263.188 271.341 263.077 271.353C262.047 271.637 260.987 271.817 259.917 271.889C259.779 271.912 259.648 271.964 259.534 272.04C259.534 271.958 259.534 271.923 259.373 271.935L258.139 272.028L257.3 272.226C257.3 272.145 257.3 272.11 257.139 272.121C256.736 272.231 256.323 272.305 255.905 272.343C255.695 272.343 256.004 272.343 255.905 272.226L255.646 272.366H254.214C251.992 272.622 252.239 272.657 251.992 272.668H251.165C251.169 272.685 251.169 272.702 251.164 272.719C251.16 272.735 251.151 272.751 251.139 272.763C251.127 272.776 251.112 272.785 251.095 272.791C251.078 272.797 251.059 272.799 251.041 272.796C250.103 272.68 249.61 272.54 249.61 272.377C249.733 271.532 249.951 271.097 250.264 271.074H250.424L250.288 271.353H250.449C250.745 271.202 250.881 271.062 250.869 270.934V270.643H250.572V270.375C250.545 270.189 250.575 269.999 250.659 269.828L251.338 268.792V269.06H251.659V268.792L251.473 268.548C251.632 268.395 251.833 268.286 252.054 268.233V268.094H251.622V267.686C252.178 266.748 252.593 265.741 252.856 264.695L253.165 264.811C253.362 264.811 253.448 264.695 253.436 264.497H253.14V264.38C253.119 264.184 253.157 263.986 253.251 263.81C253.462 263.632 253.629 263.413 253.74 263.167C253.851 262.922 253.903 262.656 253.893 262.39C253.979 262.39 254.029 262.39 254.041 262.518C254.448 262.297 254.757 261.726 254.979 260.772C256.093 258.424 257.029 256.004 257.781 253.531C260.25 247.106 260.25 246.43 260.558 244.906H260.262C260.285 245.098 260.246 245.293 260.151 245.464C260 245.399 259.836 245.364 259.67 245.36V245.243C259.682 244.52 259.947 243.82 260.423 243.253H260.484L260.744 244.184H261.04C261.089 243.791 261.168 243.402 261.274 243.02C261.274 242.88 261.151 242.787 260.916 242.775L260.632 242.95V241.437H260.484C260.285 241.287 260.146 241.077 260.089 240.843L258.448 240.994C258.417 240.826 258.354 240.664 258.262 240.517C258.262 240.377 258.62 240.238 259.373 240.098L259.707 240.214L260.015 240.04C260.015 240.133 260.089 240.179 260.2 240.168L260.509 239.993C260.509 240.086 260.583 240.133 260.694 240.121H260.842V239.807H259.04L258.732 240.005V239.795C251.013 240.393 246.631 240.738 245.585 240.831H243.956C243.956 240.948 243.857 241.018 243.623 241.041L243.29 240.901L242.166 241.169C241.723 241.206 241.277 241.206 240.833 241.169C240.653 241.304 240.433 241.385 240.204 241.402L243.499 241.204C243.262 241.356 242.984 241.441 242.697 241.448C242.473 241.477 242.244 241.44 242.043 241.344C241.234 241.578 240.409 241.761 239.574 241.891L239.241 241.774L233.859 242.554C233.631 242.456 233.379 242.42 233.131 242.449C232.646 242.509 232.167 242.607 231.699 242.74L229.094 243.765L229.292 244.067C229.481 244.036 229.661 243.968 229.822 243.87L230.748 243.951L230.637 244.766C230.272 244.888 229.945 245.095 229.686 245.368C229.427 245.64 229.245 245.97 229.156 246.326C227.922 246.861 227.243 247.234 227.243 247.49V247.629H227.44L227.786 247.455L228.193 247.909V248.537C228.193 248.731 226.049 253 221.762 261.342C218.059 269.374 216.084 273.763 215.899 274.554C214.664 274.892 213.887 275.381 213.665 276.033C213.665 276.242 214.072 276.382 214.8 276.428V276.743L214.467 277.266V277.895C214.467 278.221 215.397 278.469 217.257 278.64C217.257 278.535 217.257 278.465 217.429 278.454C217.417 279.24 217.301 280.022 217.084 280.782H217.281C217.935 280.18 218.367 279.397 218.516 278.547H218.676C218.861 278.547 219.059 278.733 219.281 279.152C219.051 279.238 218.228 280.964 216.812 284.332L217.01 284.635H217.281C218.968 280.6 220.03 278.368 220.466 277.942C222.688 277.755 226.527 277.367 231.983 276.778L232.328 276.58C232.327 276.604 232.332 276.629 232.343 276.651C232.354 276.673 232.37 276.692 232.391 276.707C232.412 276.722 232.436 276.732 232.461 276.736C232.487 276.74 232.513 276.739 232.538 276.731H232.896L233.242 276.533C233.24 276.558 233.245 276.582 233.256 276.604C233.267 276.626 233.284 276.646 233.305 276.661C233.325 276.676 233.349 276.686 233.375 276.69C233.401 276.694 233.427 276.692 233.452 276.684L237.587 276.347C238.685 276.265 239.191 275.951 239.154 275.416C239.154 275.276 239.784 275.113 241.092 274.938C241.286 274.936 241.479 274.968 241.66 275.031C241.66 274.938 242.302 274.834 243.61 274.729C243.61 274.077 243.87 273.728 244.252 273.693V273.379C243.832 273.424 243.418 273.514 243.018 273.646C242.465 273.64 241.915 273.577 241.376 273.46C241.214 273.557 241.034 273.624 240.845 273.658L237.969 273.739L237.624 273.914C237.624 273.813 237.554 273.77 237.414 273.786H237.253L236.883 273.961C236.883 273.867 236.575 273.786 235.97 273.716L235.599 273.926H234.883V273.751C238.587 273.371 240.413 272.897 240.364 272.331C240.413 272.32 240.464 272.32 240.513 272.331C240.562 272.342 240.607 272.363 240.646 272.394C240.684 272.424 240.714 272.463 240.734 272.507C240.754 272.55 240.762 272.598 240.759 272.645L241.845 272.389V272.075L232.982 272.308C232.982 272.412 232.982 272.482 232.81 272.494L231.723 272.412C231.474 272.426 231.234 272.507 231.032 272.645L230.625 272.505C229.79 272.554 228.963 272.683 228.156 272.89C227.334 272.829 226.509 272.829 225.687 272.89L223.7 273.053L222.774 272.959C222.774 272.401 223.873 269.688 226.218 264.811C226.565 263.651 227.22 262.594 228.119 261.738C228.316 261.74 228.51 261.784 228.687 261.866L230.106 261.412L230.835 261.517C232.294 261.366 233.726 261.033 235.093 260.527C235.404 260.485 235.722 260.513 236.019 260.609L237.105 260.364L240.327 260.108C241.845 259.972 243.343 259.684 244.795 259.247V258.933C244.203 258.933 243.882 258.933 243.87 258.665C243.87 258.246 243.401 258.071 242.561 258.129V257.815L243.45 257.571L245.771 257.384V257.07H244.339V256.732L245.24 256.651C245.487 256.651 245.585 256.523 245.561 256.302C244.326 256.302 243.746 256.302 243.734 256.127C235.315 256.515 231.094 256.589 231.069 256.348C230.878 256.387 230.698 256.463 230.538 256.569L230.316 256.244C232.546 251.774 233.855 249.523 234.242 249.492C234.219 249.789 234.121 250.076 233.958 250.33V250.47H234.316C235.204 248.479 235.945 247.443 236.575 247.397C239.216 247.175 236.204 247.013 241.87 246.233C242.025 246.313 242.199 246.357 242.376 246.361C244.598 245.942 247.692 245.499 251.659 245.034V244.719L249.548 244.906V244.591C249.778 244.575 249.997 244.494 250.177 244.358V244.533C250.353 244.493 250.517 244.418 250.659 244.312C250.942 244.267 251.233 244.299 251.498 244.405C252.077 244.252 252.667 244.139 253.263 244.067L254.584 243.951C254.905 243.753 255.053 243.579 255.041 243.416V243.276C254.652 243.304 254.262 243.28 253.88 243.206C253.875 243.165 253.879 243.123 253.891 243.083C253.903 243.043 253.924 243.006 253.951 242.973C253.979 242.941 254.013 242.914 254.052 242.894C254.09 242.874 254.133 242.861 254.177 242.857L256.645 242.636L257.769 242.368C257.769 242.484 257.843 242.531 257.929 242.531C258.105 242.491 258.269 242.416 258.411 242.31H258.596C258.396 242.72 258.231 243.144 258.102 243.579H257.781C257.764 243.382 257.701 243.191 257.596 243.02H257.435C254.448 250.877 253.115 254.532 250.35 260.562C249.844 262.099 249.424 262.96 249.054 263.146C249.053 263.184 249.061 263.221 249.078 263.256C249.094 263.29 249.119 263.32 249.15 263.344C249.181 263.367 249.218 263.384 249.257 263.392C249.296 263.4 249.336 263.4 249.375 263.391C249.439 264.177 249.24 264.963 248.807 265.638C247.573 269.13 246.684 271.004 246.24 271.353L246.524 272.994C246.529 273.031 246.526 273.068 246.515 273.103C246.503 273.138 246.484 273.171 246.458 273.198C246.433 273.226 246.401 273.248 246.365 273.263C246.33 273.278 246.291 273.286 246.252 273.285H245.956C245.956 272.831 245.734 272.61 245.425 272.645H245.265C244.85 273.26 244.55 273.937 244.376 274.647H244.672C244.844 274.567 244.987 274.442 245.085 274.288C245.184 274.133 245.233 273.955 245.227 273.774H245.82L246.166 273.891C245.933 274.176 245.799 274.521 245.783 274.88L245.943 275.136L245.548 276.009V276.149C245.948 276.134 246.341 276.24 246.672 276.452C247.002 276.408 247.316 276.288 247.585 276.102H251.436L252.547 275.742C253.343 275.745 254.138 275.714 254.93 275.648H255.411L255.67 275.485V275.625C256.449 275.518 257.24 275.525 258.016 275.648V275.788H257.337V276.056C257.535 276.044 257.724 275.975 257.88 275.858C258.053 275.858 258.151 275.939 258.164 276.126C257.848 276.157 257.537 276.224 257.238 276.324L256.942 276.23C256.473 276.347 256.571 276.382 256.25 276.405L255.781 276.324C255.785 276.339 255.785 276.355 255.781 276.371C255.777 276.386 255.77 276.401 255.759 276.413C255.748 276.426 255.735 276.435 255.719 276.442C255.704 276.449 255.687 276.452 255.67 276.452C255.668 276.486 255.674 276.521 255.688 276.553C255.702 276.586 255.723 276.614 255.75 276.638C255.777 276.661 255.81 276.679 255.845 276.689C255.881 276.699 255.918 276.701 255.954 276.696H256.436L258.904 276.487L259.855 276.289C259.855 276.37 259.855 276.405 259.978 276.393L260.435 276.23L261.299 276.161C261.966 276.161 261.953 276.068 263.397 275.846C263.397 275.765 263.397 275.73 263.484 275.718V275.835C264.458 275.723 265.424 275.548 266.372 275.311V275.381C266.965 275.253 266.632 275.288 266.792 275.171C266.792 275.264 266.792 275.311 266.891 275.311H267.31V275.02H266.274C265.964 275.074 265.65 275.098 265.335 275.09L263.225 275.194V275.055L264.459 274.903H264.879L265.126 274.74V274.88C266.78 274.752 267.372 275.136 275.001 273.6C275.42 273.6 275.383 273.239 275.642 272.564C275.501 272.575 275.359 272.547 275.235 272.482C274.518 272.646 273.787 272.748 273.05 272.785C272.952 272.785 272.865 272.703 272.828 272.54V272.424H274.062C274.5 272.38 274.922 272.245 275.297 272.028C275.297 272.121 275.062 272.18 275.21 272.168L275.186 272.156ZM218.516 273.053H217.972C218.153 272.245 218.444 271.462 218.837 270.724H219.195C219.082 271.526 218.853 272.309 218.516 273.053V273.053ZM219.17 270.585V270.445C219.17 270.27 219.269 270.154 219.528 270.096V270.236C219.528 270.445 219.429 270.561 219.17 270.585ZM226.354 275.823V275.963L225.453 276.044V275.905L226.354 275.823ZM225.268 275.742C225.268 275.916 225.008 276.114 224.404 276.3L223.305 276.219H222.947V275.905L225.305 275.695L225.268 275.742ZM232.587 244.219H232.094V244.044C232.094 243.87 232.18 243.753 232.415 243.695H232.612L232.982 243.835C232.99 243.879 232.987 243.925 232.973 243.968C232.96 244.011 232.936 244.051 232.904 244.084C232.872 244.117 232.833 244.144 232.789 244.161C232.744 244.178 232.697 244.186 232.649 244.184L232.587 244.219ZM240.808 242.705H240.981V243.02H240.487C240.482 242.978 240.486 242.937 240.498 242.897C240.51 242.857 240.531 242.819 240.558 242.787C240.586 242.754 240.62 242.727 240.659 242.707C240.697 242.687 240.74 242.675 240.784 242.671L240.808 242.705ZM238.735 243.392L237.92 243.311V243.055C238.629 243.01 239.329 242.885 240.006 242.682C240.006 242.799 240.13 242.845 240.339 242.822V243.136H240.018C239.794 243.165 239.566 243.128 239.364 243.031C239.176 243.152 238.96 243.228 238.735 243.253V243.392ZM239.759 246.198V246.058L241.08 245.942V246.081L239.759 246.198ZM241.179 245.115V244.94H241.821V245.115H241.179ZM241.327 242.985H241.154L241.302 242.647L242.771 242.519V242.694C242.278 242.748 241.791 242.842 241.315 242.973L241.327 242.985ZM242.08 245.976V245.662H242.722C242.944 245.662 243.059 245.759 243.067 245.953L242.105 246.035L242.08 245.976ZM245.98 240.971L245.153 241.192H245.005C244.508 241.234 244.009 241.234 243.512 241.192C244.586 241.122 245.61 241.053 245.98 240.994V240.971ZM245.092 244.463V244.603L243.956 244.696V244.556L245.092 244.463ZM246.956 245.301C246.956 245.173 246.721 245.08 246.277 245.045L245.141 245.348H244.265C244.067 245.22 243.968 245.127 243.956 245.069H244.968L247.24 244.719H248.4V244.894C247.905 244.934 247.416 245.028 246.943 245.173L246.956 245.301ZM258.67 242.449H258.929C259.323 242.08 259.788 241.783 260.299 241.576C260.046 242.992 259.374 244.311 258.361 245.383L257.719 245.01C258.099 244.171 258.416 243.307 258.67 242.426V242.449ZM256.695 245.651H256.855C256.633 246.046 256.436 246.244 256.275 246.256V245.848C256.437 245.822 256.59 245.758 256.72 245.662L256.695 245.651ZM255.46 248.526C255.559 247.795 255.866 247.103 256.349 246.524V246.547C256.189 247.629 255.93 248.211 255.596 248.246V248.933C255.37 249.178 255.232 249.483 255.201 249.806H255.041L254.954 248.863C255.14 248.863 255.288 248.689 255.386 248.409L255.46 248.526ZM254.967 250.086C254.919 250.487 254.807 250.88 254.633 251.25H254.473V250.842C254.695 250.365 254.88 250.121 255.004 250.121L254.967 250.086ZM245.672 275.416V275.299H245.968V275.707C245.808 275.707 245.697 275.625 245.647 275.439L245.672 275.416ZM258.929 275.742C258.929 275.648 258.929 275.602 258.769 275.614L258.016 275.648V275.532L259.781 275.392V275.532C259.457 275.509 259.133 275.582 258.855 275.742H258.929ZM258.04 275.392C258.114 275.392 258.04 275.462 258.04 275.474C258.04 275.485 257.954 275.474 258.04 275.392ZM258.127 273.437L257.139 273.518V273.32H258.016L258.793 273.134C258.793 273.216 258.793 273.25 258.954 273.239C259.88 273.088 259.793 273.041 260.188 273.006C260.336 273.006 260.435 273.088 260.447 273.25L258.065 273.448L258.127 273.437ZM261.583 273.157C261.262 273.096 260.935 273.072 260.608 273.088V272.971L261.497 272.89V273.006C261.41 273.006 261.743 273.006 261.583 273.146V273.157ZM261.657 273.006V272.89H262.138V273.006H261.657ZM262.731 272.925V272.808C262.859 272.776 262.978 272.717 263.077 272.634C263.124 272.627 263.172 272.63 263.218 272.642C263.264 272.654 263.307 272.675 263.345 272.703C263.382 272.732 263.412 272.767 263.434 272.807C263.456 272.847 263.469 272.891 263.472 272.936L262.731 272.925ZM264.101 272.762V272.622H264.694V272.762H264.101ZM264.916 272.692C264.916 272.529 264.916 272.436 265.126 272.412L265.323 272.657C265.319 272.643 265.319 272.629 265.321 272.615C265.324 272.601 265.329 272.587 265.337 272.575C265.345 272.563 265.356 272.553 265.368 272.545C265.381 272.537 265.395 272.531 265.41 272.529L265.558 272.785L264.916 272.703V272.692ZM256.275 276.184V275.916H256.189V276.184H256.275ZM276.482 271.248C276.568 271.248 276.618 271.144 276.395 271.109C276.173 271.074 276.507 271.248 276.284 271.26V271.353L276.408 271.272L276.284 271.365L276.037 271.656L276.519 271.493V271.225L276.482 271.248ZM277.321 271.865H277.235V272.133H277.914C277.914 271.958 277.457 271.9 277.309 271.9L277.321 271.865Z" fill="black"/>
<path d="M232.094 251.354V251.529H232.476C232.48 251.357 232.518 251.187 232.587 251.029V250.714C232.427 250.714 232.267 250.959 232.118 251.389L232.094 251.354ZM228.391 243.055V242.74H227.847V243.055H228.391ZM217.874 261.68C217.079 260.397 216.103 259.222 214.973 258.187C214.973 257.815 215.59 257.268 216.936 256.535L220.787 253.531C221.803 252.035 222.331 250.291 222.305 248.514V247.979C222.157 246.372 220.923 245.08 218.602 244.091C217.22 243.214 214.751 242.729 211.196 242.636C207.196 243.129 203.288 244.14 199.58 245.639C198.14 246.605 196.644 247.495 195.1 248.305V248.572C195.261 248.543 195.413 248.479 195.544 248.386C195.583 248.377 195.623 248.377 195.662 248.385C195.701 248.393 195.738 248.41 195.769 248.433C195.8 248.457 195.825 248.487 195.841 248.521C195.858 248.556 195.866 248.593 195.865 248.631L196.149 248.491H196.285V248.607C195.356 249.504 194.311 250.286 193.174 250.935L193.334 251.215H193.199L192.853 251.098C192.853 251.191 192.717 251.261 192.433 251.285V251.401L192.767 251.797C192.6 251.793 192.436 251.757 192.285 251.692C191.73 251.765 191.221 252.026 190.853 252.425L191.051 251.622C191.685 249.129 192.163 246.602 192.483 244.056V243.916C191.95 243.583 191.479 243.17 191.088 242.694C191.101 242.504 191.101 242.313 191.088 242.123V242.007H190.952C189.43 244.157 186.504 247.823 182.176 253.007C178.884 256.694 177.181 258.742 177.065 259.154C175.72 260.469 175.078 261.261 175.14 261.482C174.782 261.703 174.634 261.912 174.695 262.157C174.675 262.164 174.653 262.167 174.632 262.165C174.61 262.164 174.59 262.158 174.571 262.148C174.552 262.138 174.536 262.124 174.523 262.108C174.51 262.091 174.502 262.072 174.498 262.052C174.216 262.485 173.843 262.858 173.401 263.149C172.959 263.439 172.458 263.64 171.93 263.74L170.696 263.996C170.657 264.002 170.62 264.015 170.587 264.034C170.553 264.054 170.525 264.08 170.503 264.111C170.481 264.141 170.466 264.176 170.459 264.212C170.451 264.249 170.452 264.286 170.461 264.322V264.462L170.906 264.369V264.485L169.894 264.858L168.104 265.253H167.166C167.03 265.381 167.919 265.253 167.573 265.323L166.339 265.579C165.623 265.731 165.24 265.672 165.104 265.405H164.968C164.991 265.497 164.991 265.592 164.968 265.684L164.894 265.416L163.956 265.626C163.89 265.215 162.619 263.717 160.142 261.133C160.142 260.632 160.969 259.91 162.759 258.967L167.906 254.858C169.034 253.492 169.704 251.3 169.918 248.281L169.844 247.571C169.647 245.441 168.017 243.73 164.907 242.403C163.092 241.239 159.821 240.622 155.106 240.529C149.857 241.185 144.725 242.505 139.849 244.452C137.957 245.725 135.987 246.891 133.949 247.944V248.316C134.16 248.282 134.362 248.207 134.541 248.095C134.59 248.083 134.642 248.081 134.692 248.09C134.742 248.1 134.789 248.12 134.83 248.149C134.871 248.178 134.903 248.216 134.926 248.259C134.949 248.302 134.961 248.35 134.961 248.398L135.356 248.188H135.553V248.363C134.305 249.516 132.922 250.531 131.43 251.389L131.653 251.715H131.48L131.06 251.576C131.06 251.68 130.875 251.762 130.468 251.797V251.995L130.924 252.472C130.713 252.47 130.503 252.431 130.307 252.356C129.755 252.464 129.234 252.683 128.781 252.998C128.327 253.314 127.951 253.718 127.678 254.183L127.9 254.509C128.285 254.121 128.73 253.792 129.221 253.531V254.067C129.012 254.108 128.811 254.183 128.628 254.288L129.097 254.963C129.99 254.072 130.998 253.29 132.097 252.635C132.64 252.763 132.924 252.926 132.936 253.101H133.356C136.026 251.177 139 249.661 142.17 248.607V248.98C141.626 249.756 141.26 250.144 141.071 250.144C141.084 250.396 141.184 250.637 141.355 250.831C141.404 251.296 140.083 254.439 137.392 260.26C131.402 273.724 126.316 283.692 122.136 290.164C122.174 290.354 122.259 290.534 122.382 290.688C123.072 290.582 123.731 290.344 124.32 289.99H124.543V290.362H124.925L125.32 290.153C125.32 290.257 125.456 290.316 125.728 290.292V290.665C125.677 291.261 125.455 291.832 125.086 292.318C124.467 293.166 124.016 294.112 123.753 295.112V295.286H124.135C125.639 293.747 126.91 292.019 127.912 290.153C131.744 289.189 135.465 287.871 139.022 286.218C141.132 286.163 143.173 285.501 144.873 284.321V284.123L143.91 284.391H143.688V284.193C145.072 284.103 146.413 283.704 147.601 283.029C151.271 280.359 154.044 278.469 155.92 277.36C159.772 274.69 162.273 272.09 163.425 269.56L164.067 269.421C164.376 269.437 164.685 269.437 164.993 269.421C164.993 269.328 164.993 269.269 165.117 269.246C165.981 269.165 165.561 269.246 166.116 269.176L167.524 268.664H167.77L167.659 268.734C167.835 268.766 168.015 268.766 168.19 268.734L168.289 269.13L161.734 278.966L160.278 280.689L159.562 282.947H159.698L160.414 282.668L160.179 283.541L160.253 283.797L160.451 284.03C160.364 284.03 160.327 284.111 160.352 284.204V284.344L160.648 284.274C161.084 283.917 161.269 283.591 161.204 283.296C161.51 283.371 161.827 283.394 162.142 283.366V283.506C161.858 283.576 161.71 283.785 161.685 284.158V284.297H161.845C164.24 281.83 170.103 273.413 174.806 267.686C174.658 267.065 177.127 266.204 182.213 265.102H182.373C182.554 265.878 182.143 267.69 181.139 270.538C180.775 271.438 180.506 272.37 180.336 273.32C179.84 274.535 179.46 275.79 179.201 277.069L177.399 282.633C176.219 285.541 175.326 288.545 174.732 291.608C174.895 291.576 175.063 291.576 175.226 291.608L175.485 291.398C175.489 291.418 175.498 291.437 175.511 291.454C175.523 291.47 175.539 291.484 175.558 291.494C175.577 291.504 175.598 291.51 175.619 291.511C175.641 291.513 175.663 291.51 175.683 291.503L175.584 291.107H176.362C176.596 291.107 176.781 290.781 176.954 290.281C176.954 289.536 177.078 289.117 177.436 289.047C177.618 288.117 177.916 287.21 178.324 286.346C178.514 285.3 178.85 284.282 179.324 283.32C180.003 280.991 180.559 279.827 180.818 279.758L180.892 280.037L180.398 281.201C179.757 284.119 178.882 286.987 177.781 289.78L178.04 290.816H178.201C180.341 286.478 183.418 277.887 187.434 265.044C187.478 264.51 187.657 263.994 187.956 263.538C188.254 263.083 188.663 262.701 189.15 262.425L188.915 262.192V262.075C189.292 262.021 189.634 261.839 189.878 261.563C189.878 261.47 189.458 261.319 188.644 261.133L190.643 252.984C190.864 252.76 191.123 252.571 191.409 252.425V252.833C191.247 252.862 191.095 252.926 190.964 253.019L191.359 253.531C192.031 252.838 192.79 252.225 193.618 251.704C194.038 251.808 194.235 251.948 194.26 252.076H194.556C196.582 250.63 198.835 249.491 201.234 248.7V248.968C200.831 249.542 200.555 249.833 200.407 249.841C200.424 250.027 200.487 250.207 200.593 250.365C199.8 252.824 198.805 255.222 197.618 257.536C194.272 265.354 190.392 272.96 186.002 280.305C186.04 280.45 186.112 280.585 186.212 280.7C186.728 280.62 187.22 280.438 187.656 280.165H187.792V280.433H188.113L188.397 280.293C188.397 280.371 188.5 280.402 188.705 280.386V280.677C188.663 281.123 188.492 281.55 188.212 281.911C187.722 282.548 187.366 283.267 187.162 284.03V284.169H187.459C188.6 283.001 189.564 281.689 190.322 280.27C193.235 279.519 196.063 278.501 198.766 277.232C200.376 277.192 201.936 276.688 203.234 275.788V275.648L202.481 275.858H202.345V275.718C203.394 275.646 204.41 275.339 205.308 274.822C208.085 272.808 210.245 271.33 211.628 270.515C216.047 267.5 218.121 264.543 217.874 261.68ZM217.108 261.866L217.207 262.96C217.071 263.228 216.923 263.368 216.787 263.379L216.615 261.517C216.936 261.621 217.096 261.738 217.108 261.866V261.866ZM130.023 253.089H129.826V252.751L130.616 252.681V252.856C130.408 252.891 130.211 252.967 130.036 253.077L130.023 253.089ZM126.147 289.617C125.765 289.436 125.34 289.352 124.913 289.373V288.837C124.913 288.628 125.012 288.488 125.296 288.441C125.58 288.395 125.703 288.593 125.715 288.942C126.04 288.521 126.408 288.131 126.814 287.778L127.234 287.941C127.098 289.024 126.74 289.582 126.172 289.617H126.147ZM167.561 248.759C167.363 248.759 166.968 248.2 166.413 247.071V246.733C166.783 246.733 167.166 247.269 167.561 248.421V248.759ZM167.005 244.708L166.845 245.069L161.216 242.857C164.968 242.973 166.898 243.59 167.005 244.708V244.708ZM143.219 264.008L142.429 264.078V263.74L143.219 263.67V264.008ZM142.577 252.46H142.774V252.996C142.589 252.996 142.355 253.264 142.046 253.764V253.392C142.404 252.996 142.589 252.681 142.565 252.472L142.577 252.46ZM140.91 256.174L140.985 256.884H140.787L140.75 256.15L140.91 256.174ZM140.034 257.501H140.417C140.417 258.083 140.207 258.397 139.898 258.42H139.701C139.9 258.157 140.016 257.847 140.034 257.524V257.501ZM139.417 259.352H139.639V259.526L139.281 260.085H138.898V259.91C138.976 259.916 139.053 259.904 139.125 259.876C139.197 259.848 139.261 259.805 139.311 259.749C139.361 259.694 139.397 259.628 139.416 259.556C139.434 259.485 139.435 259.411 139.417 259.34V259.352ZM138.775 261.016L138.664 261.901H138.466L138.38 261.028H138.775V261.016ZM132.319 278.268C132.06 279.432 131.788 280.095 131.505 280.118V279.944C131.484 279.622 131.549 279.3 131.693 279.007C131.838 278.714 132.057 278.46 132.332 278.268H132.319ZM131.085 280.689V280.863C131.099 280.912 131.1 280.963 131.089 281.012C131.078 281.061 131.054 281.107 131.02 281.146C130.987 281.184 130.943 281.215 130.894 281.235C130.846 281.254 130.792 281.263 130.739 281.259V281.085C130.739 280.875 130.854 280.743 131.085 280.689ZM130.739 285.706H131.332V285.904C131.12 285.938 130.918 286.013 130.739 286.125H130.357C130.357 285.939 130.455 285.799 130.702 285.729L130.739 285.706ZM147.761 280.747C145.67 281.601 143.684 282.667 141.836 283.925C138.24 285.12 136.458 285.853 136.491 286.125C134.31 286.898 132.179 287.792 130.11 288.802C129.743 288.797 129.384 288.709 129.06 288.546C129.037 288.241 129.108 287.937 129.263 287.668C129.418 287.4 129.652 287.179 129.937 287.033C130.49 286.992 131.045 287.08 131.554 287.289C132.556 286.865 133.603 286.542 134.677 286.323V285.95L133.442 286.044C134.527 285.409 135.687 284.897 136.899 284.519H137.491V284.693C136.467 284.775 135.899 285.066 135.775 285.566C135.775 285.799 135.936 285.892 136.195 285.869C136.96 285.415 137.343 285.147 137.331 285.066C138.787 284.802 142.824 282.811 149.44 279.094V279.432C149.44 279.595 148.885 280.049 147.749 280.829L147.761 280.747ZM137.615 283.89C138.548 283.819 139.424 283.435 140.083 282.807C140.355 282.807 140.503 282.889 140.515 283.11C139.551 283.352 138.637 283.745 137.812 284.274H137.615V283.913V283.89ZM154.044 272.04L148.971 275.835C147.029 277.134 144.991 278.301 142.873 279.327C136.866 282.431 133.134 284.049 131.677 284.181H131.455C131.636 283.545 134.311 278.38 139.479 268.687C143.184 268.125 146.798 267.116 150.23 265.684L151.464 265.591C152.436 265.427 153.433 265.462 154.39 265.693C155.346 265.924 156.238 266.346 157.007 266.93L157.081 267.64C156.167 270.119 155.155 271.574 154.069 272.005L154.044 272.04ZM144.169 266.778L144.984 266.708V266.883L144.169 266.953V266.778ZM155.562 264.951H156.155C156.71 265.195 156.994 265.416 157.019 265.614V265.789C156.719 265.785 156.426 265.705 156.169 265.557C155.913 265.41 155.704 265.2 155.562 264.951ZM157.18 256.244C155.861 257.415 154.403 258.438 152.835 259.293C152.057 259.363 149.131 260.457 144.107 262.506C143.856 262.399 143.58 262.355 143.305 262.378V262.041C143.332 261.104 143.674 260.199 144.28 259.456C144.675 257.501 145.095 256.383 145.515 256.115L149.712 247.21C149.662 246.659 150.559 246.236 152.402 245.942H152.995V246.454C154.797 246.198 155.933 246.046 156.365 246.011C159.698 245.744 161.438 246.384 161.574 247.909H161.957L161.87 247.012H162.29C162.697 247.171 163.055 247.423 163.332 247.747C163.608 248.07 163.793 248.454 163.87 248.863C163.831 249.557 163.529 250.214 163.018 250.714C162.759 250.714 162.611 250.563 162.598 250.214H162.179L162.092 251.296C160.405 253.679 159.171 254.905 158.389 254.975C157.698 255.871 157.278 256.325 157.155 256.325L157.18 256.244ZM159.759 262.483C159.523 262.305 159.234 262.199 158.932 262.18V261.645H159.315L160.154 262.11C160.168 262.159 160.17 262.21 160.159 262.259C160.147 262.308 160.124 262.354 160.09 262.392C160.056 262.431 160.013 262.462 159.964 262.482C159.915 262.501 159.862 262.51 159.809 262.506L159.759 262.483ZM162.426 265.463C162.796 265.603 163.018 265.754 163.055 265.894H162.759L162.487 266.103L162.413 265.381L162.426 265.463ZM162.672 266.965V266.825L163.154 266.72V266.86L162.672 266.965ZM163.833 268.187C164.327 268.105 164.573 268.082 165.487 267.884V268.024L163.734 268.408C163.738 268.334 163.738 268.26 163.734 268.187H163.833ZM165.536 268.874C164.944 268.885 164.356 268.964 163.783 269.106V268.967L165.252 268.524L165.956 268.373L166.03 268.629C165.709 268.699 165.944 268.699 165.573 268.874H165.536ZM167.092 268.524C167.05 268.535 167.007 268.537 166.965 268.532C166.922 268.526 166.881 268.513 166.845 268.492C166.808 268.472 166.776 268.444 166.75 268.412C166.725 268.379 166.707 268.342 166.697 268.303L167.141 268.21C167.181 268.195 167.224 268.19 167.266 268.193C167.309 268.197 167.35 268.211 167.386 268.232C167.422 268.254 167.452 268.283 167.474 268.317C167.496 268.352 167.508 268.391 167.511 268.431L167.092 268.524V268.524ZM171.301 264.252V264.113L172.029 263.95L172.103 264.206H171.338L171.301 264.252ZM175.794 290.257C175.825 290.115 175.825 289.969 175.794 289.827H175.954C175.991 289.812 176.032 289.806 176.072 289.808C176.112 289.811 176.151 289.822 176.186 289.841C176.221 289.86 176.25 289.887 176.272 289.919C176.294 289.951 176.308 289.987 176.312 290.025V290.164L175.72 290.292L175.794 290.257ZM179.016 265.358H178.695C178.27 265.525 177.833 265.661 177.386 265.766L177.09 265.835C177.051 265.848 177.01 265.852 176.969 265.849C176.928 265.846 176.889 265.834 176.853 265.816C176.817 265.797 176.785 265.772 176.76 265.741C176.735 265.71 176.717 265.675 176.707 265.637L178.781 265.172L179.472 264.869L179.707 265.114C179.447 265.148 179.2 265.244 178.991 265.393L179.016 265.358ZM180.633 264.869V264.73C180.786 264.684 180.922 264.599 181.028 264.485L182.521 264.159V264.299C181.876 264.434 181.244 264.621 180.633 264.858V264.869ZM180.867 262.017C180.711 262.071 180.569 262.154 180.447 262.262C180.447 262.169 180.213 262.169 179.83 262.262C179.756 261.994 180.867 261.61 183.151 261.098L183.472 261.028L183.546 261.284C181.941 261.726 181.077 261.982 180.867 262.006V262.017ZM184.891 257.92C184.731 259.643 184.089 260.62 182.953 260.865V260.725L181.941 261.098L181.497 261.191C181.295 261.245 181.081 261.245 180.88 261.191L180.793 260.807C182.132 258.818 183.6 256.909 185.187 255.091H185.533C185.577 256.05 185.374 257.005 184.941 257.873L184.891 257.92ZM192.014 252.169H191.878V251.902H192.47V252.041C192.315 252.082 192.166 252.14 192.026 252.216L192.014 252.169ZM189.051 279.944C188.766 279.803 188.447 279.734 188.125 279.746V279.339C188.125 279.199 188.216 279.102 188.397 279.047C188.594 279.047 188.705 279.152 188.73 279.443C188.965 279.113 189.243 278.812 189.557 278.547L189.866 278.663C189.755 279.49 189.483 279.921 189.076 279.955L189.051 279.944ZM220.491 248.875C220.342 248.875 220.059 248.456 219.602 247.571V247.304C219.886 247.304 220.194 247.699 220.491 248.572V248.875ZM220.071 245.779L219.935 246.058L215.677 244.382C218.516 244.463 219.985 244.94 220.071 245.779V245.779ZM202.037 260.434H201.444V260.166H202.037V260.434ZM201.543 251.657H201.703V252.065C201.555 252.065 201.37 252.259 201.148 252.647V252.379C201.356 252.184 201.491 251.931 201.531 251.657H201.543ZM200.309 254.474V255.01H200.148V254.474H200.309ZM199.63 255.487H199.926C199.926 255.945 199.798 256.181 199.543 256.197H199.383C199.529 255.984 199.614 255.74 199.63 255.487V255.487ZM199.148 256.872H199.284V257.023L199.025 257.454H198.729V257.314C199.037 257.314 199.173 257.14 199.148 256.872ZM198.642 258.187L198.543 258.886H198.395V258.199H198.692L198.642 258.187ZM193.705 271.341C193.507 272.249 193.301 272.715 193.087 272.738V272.622C193.077 272.377 193.129 272.133 193.239 271.91C193.348 271.687 193.512 271.493 193.717 271.341H193.705ZM192.791 273.169V273.285C192.804 273.324 192.806 273.364 192.797 273.404C192.789 273.443 192.771 273.48 192.744 273.511C192.717 273.542 192.683 273.566 192.644 273.582C192.605 273.597 192.562 273.603 192.52 273.6V273.46C192.52 273.32 192.61 273.223 192.791 273.169V273.169ZM192.594 276.941H193.05V277.08C192.893 277.109 192.743 277.164 192.606 277.243H192.31C192.31 277.088 192.4 276.991 192.581 276.952L192.594 276.941ZM205.505 273.181C203.925 273.841 202.416 274.644 201 275.579C198.235 276.487 196.877 277.057 196.889 277.278C195.243 277.854 193.636 278.522 192.075 279.28C191.798 279.269 191.528 279.197 191.285 279.071C191.258 278.836 191.307 278.599 191.426 278.391C191.545 278.183 191.729 278.014 191.952 277.907C192.372 277.869 192.796 277.929 193.186 278.081C193.955 277.771 194.752 277.529 195.569 277.36V277.092L194.643 277.173C195.471 276.688 196.358 276.298 197.284 276.009H197.741V276.126C196.963 276.196 196.507 276.405 196.433 276.801C196.432 276.838 196.44 276.876 196.456 276.91C196.473 276.944 196.498 276.974 196.529 276.998C196.56 277.022 196.596 277.038 196.635 277.047C196.674 277.055 196.715 277.054 196.754 277.045C197.334 276.684 197.605 276.487 197.605 276.417C198.708 276.23 201.769 274.717 206.789 271.877V272.145C206.789 272.249 206.369 272.599 205.555 273.192L205.505 273.181ZM197.803 275.509C198.522 275.456 199.199 275.168 199.716 274.694C199.914 274.694 200.025 274.764 200.037 274.938C199.313 275.113 198.622 275.392 197.988 275.765H197.827V275.509H197.803ZM210.245 266.499L206.419 269.409C204.933 270.433 203.37 271.351 201.74 272.156C197.19 274.484 194.355 275.711 193.236 275.835H193.075C193.215 275.346 195.252 271.427 199.185 264.078C201.999 263.631 204.74 262.849 207.345 261.75L208.27 261.68C209.008 261.556 209.765 261.585 210.489 261.764C211.214 261.943 211.888 262.267 212.467 262.716V263.251C211.813 265.172 211.109 266.22 210.221 266.545L210.245 266.499ZM202.728 262.506H203.32V262.646H202.728V262.506ZM211.43 261.109H211.887C212.307 261.307 212.529 261.482 212.541 261.621V261.738C212.314 261.746 212.089 261.695 211.891 261.59C211.693 261.485 211.529 261.331 211.418 261.144L211.43 261.109ZM212.665 254.509C211.67 255.403 210.568 256.185 209.381 256.837C207.09 257.503 204.861 258.344 202.716 259.352C202.522 259.286 202.316 259.258 202.111 259.27V259.002C202.116 258.291 202.358 257.599 202.802 257.023C203.098 255.522 203.432 254.695 203.777 254.497L206.999 247.711C206.999 247.315 207.641 246.989 209.023 246.733H209.48V247.141C210.838 246.931 211.69 246.811 212.035 246.78C214.504 246.57 215.886 247.047 215.997 248.223H216.294V247.571H216.59C216.905 247.678 217.185 247.861 217.402 248.102C217.618 248.344 217.764 248.634 217.824 248.945C217.805 249.47 217.591 249.973 217.22 250.365C217.022 250.365 216.911 250.26 216.886 249.969H216.59L216.504 250.784C215.121 252.553 214.195 253.531 213.578 253.531C213.06 254.195 212.739 254.532 212.591 254.544L212.665 254.509ZM214.01 259.026V258.618H214.306L214.948 258.991C214.954 259.027 214.951 259.064 214.939 259.099C214.928 259.135 214.909 259.167 214.883 259.195C214.857 259.222 214.826 259.244 214.79 259.259C214.754 259.274 214.716 259.282 214.677 259.282C214.494 259.15 214.276 259.07 214.047 259.049L214.01 259.026ZM160.426 285.415L160.13 285.485L159.87 285.694C159.875 285.732 159.889 285.768 159.911 285.8C159.933 285.832 159.962 285.858 159.997 285.878C160.032 285.897 160.071 285.908 160.111 285.911C160.151 285.913 160.191 285.907 160.228 285.892C160.426 285.892 160.5 285.741 160.463 285.566V285.427L160.426 285.415ZM159.266 283.273V283.413C159.463 283.413 159.537 283.261 159.5 283.087V282.947C159.46 282.951 159.422 282.963 159.388 282.982C159.354 283.001 159.324 283.027 159.302 283.058C159.279 283.089 159.265 283.125 159.258 283.162C159.252 283.199 159.255 283.237 159.266 283.273V283.273ZM167.412 268.85L167.635 268.722H167.524C167.49 268.731 167.46 268.751 167.442 268.779C167.423 268.807 167.417 268.841 167.425 268.874L167.412 268.85ZM167.412 265.114L167.758 265.032L167.684 264.753L167.338 264.834L167.412 265.114ZM248.696 276.067L247.918 275.986L247.783 276.265V276.405L252.436 276.033V275.765L248.733 276.067H248.696ZM252.955 275.73V275.998V275.73ZM272.458 273.32V273.588L272.964 273.67V273.402L272.458 273.32ZM271.742 273.32C270.221 273.72 268.654 273.942 267.076 273.984V274.252H267.57L267.952 274.112C271.409 273.751 271.816 273.879 271.779 273.518V273.32H271.742ZM250.758 268.524L250.449 268.431C250.275 268.803 250.15 269.194 250.079 269.595V269.712C250.325 269.712 250.535 269.316 250.745 268.548L250.758 268.524ZM246.548 266.382V266.336H246.388L246.104 266.511L246.264 266.767C246.487 266.767 246.585 266.65 246.561 266.464L246.548 266.382ZM255.695 275.299V275.031H255.547V275.299H255.695ZM274.667 271.26H274.89C275.013 271.26 275.075 271.155 275.062 270.981L274.939 270.724C274.309 270.721 273.689 270.869 273.137 271.155V271.015L272.186 271.097C272.186 270.829 272.087 270.69 271.952 270.701H271.458C270.878 270.701 270.606 270.701 270.322 270.934C270.322 270.841 270.322 270.794 270.224 270.794H269.668L269.347 270.969C269.347 270.876 269.347 270.829 269.248 270.829L269.051 270.992H268.1V271.26L268.495 271.353H268.866C268.992 271.423 269.14 271.452 269.285 271.435L269.606 271.283V271.4C268.608 271.644 267.594 271.827 266.57 271.947C266.483 271.878 266.375 271.837 266.261 271.83C266.229 271.829 266.197 271.821 266.168 271.808C266.138 271.795 266.112 271.777 266.09 271.754C266.068 271.731 266.052 271.705 266.041 271.676C266.03 271.647 266.025 271.616 266.027 271.586L266.669 271.504C266.81 271.547 266.955 271.582 267.101 271.609C267.619 271.365 267.644 271.272 267.915 271.248V270.981C266.832 271.168 265.733 271.266 264.632 271.272H264.533V271.004C267.385 270.678 266.434 270.864 267.409 270.608C267.409 270.701 267.409 270.748 267.508 270.748C267.613 270.645 267.753 270.579 267.903 270.561H268.1C269.219 270.594 270.336 270.456 271.409 270.154V270.27L271.73 270.119H272.026C272.026 269.851 272.445 269.805 272.594 269.793V269.502C269.125 270.166 268.212 269.979 267.249 270.236V270.119C266.844 270.207 266.428 270.239 266.014 270.212C265.904 270.244 265.806 270.304 265.73 270.387C265.73 270.294 265.73 270.247 265.619 270.247L262.669 270.701C262.669 270.62 262.669 270.585 262.558 270.596C261.528 270.881 260.469 271.06 259.398 271.132C259.26 271.155 259.13 271.207 259.015 271.283C259.015 271.202 259.015 271.167 258.855 271.178L257.621 271.272L256.781 271.469C256.781 271.388 256.781 271.353 256.621 271.365C256.218 271.475 255.804 271.549 255.386 271.586C255.177 271.586 255.485 271.586 255.386 271.469L255.127 271.609H253.695C251.473 271.865 251.72 271.9 251.473 271.912H250.646C250.651 271.928 250.65 271.946 250.646 271.962C250.641 271.979 250.633 271.994 250.621 272.007C250.608 272.019 250.593 272.029 250.576 272.035C250.559 272.04 250.541 272.042 250.523 272.04C249.585 271.923 249.091 271.784 249.091 271.621C249.215 270.775 249.433 270.34 249.745 270.317H249.906L249.77 270.596H249.93C250.227 270.445 250.362 270.305 250.35 270.177V269.886H250.054V269.619C250.026 269.432 250.056 269.242 250.14 269.071L250.819 268.035V268.303H251.14V268.035L250.955 267.791C251.114 267.638 251.315 267.529 251.535 267.477V267.337H251.103V266.93C251.659 265.991 252.075 264.984 252.337 263.938L252.646 264.054C252.844 264.054 252.93 263.938 252.918 263.74H252.621V263.624C252.6 263.427 252.639 263.23 252.732 263.053C252.944 262.876 253.11 262.656 253.221 262.411C253.332 262.165 253.385 261.9 253.374 261.633C253.461 261.633 253.51 261.633 253.522 261.761C253.93 261.54 254.238 260.97 254.461 260.015C255.66 257.662 256.679 255.23 257.51 252.74C260.04 246.314 259.978 245.639 260.287 244.114H259.991C260.013 244.306 259.974 244.501 259.88 244.673C259.728 244.608 259.564 244.572 259.398 244.568V244.452C259.41 243.728 259.675 243.029 260.151 242.461H260.287L260.546 243.392H260.842C260.892 243 260.97 242.611 261.077 242.228C261.077 242.089 260.953 241.995 260.719 241.984L260.435 242.158V240.645H260.287C260.088 240.495 259.948 240.286 259.892 240.051L258.25 240.203C258.219 240.034 258.157 239.873 258.065 239.725C258.065 239.586 258.423 239.446 259.176 239.306L259.509 239.423L259.818 239.248C259.818 239.341 259.892 239.388 260.003 239.376L260.312 239.202C260.312 239.295 260.386 239.341 260.497 239.33H260.645V239.015H258.843L258.534 239.213V239.039C250.815 239.636 246.433 239.982 245.388 240.075H243.759C243.759 240.191 243.66 240.261 243.425 240.284L243.092 240.145L241.969 240.412C241.525 240.45 241.079 240.45 240.636 240.412C240.455 240.548 240.236 240.629 240.006 240.645L243.302 240.447C243.065 240.599 242.786 240.684 242.5 240.692C242.275 240.72 242.047 240.684 241.845 240.587C241.036 240.822 240.212 241.004 239.377 241.134L239.043 241.018L233.661 241.797C233.434 241.699 233.181 241.663 232.933 241.693C232.448 241.753 231.969 241.85 231.501 241.984L228.897 243.008L229.094 243.311C229.283 243.279 229.464 243.211 229.625 243.113L230.551 243.194L230.44 244.009C230.047 244.077 229.679 244.238 229.372 244.479C229.065 244.72 228.829 245.031 228.687 245.383C227.452 245.918 226.774 246.291 226.774 246.547V246.687H226.971L227.317 246.512L227.724 246.966V247.595C227.724 247.789 225.58 252.057 221.293 260.399C217.59 268.431 215.615 272.82 215.43 273.611C214.195 273.949 213.418 274.438 213.195 275.09C213.195 275.299 213.603 275.439 214.331 275.485V275.8L213.998 276.324V276.952C213.998 277.278 214.928 277.526 216.787 277.697C216.787 277.592 216.787 277.523 216.96 277.511C216.948 278.297 216.832 279.08 216.615 279.839H216.812C217.37 279.279 217.747 278.58 217.898 277.825H218.059C218.244 277.825 218.442 278.011 218.664 278.431C218.433 278.516 217.61 280.243 216.195 283.611L216.392 283.913H216.59C218.277 279.878 219.339 277.647 219.775 277.22C221.997 277.034 225.835 276.646 231.291 276.056L231.637 275.858C231.636 275.882 231.641 275.907 231.652 275.929C231.663 275.951 231.679 275.971 231.7 275.986C231.72 276 231.745 276.01 231.77 276.015C231.796 276.019 231.822 276.017 231.847 276.009H232.205L232.55 275.811C232.549 275.836 232.554 275.86 232.565 275.882C232.576 275.905 232.593 275.924 232.613 275.939C232.634 275.954 232.658 275.964 232.684 275.968C232.709 275.972 232.736 275.97 232.76 275.963L237.031 275.497C238.13 275.416 238.636 275.101 238.599 274.566C238.599 274.426 239.228 274.263 240.537 274.089C240.731 274.087 240.923 274.118 241.105 274.182C241.105 274.089 241.747 273.984 243.055 273.879C243.055 273.227 243.302 272.878 243.697 272.843V272.529C243.276 272.575 242.862 272.664 242.462 272.796C241.91 272.79 241.359 272.728 240.821 272.61C240.659 272.707 240.479 272.774 240.29 272.808L237.414 272.89L237.068 273.064C237.068 272.963 236.998 272.921 236.858 272.936H236.698L236.328 273.111C236.328 273.018 236.019 272.936 235.414 272.866L235.044 273.076H234.328V272.971C238.031 272.591 239.858 272.117 239.809 271.551C239.858 271.54 239.908 271.54 239.957 271.551C240.006 271.562 240.052 271.583 240.09 271.614C240.129 271.645 240.159 271.683 240.179 271.727C240.198 271.77 240.207 271.818 240.204 271.865L241.29 271.609V271.295L232.427 271.528C232.427 271.632 232.427 271.702 232.254 271.714L231.168 271.632C230.919 271.646 230.679 271.727 230.477 271.865L230.069 271.726C229.235 271.774 228.408 271.903 227.601 272.11C226.779 272.049 225.954 272.049 225.132 272.11L223.145 272.273L222.095 272.156C222.095 271.597 223.194 268.885 225.539 264.008C225.887 262.848 226.541 261.791 227.44 260.935C227.637 260.937 227.831 260.981 228.008 261.063L229.427 260.609L230.156 260.714C231.615 260.563 233.047 260.23 234.414 259.724C234.725 259.682 235.043 259.71 235.34 259.806L236.426 259.561L239.611 259.352C241.129 259.216 242.627 258.927 244.08 258.49V258.176C243.487 258.176 243.166 258.176 243.154 257.908C243.154 257.489 242.685 257.314 241.845 257.373V257.058L242.734 256.814L245.055 256.628V256.313H243.623V255.976L244.524 255.894C244.771 255.894 244.87 255.766 244.845 255.545C243.61 255.545 243.03 255.545 243.018 255.37C234.6 255.758 230.378 255.832 230.353 255.592C230.162 255.631 229.982 255.706 229.823 255.813L229.6 255.487C231.83 251.017 233.139 248.766 233.526 248.735C233.503 249.03 233.41 249.317 233.254 249.573V249.713H233.612C234.501 247.723 235.241 246.687 235.871 246.64C238.512 246.419 235.501 246.256 241.166 245.476C241.322 245.556 241.495 245.6 241.673 245.604C243.894 245.177 246.989 244.735 250.955 244.277V243.963L248.844 244.149V243.835C249.074 243.818 249.293 243.737 249.474 243.602V243.776C249.649 243.737 249.814 243.661 249.955 243.555C250.239 243.511 250.53 243.543 250.795 243.648C251.377 243.495 251.971 243.382 252.572 243.311L253.893 243.194C254.214 242.996 254.362 242.822 254.35 242.659V242.519C253.961 242.547 253.571 242.524 253.189 242.449C253.184 242.408 253.188 242.366 253.2 242.326C253.212 242.286 253.232 242.249 253.26 242.216C253.288 242.184 253.322 242.157 253.36 242.137C253.399 242.117 253.442 242.104 253.485 242.1L255.954 241.879L257.077 241.611C257.077 241.728 257.152 241.774 257.238 241.774C257.414 241.735 257.578 241.659 257.719 241.553H257.905C257.705 241.963 257.54 242.387 257.411 242.822H257.09C257.073 242.625 257.01 242.434 256.905 242.263H256.744C253.757 250.121 252.424 253.776 249.659 259.806C249.153 261.342 248.733 262.204 248.363 262.39C248.362 262.427 248.37 262.465 248.386 262.499C248.403 262.533 248.428 262.563 248.459 262.587C248.49 262.611 248.527 262.627 248.566 262.635C248.605 262.644 248.645 262.643 248.684 262.634C248.747 263.421 248.549 264.206 248.116 264.881C246.882 268.373 245.993 270.247 245.548 270.596L245.672 272.156C245.677 272.193 245.674 272.23 245.663 272.265C245.652 272.3 245.632 272.333 245.607 272.36C245.581 272.388 245.549 272.41 245.514 272.425C245.478 272.44 245.439 272.448 245.4 272.447H245.104C245.104 271.993 244.882 271.772 244.573 271.807H244.413C243.999 272.422 243.698 273.099 243.524 273.809H243.82C243.992 273.729 244.135 273.604 244.234 273.449C244.332 273.295 244.381 273.117 244.376 272.936H244.968L245.314 273.053C245.081 273.337 244.947 273.683 244.931 274.042L245.092 274.298L244.697 275.171V275.311C245.096 275.296 245.49 275.402 245.82 275.614C246.15 275.57 246.464 275.45 246.733 275.264H250.585L251.696 274.903C252.614 274.923 253.533 274.895 254.448 274.822H254.93L255.189 274.659V274.799C255.946 274.717 256.712 274.745 257.46 274.88V275.02H256.781V275.288C256.979 275.275 257.169 275.206 257.324 275.09C257.497 275.09 257.596 275.171 257.608 275.357C257.293 275.389 256.982 275.455 256.682 275.555L256.386 275.462C255.917 275.579 256.016 275.614 255.695 275.637L255.226 275.555C255.23 275.571 255.23 275.587 255.226 275.603C255.222 275.618 255.214 275.633 255.204 275.645C255.193 275.657 255.179 275.667 255.164 275.674C255.149 275.681 255.132 275.684 255.115 275.683C255.113 275.718 255.119 275.753 255.132 275.785C255.146 275.817 255.168 275.846 255.195 275.87C255.222 275.893 255.254 275.91 255.29 275.921C255.325 275.931 255.362 275.933 255.399 275.928H255.88L258.349 275.718L259.299 275.52C259.299 275.602 259.299 275.637 259.423 275.625L259.88 275.462L260.744 275.392C261.41 275.392 261.398 275.299 262.854 275.078C262.854 274.997 262.854 274.962 262.941 274.95V275.066C263.946 274.94 264.94 274.745 265.916 274.484V274.554C266.508 274.426 266.175 274.461 266.335 274.345C266.335 274.438 266.335 274.484 266.434 274.484H266.854V274.193H265.817C265.508 274.248 265.193 274.271 264.879 274.263L262.768 274.368V274.228L264.002 274.077H264.422L264.669 273.914V274.054C266.323 273.926 266.915 274.31 274.544 272.773C274.964 272.773 274.927 272.412 275.186 271.737C275.044 271.749 274.903 271.72 274.778 271.656C274.062 271.82 273.33 271.921 272.594 271.958C272.495 271.958 272.408 271.877 272.371 271.714V271.597H273.606C274.043 271.554 274.465 271.418 274.84 271.202C274.84 271.295 274.593 271.353 274.741 271.341L274.667 271.26ZM218.034 272.156H217.491C217.672 271.348 217.962 270.566 218.355 269.828H218.713C218.6 270.63 218.372 271.413 218.034 272.156V272.156ZM218.688 269.688V269.549C218.688 269.374 218.787 269.258 219.046 269.2V269.339C219.046 269.549 218.948 269.665 218.688 269.688ZM225.922 274.95V275.09L225.021 275.171V275.031L225.922 274.95ZM224.836 274.869C224.836 275.043 224.576 275.241 223.972 275.427L222.873 275.346H222.515V275.031L224.873 274.822L224.836 274.869ZM232.094 243.311H231.551V243.136C231.551 242.962 231.637 242.845 231.872 242.787H232.069L232.439 242.927C232.447 242.971 232.444 243.017 232.43 243.06C232.416 243.103 232.393 243.143 232.361 243.176C232.329 243.21 232.29 243.236 232.245 243.253C232.201 243.27 232.154 243.278 232.106 243.276L232.094 243.311ZM240.315 241.797H240.488V242.112H239.994C239.989 242.07 239.992 242.029 240.004 241.989C240.017 241.949 240.037 241.911 240.065 241.879C240.092 241.846 240.126 241.819 240.165 241.799C240.204 241.779 240.246 241.767 240.29 241.763L240.315 241.797ZM238.266 242.473L237.451 242.391V242.24C238.146 242.2 238.834 242.083 239.5 241.891C239.5 242.007 239.623 242.054 239.833 242.03V242.345H239.512C239.288 242.373 239.06 242.337 238.858 242.24C238.67 242.36 238.454 242.436 238.229 242.461L238.266 242.473ZM239.29 245.278V245.138L240.611 245.022V245.162L239.29 245.278ZM240.66 244.219V244.044H241.302V244.219H240.66ZM240.808 242.089H240.636L240.784 241.751L242.253 241.623V241.797C241.76 241.852 241.272 241.946 240.796 242.077L240.808 242.089ZM241.561 245.08V244.766H242.203C242.425 244.766 242.541 244.863 242.549 245.057L241.586 245.138L241.561 245.08ZM245.462 240.075L244.635 240.296H244.437C243.941 240.337 243.441 240.337 242.944 240.296C244.018 240.226 245.042 240.156 245.413 240.098L245.462 240.075ZM244.573 243.567V243.707L243.438 243.8V243.66L244.573 243.567ZM246.437 244.405C246.437 244.277 246.203 244.184 245.758 244.149L244.623 244.452H243.746C243.549 244.324 243.45 244.23 243.438 244.172H244.45L246.721 243.823H247.881V243.998C247.386 244.038 246.897 244.132 246.425 244.277L246.437 244.405ZM258.151 241.553H258.411C258.805 241.183 259.27 240.887 259.781 240.68C259.528 242.096 258.856 243.415 257.843 244.486L257.201 244.114C257.581 243.274 257.898 242.411 258.151 241.53V241.553ZM256.176 244.754H256.337C256.115 245.15 255.917 245.348 255.757 245.36V244.952C255.919 244.926 256.072 244.862 256.201 244.766L256.176 244.754ZM254.942 247.629C255.041 246.899 255.348 246.207 255.831 245.627V245.767C255.67 246.85 255.411 247.432 255.078 247.466V248.153C254.852 248.398 254.713 248.703 254.683 249.026H254.522L254.436 248.083C254.621 248.083 254.769 247.909 254.868 247.629H254.942ZM254.448 249.189C254.401 249.591 254.288 249.984 254.115 250.353H253.955V249.946C254.177 249.469 254.362 249.224 254.485 249.224L254.448 249.189ZM245.166 274.589V274.473H245.462V274.88C245.302 274.88 245.19 274.799 245.141 274.612L245.166 274.589ZM258.423 274.915C258.423 274.822 258.423 274.775 258.262 274.787L257.51 274.857V274.717H257.584L259.25 274.484V274.624C258.926 274.601 258.602 274.674 258.324 274.834L258.423 274.915ZM257.534 274.566C257.608 274.566 257.534 274.636 257.534 274.647C257.534 274.659 257.448 274.647 257.534 274.566ZM257.621 272.61L256.633 272.692V272.505L257.534 272.424L258.312 272.238C258.312 272.319 258.312 272.354 258.472 272.342C259.398 272.191 259.312 272.145 259.707 272.11C259.855 272.11 259.954 272.191 259.966 272.354L257.584 272.552L257.621 272.61ZM261.077 272.331C260.756 272.269 260.429 272.246 260.102 272.261V272.156L260.99 272.075V272.156C260.904 272.156 261.237 272.156 261.077 272.296V272.331ZM261.151 272.18V272.063H261.632V272.18H261.151ZM262.225 272.098V271.982C262.353 271.95 262.471 271.89 262.57 271.807C262.618 271.8 262.666 271.803 262.712 271.815C262.758 271.827 262.801 271.848 262.838 271.877C262.876 271.905 262.906 271.94 262.928 271.981C262.95 272.021 262.963 272.065 262.965 272.11L262.225 272.098ZM263.595 271.935V271.795H264.187V271.935H263.595ZM264.41 271.865C264.41 271.702 264.41 271.609 264.62 271.586L264.817 271.83C264.813 271.817 264.813 271.802 264.815 271.788C264.818 271.774 264.823 271.761 264.831 271.749C264.839 271.737 264.85 271.727 264.862 271.719C264.875 271.711 264.889 271.705 264.903 271.702L265.052 271.958L264.41 271.877V271.865ZM275.939 270.468C276.025 270.468 276.075 270.364 275.852 270.329C275.63 270.294 275.963 270.468 275.741 270.48V270.573L275.865 270.492L275.741 270.585L275.494 270.876L275.976 270.713V270.445L275.939 270.468ZM276.778 271.085H276.692V271.353H277.371C277.371 271.178 276.914 271.12 276.766 271.12L276.778 271.085Z" fill="#F9DC3E"/>
<path d="M100.75 205.299L100 205.732L99.25 205.299L12.6475 155.299L11.8975 154.866V154V54V53.134L12.6475 52.701L99.25 2.70096L100 2.26794L100.75 2.70096L187.353 52.701L188.103 53.134V54V154V154.866L187.353 155.299L100.75 205.299Z" fill="white" stroke="#018BFF" stroke-width="3"/>
<path d="M51.7953 87.7947C43.4902 87.7947 37.9167 93.0234 37.9167 103.169V110.402C38.7552 109.955 39.6824 109.716 40.625 109.705C41.5658 109.705 42.4955 109.938 43.3406 110.385V103.135C43.3406 96.5559 46.7014 93.1762 51.8186 93.1762C56.9371 93.1762 60.25 96.5559 60.25 103.135V118.943H65.6591V103.135C65.6739 92.9305 60.1004 87.7947 51.7953 87.7947V87.7947ZM68.6176 103.755C68.6176 94.5261 74.8976 87.7603 83.7448 87.7603C92.592 87.7603 98.7616 94.5515 98.7616 103.755V105.903H74.3015C75.0865 111.319 78.8545 114.333 83.7215 114.333C87.3644 114.333 89.923 113.102 91.5715 110.462H97.5375C95.3788 116.116 90.2603 119.749 83.7215 119.749C74.8743 119.749 68.6176 112.983 68.6176 103.755V103.755ZM93.0704 100.682C91.9873 95.8173 88.299 93.1762 83.7448 93.1762C79.1918 93.1762 75.5575 95.8848 74.4744 100.682H93.0704ZM101.651 103.755C101.651 94.535 107.931 87.7692 116.777 87.7692C125.625 87.7692 131.905 94.5605 131.905 103.755C131.905 112.949 125.625 119.749 116.777 119.749C107.931 119.749 101.651 112.983 101.651 103.755V103.755ZM126.449 103.755C126.449 97.6078 122.579 93.1762 116.777 93.1762C110.976 93.1762 107.114 97.6078 107.114 103.755C107.114 109.902 110.977 114.333 116.77 114.333C122.563 114.333 126.449 109.909 126.449 103.755ZM162.803 124.996H163.431C166.9 124.996 168.203 123.298 168.203 119.052V88.7791H173.611V118.663C173.611 126.167 170.88 130.038 163.941 130.038H162.803V124.996V124.996ZM160.102 121.872H154.693V114.664H140.995C139.739 114.71 138.498 114.381 137.417 113.717C136.318 113.039 135.421 112.059 134.825 110.886C134.332 109.767 134.141 108.53 134.272 107.308C134.399 106.09 134.846 104.931 135.563 103.958L147.856 86.5123C148.691 85.2834 149.881 84.3631 151.255 83.8852C152.612 83.4178 154.08 83.4259 155.432 83.9082C156.802 84.4006 157.984 85.3333 158.808 86.5709C159.65 87.8334 160.101 89.3321 160.102 90.8675V109.476H164.161V114.664H160.102V121.872V121.872ZM140.06 107.151C139.928 107.357 139.845 107.592 139.819 107.838C139.793 108.084 139.825 108.333 139.912 108.563C139.979 108.741 140.078 108.904 140.206 109.041C140.329 109.177 140.479 109.286 140.644 109.359C140.81 109.433 140.989 109.47 141.169 109.469H154.693V90.7236C154.704 90.4096 154.618 90.1001 154.449 89.8398C154.283 89.5849 154.041 89.3941 153.759 89.2974C153.599 89.2479 153.433 89.2221 153.265 89.2209C153.053 89.2209 152.844 89.277 152.659 89.3852C152.471 89.4946 152.312 89.6508 152.197 89.8398L140.061 107.151H140.06Z" fill="black"/>
<path d="M170.935 76.3592C170.014 76.3592 169.115 76.6525 168.359 77.1997C167.59 77.7583 166.996 78.5389 166.651 79.4448C166.298 80.3636 166.205 81.3677 166.383 82.3393C166.557 83.3041 166.997 84.1959 167.649 84.9065C168.297 85.6069 169.122 86.0857 170.021 86.2793C170.92 86.4736 171.855 86.3748 172.698 85.9966C173.553 85.6101 174.277 84.9671 174.778 84.1501C175.289 83.3191 175.56 82.3536 175.559 81.3677C175.563 80.0511 175.078 78.7835 174.205 77.8288C173.784 77.3676 173.277 76.9996 172.715 76.7471C172.153 76.4945 171.547 76.3626 170.935 76.3592V76.3592ZM40.3895 111.565C39.385 111.566 38.4086 111.924 37.6101 112.583L32.5236 108.823C32.6376 108.384 32.6953 107.929 32.6965 107.473C32.7085 106.487 32.4475 105.517 31.9446 104.68C31.4522 103.858 30.7342 103.208 29.8828 102.812C29.0437 102.425 28.1097 102.316 27.2089 102.502C26.3007 102.691 25.4696 103.163 24.8257 103.854C24.1689 104.56 23.7236 105.448 23.5439 106.411C23.3602 107.381 23.447 108.386 23.7941 109.307C24.1412 110.224 24.7324 111.009 25.4929 111.563C26.2534 112.116 27.1488 112.413 28.065 112.414C29.0708 112.414 30.0471 112.057 30.8444 111.395L35.915 115.181C35.6846 116.068 35.6846 117.003 35.915 117.89L30.8285 121.65C30.0448 120.996 29.0706 120.637 28.065 120.632C27.1438 120.631 26.2448 120.925 25.4892 121.472C24.7192 122.031 24.1246 122.812 23.7794 123.72C23.4277 124.639 23.3358 125.644 23.5145 126.615C23.6892 127.581 24.1297 128.472 24.7827 129.183C25.4304 129.883 26.2558 130.361 27.1561 130.554C28.0559 130.747 28.9911 130.646 29.8337 130.266C30.6882 129.879 31.4117 129.236 31.9115 128.419C32.4193 127.593 32.6904 126.623 32.6891 125.632C32.6891 125.183 32.6327 124.733 32.5236 124.299L37.6101 120.539C38.4086 121.198 39.385 121.557 40.3895 121.557C41.5683 121.462 42.6652 120.894 43.4486 119.974C44.252 119.034 44.6942 117.819 44.6911 116.562C44.6911 115.295 44.247 114.075 43.4486 113.149C42.6654 112.229 41.5685 111.661 40.3895 111.565V111.565Z" fill="#018BFF"/>
<path d="M314.897 317.134L400 366.268L485.103 317.134V218.866L400 169.732L314.897 218.866V317.134Z" fill="white" stroke="#FF7262" stroke-width="3"/>
<g clip-path="url(#clip0_7_203)">
<path d="M381.5 333C393.4 333 403 323.4 403 311.5V290H381.5C369.6 290 360 299.6 360 311.5C360 323.4 369.6 333 381.5 333Z" fill="#0ACF83"/>
<path d="M360 268.5C360 256.6 369.6 247 381.5 247H403V290H381.5C369.6 290 360 280.4 360 268.5Z" fill="#A259FF"/>
<path d="M360 225.5C360 213.6 369.6 204 381.5 204H403V247H381.5C369.6 247 360 237.4 360 225.5Z" fill="#F24E1E"/>
<path d="M403 204H424.5C436.4 204 446 213.6 446 225.5C446 237.4 436.4 247 424.5 247H403V204Z" fill="#FF7262"/>
<path d="M446 268.5C446 280.4 436.4 290 424.5 290C412.6 290 403 280.4 403 268.5C403 256.6 412.6 247 424.5 247C436.4 247 446 256.6 446 268.5Z" fill="#1ABCFE"/>
</g>
<path d="M414.897 153.134L500 202.268L585.103 153.134V54.866L500 5.73206L414.897 54.866V153.134Z" fill="white" stroke="#6762A6" stroke-width="3"/>
<path d="M550 53.9C550 47.3 544.7 42 538.1 42H461.9C455.3 42 450 47.3 450 53.9V154.2C450 160.8 455.3 166.1 461.9 166.1H538.2C544.8 166.1 550.1 160.8 550.1 154.2V53.9H550ZM546 54V153.3C546 158 542.5 162 537.8 162H462.5C457.8 162 454 158 454 153.3V54C454 49.3 457.9 46 462.5 46H537.7C542.4 46 546.1 49.6 546.1 54.3L546 54V54ZM473 148.7L487.1 134.6L473 120.5V148.7ZM487 87.8V58.4L473.1 58.5C473.1 58.5 473.2 104.4 473.3 104.2C516.1 87.5 513 99.4 513 99.4V148.8L512.9 149H526V99.5C526 72.4 487 87.8 487 87.8V87.8ZM506 76H520.8C528.8 66 531.5 59 531.5 59H516.2C516.2 59 511.3 70 506 76Z" fill="#6762A6"/>
<path d="M214.897 153.134L300 202.268L385.103 153.134V54.866L300 5.73206L214.897 54.866V153.134Z" fill="white" stroke="#1C78C0" stroke-width="3"/>
<path d="M353.29 138.1L302.24 167V144.49L334 127L353.29 138.1V138.1ZM356.79 134.94V74.55L338.11 85.35V124.16L356.78 134.93L356.79 134.94ZM246.71 138.1L297.71 166.98V144.49L265.94 127L246.71 138.1ZM243.21 134.94V74.55L261.89 85.35V124.16L243.21 134.94ZM245.4 70.64L297.76 41V62.76L264.21 81.21L263.94 81.36L245.4 70.64ZM354.58 70.64L302.24 41V62.76L335.79 81.2L336.06 81.35L354.6 70.64H354.58Z" fill="#8ED6FB"/>
<path d="M297.76 139.37L266.37 122.1V87.92L297.76 106V139.37ZM302.24 139.37L333.63 122.12V87.92L302.24 106V139.37ZM268.5 84L300 66.66L331.5 84L300 102.16L268.5 84Z" fill="#1C78C0"/>
<defs>
<clipPath id="clip0_7_203">
<rect width="128" height="128" fill="white" transform="translate(336 204)"/>
</clipPath>
</defs>
</svg>
